<?xml version="1.0" encoding="UTF-8"?>
<svg width="24px" height="24px" viewBox="0 0 24 24" version="1.1" xmlns="http://www.w3.org/2000/svg" xmlns:xlink="http://www.w3.org/1999/xlink">
    <!-- Generator: Sketch 59.1 (86144) - https://sketch.com -->
    <title>AtoZ</title>
    <desc>Created with Sketch.</desc>
    <g id="AtoZ" stroke="none" stroke-width="1" fill="none" fill-rule="evenodd">
        <path d="M15.34,5.36 L10.62,5.36 L12.98,3 L15.34,5.36 Z M10.65,20.07 L15.31,20.07 L12.98,22.4 L10.65,20.07 Z M6.5,6.97 L2,18.43 L3.84,18.43 L4.76,15.98 L9.87,15.98 L10.79,18.43 L12.63,18.43 L8.14,6.97 L6.5,6.97 Z M5.37,14.34 L7.31,9.16 L9.25,14.34 L5.37,14.34 Z M16.13,16.84 L22.25,16.84 L22.25,18.43 L13.72,18.43 L13.72,17.14 L19.64,8.58 L13.76,8.58 L13.76,6.98 L22.06,6.98 L22.06,8.24 L16.13,16.84 L16.13,16.84 Z" id="Shape" fill="#000000" fill-rule="nonzero"></path>
    </g>
</svg>