<svg xmlns="http://www.w3.org/2000/svg" width="40" height="40" viewBox="0 0 40 40">
    <g fill="#5067EB" fill-rule="evenodd">
        <path fill-opacity=".2" stroke="#5067EB" d="M3 .5A2.5 2.5 0 0 0 .5 3v34A2.5 2.5 0 0 0 3 39.5h34a2.5 2.5 0 0 0 2.5-2.5V3A2.5 2.5 0 0 0 37 .5H3z"/>
        <path fill-rule="nonzero" d="M20.033 30c.9 0 1.732-.225 2.494-.675a4.967 4.967 0 0 0 1.809-1.83c.443-.77.664-1.613.664-2.528V14.553h-1.35v10.414c0 .654-.164 1.264-.491 1.83a3.732 3.732 0 0 1-1.318 1.351 3.428 3.428 0 0 1-1.808.501c-.654 0-1.26-.167-1.82-.5a3.79 3.79 0 0 1-1.34-1.352 3.541 3.541 0 0 1-.5-1.83V13.66c0-.407.105-.788.315-1.144.211-.356.49-.639.84-.85.348-.21.725-.315 1.132-.315.407 0 .784.105 1.133.316.349.21.625.493.828.85.203.355.305.736.305 1.143v9.52a.87.87 0 0 1-.25.644.87.87 0 0 1-.643.25.946.946 0 0 1-.665-.25.834.834 0 0 1-.272-.643v-8.628h-1.373v8.628c0 .407.106.784.316 1.133.21.348.494.624.85.828.356.203.737.305 1.144.305.406 0 .78-.102 1.122-.305a2.29 2.29 0 0 0 .817-.828 2.21 2.21 0 0 0 .305-1.133v-9.52c0-.654-.164-1.264-.49-1.83a3.646 3.646 0 0 0-1.319-1.34A3.485 3.485 0 0 0 18.66 10c-.653 0-1.26.167-1.819.501-.56.334-1.006.78-1.34 1.34a3.484 3.484 0 0 0-.501 1.82v11.306c0 .915.229 1.758.686 2.528a5.111 5.111 0 0 0 1.841 1.83c.77.45 1.605.675 2.506.675z"/>
    </g>
</svg>
