<svg xmlns="http://www.w3.org/2000/svg" width="50" height="50" viewBox="0 0 50 50">
    <g fill="none" fill-rule="evenodd">
        <circle cx="25" cy="25" r="25" fill="#EFF4FF"/>
        <path fill="#5067EB" fill-rule="nonzero" stroke="#5067EB" stroke-width=".1" d="M24.986 32.09c.97 0 1.759.79 1.759 1.759 0 .379-.119.74-.358.968a2.493 2.493 0 0 1 1.334 2.206v.488a.538.538 0 0 1-.538.538H14.488a.538.538 0 0 1-.538-.538v-.488c0-.934.522-1.778 1.319-2.133a1.75 1.75 0 0 1-.342-1.041c0-.47.183-.912.515-1.244a1.747 1.747 0 0 1 1.243-.515h8.3zm-.747-19.14a1.99 1.99 0 0 1 1.417.587l4.143 4.143c.378.378.586.881.586 1.416a1.99 1.99 0 0 1-.587 1.417c-.38.38-.888.585-1.416.585a1.15 1.15 0 0 1-.469-.08l-.605.51a1.506 1.506 0 0 1 .863 1.367c0 .392-.148.762-.422.972l6.386 5.571 1.368 1.196a.537.537 0 0 1 .206.177l2.28 1.99c.23.194.43.425.599.686a2.94 2.94 0 0 1 .098 3 3.005 3.005 0 0 1-2.635 1.563A2.954 2.954 0 0 1 33.789 37l-2.022-2.324-.03-.026a.488.488 0 0 1-.068-.086l-6.73-7.812c-.283.27-.653.42-1.045.42-.405 0-.785-.159-1.071-.445-.123-.122-.223-.263-.216-.404l-.577.542a2.003 2.003 0 0 1-3.35 1.934l-4.143-4.143a2.005 2.005 0 0 1 0-2.833 1.99 1.99 0 0 1 1.416-.587c.176 0 .35.023.47.081l5.882-5.846a2.003 2.003 0 0 1 1.934-2.521zm.991 22.658h-8.789c-.78 0-1.414.635-1.464 1.365l11.668.05c0-.78-.635-1.415-1.415-1.415zm10.051-3.742l-2.454 2.39 1.776 2.04.006.006a1.89 1.89 0 0 0 1.713.652 1.936 1.936 0 0 0 1.424-.993 1.878 1.878 0 0 0-.063-1.89 2.052 2.052 0 0 0-.393-.452l-.003-.003-.002-.002-2.004-1.748zm-10.295 1.3h-8.3a.678.678 0 0 0-.483.2.683.683 0 0 0 .483 1.165h8.3c.182 0 .354-.07.483-.2a.683.683 0 0 0-.483-1.165zm8.82-2.587l-2.264 2.2.57.735 2.397-2.322-.703-.613zm-6.78-5.914l-1.391 1.327 5.191 6.045 2.207-2.131-6.007-5.24zm-11.073-2.352a.928.928 0 0 0-.655 1.582l4.143 4.142a.927.927 0 0 0 1.31-1.31l-4.143-4.143a.92.92 0 0 0-.655-.271zm11.013.271a.44.44 0 0 0-.614-.005l-2.774 2.773a.435.435 0 0 0 .315.743.435.435 0 0 0 .311-.129l2.762-2.762a.436.436 0 0 0 0-.62zm0 0zm-4.108-6.18l-5.489 5.419 4.073 4.143 1.364-1.364.006-.006.012-.013 2.76-2.76.012-.011.001-.001.001-.001 1.368-1.297-4.108-4.109zm1.38-2.377a.927.927 0 0 0-.655 1.582l4.144 4.143a.927.927 0 0 0 1.31-1.31l-4.143-4.144a.92.92 0 0 0-.655-.271z"/>
    </g>
</svg>
