<svg xmlns="http://www.w3.org/2000/svg" width="44" height="44" viewBox="0 0 44 44">
    <g fill="none" fill-rule="evenodd">
        <circle cx="22" cy="22" r="21.25" fill="#5067EB" stroke="#FFF" stroke-width="1.5"/>
        <path fill="#FFF" fill-rule="nonzero" d="M24.538 14.3l1.686 2.634H31.9V29.7H12.1V16.934h5.676l1.686-2.634h5.076zM22 19.183c-2.292 0-4.157 1.855-4.157 4.134 0 2.28 1.865 4.134 4.157 4.134s4.157-1.855 4.157-4.134c0-2.28-1.865-4.134-4.157-4.134zm0 1.154a2.992 2.992 0 0 1 2.997 2.98A2.992 2.992 0 0 1 22 26.297a2.992 2.992 0 0 1-2.997-2.98A2.992 2.992 0 0 1 22 20.337zm7.531-1.163h-1.18v1.173h1.18v-1.173z"/>
    </g>
</svg>
