<svg xmlns="http://www.w3.org/2000/svg" width="56" height="56" viewBox="0 0 56 56">
    <g fill="none" fill-rule="evenodd">
        <circle cx="28" cy="28" r="28" fill="#EFF4FF"/>
        <path fill="#5067EB" fill-rule="nonzero" stroke="#5067EB" stroke-width=".4" d="M23.737 36.452a2.993 2.993 0 0 1 3.026 3.026 3 3 0 0 1-3.026 3.025 2.996 2.996 0 0 1-3.026-3.025 2.996 2.996 0 0 1 3.026-3.026zm12.113 0a3 3 0 0 1 3.026 3.026 2.996 2.996 0 0 1-3.026 3.025 2.996 2.996 0 0 1-3.025-3.025 2.996 2.996 0 0 1 3.025-3.026zm-12.113 1.215c-.97 0-1.816.846-1.816 1.816 0 .971.845 1.817 1.816 1.817.97 0 1.816-.846 1.816-1.817 0-.97-.845-1.816-1.816-1.816zm12.113 0c-.97 0-1.816.846-1.816 1.816 0 .971.846 1.817 1.816 1.817.965 0 1.817-.846 1.817-1.817 0-.97-.846-1.816-1.817-1.816zM17.68 15.864c.244 0 .608.238.608.482l.607 3.15h8.48c.364 0 .608.245.608.608s-.244.607-.607.607h-8.237l2.18 10.9L39 29.31l.482-2.06c.12-.364.364-.602.727-.483.363.12.602.483.482.596l-.607 2.424c0 .238-.238.483-.482.483L21.92 32.694c.488.852 1.453 1.334 2.423 1.334h13.8c.363 0 .607.244.607.608 0 .363-.244.607-.607.607H24.22c-1.936 0-3.753-1.453-4.116-3.389L17.198 17.08h-3.15c-.364 0-.608-.245-.608-.608s.244-.607.607-.607zm18.17-2.418c3.633 0 6.659 3.03 6.659 6.664 0 3.633-3.026 6.658-6.659 6.658-3.632 0-6.658-3.031-6.658-6.664 0-3.633 3.026-6.658 6.658-6.658zm0 1.209a5.426 5.426 0 0 0-5.449 5.45 5.43 5.43 0 0 0 5.45 5.448 5.43 5.43 0 0 0 5.449-5.449 5.43 5.43 0 0 0-5.45-5.45zm-2.701 2.628a.58.58 0 0 1 .845 0l1.936 1.936.817-.818 1.119-1.118a.58.58 0 0 1 .845 0 .58.58 0 0 1 0 .846l-.272.272-1.669 1.67 1.936 1.935c.21.215.238.522.074.755a.637.637 0 0 1-.12.164.58.58 0 0 1-.845 0l-2.016-2.015-.896.897h.028l-1.118 1.118a.58.58 0 0 1-.846 0c-.244-.238-.13-.601.113-.845l.074-.074 1.936-1.936-1.941-1.941a.58.58 0 0 1 0-.846z"/>
    </g>
</svg>
