<svg xmlns="http://www.w3.org/2000/svg" width="383" height="240" viewBox="0 0 383 240">
    <g fill="none" fill-rule="nonzero" opacity=".6">
        <path fill="#FAFAF9" d="M136.806 145.17h216.87V.11h-216.87z"/>
        <path fill="#E7E8E5" d="M353.676 14.6h-216.87V.11h216.87V14.6"/>
        <path fill="#FAFAF9" d="M146.199 7.355c0 .9-.785 1.627-1.753 1.627-.968 0-1.753-.728-1.753-1.627 0-.898.785-1.627 1.753-1.627.968 0 1.753.729 1.753 1.627M151.855 7.355c0 .9-.784 1.627-1.752 1.627s-1.753-.728-1.753-1.627c0-.898.785-1.627 1.753-1.627.968 0 1.752.729 1.752 1.627M157.513 7.355c0 .9-.785 1.627-1.753 1.627-.968 0-1.753-.728-1.753-1.627 0-.898.785-1.627 1.753-1.627.968 0 1.753.729 1.753 1.627"/>
        <path fill="#8A9AF2" d="M321.312 128.31c.075-2.202-.167-4.525.881-6.457 1.05-1.932 3.497-3.252 5.472-2.324 1.637.77 2.35 2.672 3.267 4.246a12.897 12.897 0 0 0 5.172 4.933c1.405.727 3.142 1.172 4.528.408 1.902-1.047 2.127-3.672 2.113-5.862l-.077-12.247c-.013-2.19-.02-4.427.662-6.506.682-2.079 2.19-4.01 4.276-4.594 2.087-.583 4.667.618 5.108 2.762.183.892.001 1.819.062 2.728.06.909.485 1.915 1.35 2.168.875.257 1.753-.364 2.408-1.005 2.264-2.212 3.8-5.061 5.236-7.894s2.83-5.734 4.883-8.146c2.054-2.412 4.896-4.324 8.037-4.502 3.141-.177 6.488 1.759 7.281 4.838.796 3.089-1.008 6.221-2.97 8.721a48.943 48.943 0 0 1-10.194 9.704c-.692.49-1.441 1.02-1.705 1.831-.477 1.46.908 2.91 2.353 3.39 1.634.544 3.408.375 5.119.576 1.71.2 3.562.954 4.209 2.568.899 2.239-.976 4.586-2.821 6.123a41.96 41.96 0 0 1-12.412 7.155c-1.614.59-3.312 1.107-4.613 2.239-1.301 1.132-2.086 3.101-1.3 4.643.786 1.545 2.804 2.038 4.494 1.725 1.69-.312 3.203-1.228 4.814-1.835 3.013-1.136 6.905-.93 8.836 1.672 1.269 1.71 1.381 4.092.739 6.13-.641 2.039-1.943 3.794-3.325 5.414-4.831 5.66-11.015 10.216-18.008 12.638-6.991 2.42-13.47 3.076-20.419.538-11.333-7.908-13.904-22.585-13.456-35.778z"/>
        <path fill="#000" d="M334.595 173.87c.479-5.227 1.626-11.4 3.584-18.053 1.944-6.658 4.68-13.78 7.8-21.13l2.33-5.435c.77-1.781 1.532-3.548 2.384-5.23 1.691-3.373 3.574-6.487 5.454-9.387 1.879-2.902 3.768-5.587 5.553-8.085 1.79-2.496 3.504-4.79 5.154-6.814a77.813 77.813 0 0 1 8.494-8.965 72.021 72.021 0 0 1 3.215-2.743c.154-.121.235-.181.24-.176.004.005-.068.076-.213.209l-.652.58c-.574.506-1.421 1.254-2.486 2.247a82.368 82.368 0 0 0-8.377 9.03c-1.632 2.03-3.328 4.329-5.103 6.83-1.772 2.504-3.648 5.193-5.515 8.092-1.866 2.899-3.735 6.006-5.411 9.362-.846 1.674-1.6 3.426-2.369 5.212l-2.327 5.433c-3.117 7.344-5.857 14.445-7.816 21.078-1.97 6.626-3.143 12.768-3.655 17.973"/>
        <path fill="#000" d="M350.808 124.005c-.027.005-.101-.328-.214-.934a60.066 60.066 0 0 1-.406-2.577c-.311-2.181-.636-5.207-.982-8.545-.346-3.34-.714-6.353-1.057-8.523a119.08 119.08 0 0 0-.42-2.568c-.105-.606-.15-.944-.123-.95.027-.006.124.32.275.917.156.596.344 1.47.549 2.551.416 2.166.83 5.186 1.176 8.53l.864 8.552c.11 1.028.204 1.895.28 2.59.064.612.087.954.058.957"/>
        <path fill="#000" d="M379.007 118.743c.001.027-.4.074-1.124.133-.724.066-1.772.153-3.062.302-2.583.279-6.137.788-10.033 1.52-3.897.742-7.395 1.562-9.907 2.228-1.26.324-2.271.614-2.972.81-.7.199-1.092.296-1.1.27-.009-.028.366-.176 1.054-.422.687-.243 1.69-.575 2.943-.936 2.5-.74 6-1.606 9.908-2.35 3.908-.735 7.482-1.202 10.08-1.407a46.93 46.93 0 0 1 3.08-.172c.73-.012 1.132-.005 1.133.024M338.525 155.3c-.013.005-.078-.112-.193-.344l-.482-1.019a112.98 112.98 0 0 1-1.661-3.799c-1.36-3.225-3.1-7.741-4.95-12.75-1.853-5.01-3.548-9.535-4.839-12.785l-1.54-3.845-.413-1.048c-.09-.242-.133-.372-.119-.378.012-.005.079.113.193.344.13.276.29.61.482 1.018.415.887.982 2.185 1.66 3.799 1.361 3.226 3.1 7.741 4.953 12.752 1.851 5.01 3.545 9.533 4.837 12.784l1.54 3.845.413 1.048c.09.242.132.371.12.378"/>
        <path fill="#17282F" d="M375.997 143.239c.004.013-.124.065-.372.153l-1.088.364-4.013 1.298c-3.388 1.098-8.05 2.667-13.199 4.408-5.15 1.742-9.831 3.27-13.243 4.297-1.706.514-3.09.916-4.053 1.175l-1.11.29c-.254.063-.39.088-.394.075-.004-.013.125-.065.372-.154l1.089-.363 4.011-1.298c3.388-1.098 8.051-2.667 13.201-4.41 5.15-1.74 9.83-3.267 13.241-4.295 1.706-.515 3.09-.916 4.053-1.175l1.11-.291c.255-.062.39-.088.395-.074"/>
        <path fill="#9C9C9C" d="M86.249 68.708c0 .129-.941.233-2.103.233-1.162 0-2.103-.104-2.103-.233 0-.127.941-.232 2.103-.232 1.162 0 2.103.105 2.103.232M88.482 62.995c.129 0 .233.954.233 2.131 0 1.177-.104 2.131-.233 2.131-.128 0-.232-.954-.232-2.13 0-1.178.104-2.132.232-2.132M90.861 68.572c0-.128.942-.232 2.103-.232 1.162 0 2.103.104 2.103.232s-.941.232-2.103.232c-1.161 0-2.103-.104-2.103-.232M88.628 74.285c-.129 0-.233-.954-.233-2.131 0-1.177.104-2.131.233-2.131.128 0 .232.954.232 2.13 0 1.178-.104 2.132-.232 2.132M92.027 71.835c-.099.082-.514-.252-.926-.746-.414-.494-.668-.96-.57-1.042.1-.083.514.25.927.744.413.494.667.961.569 1.044M91.83 65.355c.091.091-.182.514-.61.946-.43.432-.85.709-.942.618-.091-.09.182-.513.611-.945.429-.432.85-.709.941-.619M87.01 67.006c-.082.098-.48-.096-.888-.436-.408-.339-.672-.693-.59-.792.082-.099.48.096.887.435.408.34.673.694.59.793M86.82 69.862c.095.086-.143.502-.532.928-.39.427-.782.702-.877.616-.095-.087.144-.502.533-.928.389-.427.782-.703.876-.616M2.388 131.76c0 .073-.535.132-1.194.132-.66 0-1.194-.06-1.194-.132 0-.073.535-.132 1.194-.132.66 0 1.194.06 1.194.132M3.656 128.517c.073 0 .132.541.132 1.21 0 .667-.06 1.21-.132 1.21-.073 0-.132-.543-.132-1.21 0-.669.059-1.21.132-1.21M5.006 131.682c0-.073.535-.131 1.194-.131.66 0 1.194.058 1.194.131 0 .073-.534.132-1.194.132-.66 0-1.194-.06-1.194-.132M3.738 134.926c-.073 0-.132-.542-.132-1.21 0-.668.06-1.21.132-1.21.073 0 .132.542.132 1.21 0 .668-.059 1.21-.132 1.21M5.668 133.535c-.056.046-.291-.143-.526-.424-.234-.28-.379-.545-.323-.592.056-.047.291.143.526.424.234.28.379.545.323.592M5.557 129.856c.051.052-.104.292-.347.538-.244.245-.483.402-.535.35-.052-.051.103-.291.347-.536.243-.246.483-.403.535-.352M2.82 130.793c-.047.057-.273-.054-.504-.247-.232-.193-.382-.394-.335-.45.046-.056.272.055.503.248.233.192.382.394.336.45M2.712 132.415c.054.05-.081.285-.302.527-.221.241-.444.398-.498.35-.053-.05.082-.286.303-.528.22-.242.444-.398.497-.349M91.82 121.162l.137.328c.24.574.698 1.029 1.275 1.262l.358.145-.343.14a2.327 2.327 0 0 0-1.286 1.287l-.097.239-.144-.301a2.326 2.326 0 0 0-1.303-1.179l-.311-.114.407-.197a2.324 2.324 0 0 0 1.136-1.2l.17-.41M28.024 78.97l.137.328c.24.574.699 1.028 1.276 1.263l.357.144-.343.14a2.33 2.33 0 0 0-1.286 1.286l-.096.24-.145-.301a2.328 2.328 0 0 0-1.302-1.179l-.312-.114.407-.197a2.328 2.328 0 0 0 1.136-1.2l.17-.41"/>
        <path fill="#888" d="M328.086 185.593H107.004c-4.77 0-8.636-3.862-8.636-8.625V36.806c0-4.763 3.866-8.625 8.636-8.625h221.082c4.769 0 8.636 3.862 8.636 8.625v140.162c0 4.763-3.867 8.625-8.636 8.625"/>
        <path fill="#888" d="M336.087 187.723H98.95c-5.827 0-10.55-4.717-10.55-10.537v-3.235h258.238v3.235c0 5.82-4.725 10.537-10.552 10.537"/>
        <path fill="#595959" d="M104.766 167.367h224.891V34.435H104.766z"/>
        <path fill="#4B4B4B" d="M194.048 173.95l3.205 5.09h45.09l2.976-5.09h-51.27"/>
        <path fill="#E7E8E5" d="M323.547 166.941H111.338a1.94 1.94 0 0 1-1.94-1.937V40.873a1.94 1.94 0 0 1 1.94-1.938h212.21a1.94 1.94 0 0 1 1.94 1.938v124.131a1.94 1.94 0 0 1-1.94 1.937"/>
        <path fill="#FAFAF9" d="M109.398 166.941h216.09V48.314h-216.09z"/>
        <path fill="#000" d="M127.12 43.878c0 .952-.772 1.724-1.725 1.724a1.724 1.724 0 1 1 0-3.447c.953 0 1.725.772 1.725 1.723M116.661 43.878c0 .952-.772 1.724-1.726 1.724a1.725 1.725 0 0 1-1.726-1.724c0-.951.773-1.723 1.726-1.723.954 0 1.726.772 1.726 1.723M121.681 43.878a1.724 1.724 0 1 1-1.726-1.723c.954 0 1.726.772 1.726 1.723"/>
        <path fill="#595959" d="M334.674 173.95c0 .086-52.904.154-118.148.154-65.267 0-118.158-.068-118.158-.154 0-.085 52.891-.154 118.158-.154 65.244 0 118.148.069 118.148.154"/>
        <path fill="#DADBD8" d="M173.684 111.367h-49.31v-3.295h49.31v3.295M237.376 65.63h-49.311v-3.294h49.311v3.294M310.716 74.604c0 .086-27.459.154-61.323.154-33.876 0-61.328-.068-61.328-.154 0-.085 27.452-.154 61.328-.154 33.864 0 61.323.07 61.323.154M310.716 81.798c0 .085-27.459.154-61.323.154-33.876 0-61.328-.07-61.328-.154 0-.085 27.452-.154 61.328-.154 33.864 0 61.323.069 61.323.154M310.716 88.991c0 .085-27.459.154-61.323.154-33.876 0-61.328-.07-61.328-.154 0-.085 27.452-.154 61.328-.154 33.864 0 61.323.069 61.323.154M310.716 96.184c0 .086-27.459.155-61.323.155-33.876 0-61.328-.07-61.328-.155 0-.084 27.452-.153 61.328-.153 33.864 0 61.323.069 61.323.153M310.716 103.378c0 .085-27.459.154-61.323.154-33.876 0-61.328-.07-61.328-.154 0-.085 27.452-.154 61.328-.154 33.864 0 61.323.069 61.323.154M235.942 110.571c0 .086-10.718.154-23.938.154-13.223 0-23.94-.068-23.94-.154 0-.085 10.717-.154 23.94-.154 13.22 0 23.938.07 23.938.154M309.82 124.532c0 .085-18.049.154-40.307.154-22.266 0-40.31-.069-40.31-.154 0-.085 18.044-.155 40.31-.155 22.258 0 40.306.07 40.306.155M309.82 132.168c0 .085-18.049.154-40.307.154-22.266 0-40.31-.07-40.31-.154 0-.085 18.044-.154 40.31-.154 22.258 0 40.306.069 40.306.154M309.82 139.804c0 .085-18.049.154-40.307.154-22.266 0-40.31-.07-40.31-.154 0-.085 18.044-.154 40.31-.154 22.258 0 40.306.069 40.306.154M309.82 147.44c0 .085-18.049.154-40.307.154-22.266 0-40.31-.07-40.31-.154 0-.086 18.044-.154 40.31-.154 22.258 0 40.306.068 40.306.154M173.809 123.801c0 .086-10.759.154-24.027.154-13.273 0-24.03-.068-24.03-.154 0-.085 10.757-.154 24.03-.154 13.268 0 24.027.07 24.027.154M173.809 129.799c0 .084-10.759.153-24.027.153-13.273 0-24.03-.069-24.03-.153 0-.086 10.757-.155 24.03-.155 13.268 0 24.027.069 24.027.155M173.809 135.795c0 .085-10.759.154-24.027.154-13.273 0-24.03-.07-24.03-.154 0-.085 10.757-.154 24.03-.154 13.268 0 24.027.069 24.027.154M173.809 141.792c0 .084-10.759.154-24.027.154-13.273 0-24.03-.07-24.03-.154 0-.086 10.757-.154 24.03-.154 13.268 0 24.027.068 24.027.154M173.809 147.788c0 .086-10.759.154-24.027.154-13.273 0-24.03-.068-24.03-.154 0-.085 10.757-.154 24.03-.154 13.268 0 24.027.069 24.027.154"/>
        <path fill="#F3F2F1" d="M188.035 154.693h34.986v-33.804h-34.986z"/>
        <path fill="#E7E8E5" d="M190.748 151.799l9.678-17.395 7.916 11.118 4.81-5.904 7.157 12.181h-29.561M211.714 131.021a2.516 2.516 0 0 1-2.518 2.514 2.516 2.516 0 0 1-2.518-2.514 2.516 2.516 0 0 1 2.518-2.514 2.516 2.516 0 0 1 2.518 2.514"/>
        <path fill="#E7E8E5" d="M220.309 151.893a.984.984 0 0 1-.009-.138c-.001-.102-.004-.23-.008-.395l-.016-1.52c-.01-1.341-.021-3.28-.037-5.742l-.074-20.41.144.142-29.559.025c-.017.014.04-.042.097-.1.076-.074.151-.148.067-.063v7.59c-.003 2.483-.004 4.916-.005 7.283l-.017 13.328-.144-.145 21.373.074 6.028.037 1.6.018.413.007c.095.003.144.006.147.01a.789.789 0 0 1-.13.007l-.399.008-1.57.017c-1.401.01-3.427.022-5.996.038l-21.466.074h-.146v-.145l-.016-13.328c0-2.367-.003-4.8-.004-7.283l-.001-3.764v-3.826c-.084.083-.01.007.065-.069.059-.059.118-.118.104-.102 10.848.01 20.997.017 29.559.024h.143v.143l-.073 20.501-.038 5.709-.016 1.493-.009.38a.753.753 0 0 1-.007.122"/>
        <path fill="#F3F2F1" d="M172.755 102.56h-47.452V56.711h47.452v45.847"/>
        <path fill="#DADBD8" d="M128.982 98.636l13.127-23.593 10.737 15.08 6.523-8.008 9.706 16.52h-40.093M157.419 70.454a3.412 3.412 0 0 1-3.415 3.41 3.412 3.412 0 0 1-3.415-3.41 3.413 3.413 0 0 1 3.415-3.41 3.413 3.413 0 0 1 3.415 3.41"/>
        <path fill="#DADBD8" d="M169.075 98.764a1.402 1.402 0 0 1-.01-.189l-.011-.534-.023-2.063-.05-7.787-.1-27.682.194.193-40.09.032c-.053.048.425-.424.223-.219V65.703l-.002 5.104c-.002 3.37-.003 6.668-.006 9.88l-.021 18.076-.197-.197 28.989.1 8.176.052 2.169.023.562.011c.127.004.194.007.197.012a.98.98 0 0 1-.175.01l-.54.011-2.131.024-8.132.051-29.115.1h-.197v-.197l-.022-18.076a381054.728 381054.728 0 0 1-.007-17.573V60.515c-.202.199.274-.283.23-.232l40.09.032h.194v.194l-.1 27.806-.05 7.742-.023 2.026-.01.514a.794.794 0 0 1-.012.167"/>
        <path fill="#9C9C9C" d="M241.265 90.883l-4.743-.067.181-12.895c0-9.477-7.747-17.214-17.27-17.214s-17.27 7.737-17.27 17.247l-.18 12.929-4.743-.067.18-12.895c0-12.088 9.875-21.95 22.014-21.95 12.137 0 22.012 9.862 22.012 21.983l-.18 12.929"/>
        <path fill="#5C71EC" d="M241.704 148.725h-44.041c-5.987 0-10.84-4.847-10.84-10.826V95.425c0-5.98 4.853-10.827 10.84-10.827h44.041c5.987 0 10.841 4.847 10.841 10.827v42.474c0 5.98-4.854 10.826-10.84 10.826"/>
        <path fill="#8A9AF2" d="M225.304 126.587h-10.747l1.678-7.75a6.53 6.53 0 0 1-3.103-5.557 6.547 6.547 0 0 1 6.552-6.543 6.548 6.548 0 0 1 6.552 6.543 6.535 6.535 0 0 1-2.9 5.433c.76 3.004 1.968 7.874 1.968 7.874"/>
        <path fill="#7385EF" d="M191.03 129.282c-.427-.009-.616-7.49-.422-16.71.193-9.215.695-16.678 1.12-16.678h.001c.427.01.616 7.49.422 16.711-.193 9.212-.695 16.677-1.12 16.677M191.073 136.7c-.424 0-.777-.726-.788-1.626-.013-.905.324-1.642.75-1.647h.005c.424 0 .777.726.788 1.627.012.903-.324 1.64-.75 1.646h-.005"/>
        <path fill="#8A9AF2" d="M211.713 127.638a.062.062 0 0 1-.018-.003c-.329-.108.41-3.3 1.723-7.616a92.718 92.718 0 0 1-1.671-1.706 7.21 7.21 0 0 1-1.77-4.355 6.69 6.69 0 0 1 .874-3.697c.54-.94 1.184-1.545 1.667-1.88.377-.26.655-.372.79-.372.04 0 .066.01.08.029.153.188-.851.98-1.556 2.7-.343.855-.576 1.933-.438 3.107a6.35 6.35 0 0 0 1.498 3.433l1.908 2.013.317.335-.144.415c-1.537 4.409-2.891 7.597-3.26 7.597"/>
        <path fill="#7385EF" d="M192.991 92.133a.036.036 0 0 1-.022-.007c-.075-.038.147-.718 1.055-1.579.889-.858 2.54-1.783 4.726-2.13 1.085-.188 2.28-.255 3.537-.278l3.985-.042a708.157 708.157 0 0 1 9.124.008c6.471.05 12.33.18 16.57.352 4.24.171 6.861.384 6.86.597-.001.213-2.627.385-6.869.493-3.05.077-6.934.12-11.282.12-1.7 0-3.471-.006-5.29-.02-3.237-.025-6.32-.07-9.123-.13-1.861-.021-3.602-.116-5.154-.116-.788 0-1.527.024-2.208.095-2.037.192-3.567.87-4.499 1.518-.882.604-1.279 1.119-1.41 1.119"/>
        <path fill="#8092FF" d="M17.025 226.084l-.418 1.572s-5.711 9.278-5.035 10.144c.677.867 1.973 1.733 3.96 1.236 1.987-.497 10.373-8.451 10.373-8.451l.479-1.272-9.36-3.229"/>
        <path fill="#A7A9A8" d="M14.29 239.2c-.378 0-.777-.07-1.212-.264.386.152.829.245 1.33.245.111 0 .225-.005.343-.014-.15.02-.304.033-.461.033m1.606-.303c.936-.442 2.592-1.735 4.29-3.172l-.006.004s-3.418 2.926-4.284 3.168m-4.361-1.172c-.062-.095-.093-.166-.093-.201 0-.057.103-.34.23-.666-.132.4-.187.702-.137.867m12.048-4.992c1.355-1.231 2.322-2.148 2.322-2.148l.21-.559c-.09.245-.21.662-.21.662l-2.322 2.045"/>
        <path fill="#B9C3F8" d="M14.407 239.181c-.5 0-.943-.093-1.33-.245l-.005-.002c-.832-.372-1.341-.908-1.537-1.209-.05-.165.005-.466.138-.867.203-.522.469-1.158.469-1.158s.409-.181.99-.181c.849 0 2.064.385 2.909 2.278 0 0 1.072-.398 4.036-2.877 2.964-2.48 5.828-4.904 5.828-4.904s.136-.107.2-.107c.031 0 .045.027.014.107l-.004.01-.21.559s-.967.917-2.322 2.148l-3.397 2.992c-1.698 1.437-3.354 2.73-4.29 3.172l-.003.002c-.373.102-.748.214-1.142.268-.118.01-.232.014-.344.014"/>
        <path fill="#000" d="M16.373 238.841c-.03.007-.092-.315-.303-.79a4.473 4.473 0 0 0-1.198-1.598 4.477 4.477 0 0 0-1.787-.895c-.504-.124-.832-.127-.831-.159-.002-.02.33-.063.86.031.523.09 1.244.352 1.877.881a4.109 4.109 0 0 1 1.2 1.691c.186.503.201.837.182.84"/>
        <path fill="#000" d="M26.381 229.612a.716.716 0 0 1-.13.134c-.12.106-.25.224-.4.358-.4.346-.899.775-1.49 1.287l-4.962 4.193c-.973.809-1.884 1.618-2.856 2.169-.963.555-1.996.79-2.84.673-.85-.115-1.444-.54-1.753-.888-.314-.355-.38-.617-.38-.617.018-.01.112.238.433.568.315.323.9.714 1.716.807.812.097 1.804-.142 2.74-.691.942-.544 1.848-1.353 2.823-2.164l4.995-4.15 1.527-1.242.422-.331c.098-.074.151-.11.155-.106M17.337 233.515c-.034.04-.485-.284-1.057-.656-.571-.374-1.05-.656-1.027-.703.022-.045.546.168 1.128.548.582.379.987.774.956.81M18.562 232.18c-.026.046-.59-.228-1.297-.537-.706-.31-1.289-.542-1.272-.592.015-.047.631.107 1.347.423.716.314 1.247.662 1.222.706M19.698 231.036c-.037.041-.554-.41-1.304-.776-.747-.372-1.42-.505-1.41-.56.002-.046.714.008 1.492.394.78.381 1.258.912 1.222.942M20.362 229.674c-.034.042-.515-.307-1.177-.6-.66-.297-1.242-.422-1.233-.476.005-.047.621-.002 1.308.307.689.306 1.134.734 1.102.769M20.072 228.385c-.012.019-.304-.13-.706-.47a5.224 5.224 0 0 1-.97-1.104c-.051-.078-.11-.161-.147-.27a.364.364 0 0 1 .06-.367c.207-.193.462-.146.648-.074.188.075.345.193.471.325.253.264.376.577.434.836.059.26.062.477.058.623-.005.148-.02.227-.032.227-.034.002-.019-.328-.153-.817a1.73 1.73 0 0 0-.429-.75 1.235 1.235 0 0 0-.416-.276c-.146-.064-.354-.065-.443.03-.091.091-.003.263.101.414a6.018 6.018 0 0 0 .906 1.105c.37.359.635.544.618.568"/>
        <path fill="#000" d="M19.948 228.223c-.01-.004.004-.087.064-.226.058-.138.163-.334.339-.544a2.478 2.478 0 0 1 1.285-.795.737.737 0 0 1 .33-.001.36.36 0 0 1 .271.266c.041.276-.127.459-.246.605a2.268 2.268 0 0 1-1.32.73c-.27.044-.494.029-.643.003-.15-.025-.227-.059-.224-.07.004-.034.333.052.841-.062.251-.057.543-.168.819-.364a2.14 2.14 0 0 0 .39-.355c.118-.135.23-.307.203-.446-.025-.137-.216-.165-.385-.129-.174.041-.345.103-.497.176a2.568 2.568 0 0 0-.727.53c-.356.379-.47.697-.5.682M24.758 228.869c-.006.03-.322-.14-.805.042-.47.17-1.056.635-1.439 1.309a3.187 3.187 0 0 0-.38 1.916c.059.51.195.81.165.821-.016.01-.198-.274-.295-.802a3.068 3.068 0 0 1 .348-2.026c.409-.716 1.038-1.189 1.56-1.342.541-.164.871.07.846.082M21.374 232.608c.032.04-.4.462-.966.942-.567.482-1.054.84-1.087.801-.033-.039.4-.46.966-.942.567-.48 1.053-.84 1.087-.8"/>
        <path fill="#000" d="M22.507 232.005c.051-.003.12.117.152.27.032.153.019.29-.03.308-.047.018-.116-.103-.15-.27-.036-.166-.023-.304.028-.308M22.652 230.837c.048.018.058.157.022.31-.036.152-.107.271-.158.266-.05-.005-.06-.143-.022-.309.039-.165.11-.285.158-.267M23.279 229.842c.04.042-.034.151-.122.282-.093.126-.205.206-.249.18-.044-.027.003-.16.105-.296.096-.142.236-.199.266-.166M24.282 229.227c.016.049-.087.143-.229.21-.142.067-.28.086-.307.042-.028-.042.074-.136.228-.21.154-.072.292-.09.308-.042M25.451 229.09c-.006.05-.139.093-.295.094-.157.002-.29-.04-.297-.09-.007-.05.125-.094.296-.094.17-.002.303.04.296.09"/>
        <path fill="#B05851" d="M95.783 79.14c-.364.444-.89 5.146-.89 5.146s-8.686 14.78-9.896 15.006c-1.21.227-6.475-10.268-6.475-10.268l-5.414 4.974s2.823 13.228 11.645 15.496c4.166 1.07 11.427-12.118 16.28-23.074.078-.174 2.588-6.142 2.588-6.142l-7.838-1.137"/>
        <path fill="#B05851" d="M103.527 80.785c.01.012-.002.065-.03.15-.226.707-1.57 3.637-1.986 3.604-.467-.036-1.374-.71-1.272-1.13.102-.418 1.803-3.633 1.803-3.633s.3-.492 1.237-.231c.578.16.248 1.24.248 1.24"/>
        <path fill="#B05851" d="M102.224 78.945c.008.012-.002.065-.03.15-.226.708-1.57 3.637-1.986 3.605-.467-.037-1.374-.71-1.272-1.13.102-.419 1.802-3.634 1.802-3.634s.302-.491 1.238-.23c.578.16.248 1.24.248 1.24"/>
        <path fill="#B05851" d="M100.724 77.654c.01.011-.002.065-.029.15-.227.707-1.571 3.636-1.987 3.605-.466-.037-1.373-.712-1.271-1.13.102-.42 1.802-3.634 1.802-3.634s.301-.492 1.238-.232c.578.161.247 1.241.247 1.241"/>
        <path fill="#B05851" d="M99.22 76.398c.009.012-.002.065-.029.15-.226.707-1.571 3.637-1.987 3.605-.466-.037-1.373-.711-1.271-1.13.102-.42 1.802-3.634 1.802-3.634s.302-.492 1.238-.231c.578.16.248 1.24.248 1.24"/>
        <path fill="#813630" d="M100.606 82.541c.053.019.399-.597.772-1.374.372-.777.633-1.422.58-1.44-.053-.018-.398.597-.771 1.374-.373.778-.634 1.422-.58 1.44M98.86 81.785c.052.024.528-.857 1.067-1.968.537-1.111.932-2.031.882-2.056-.05-.025-.527.856-1.065 1.968-.538 1.111-.934 2.031-.883 2.056"/>
        <path fill="#68302D" d="M98.884 77.32c.076-.173.142-.33.195-.465.01-.013.018-.019.024-.019l.002.001c.008.004.005.031-.01.08l-.21.403"/>
        <path fill="#8C3D37" d="M97.16 80.861h-.003c-.033-.016.123-.412.385-.993.063-.084.13-.184.2-.296-.163.342-.281.605-.305.706a.326.326 0 0 0 .001.15c-.15.271-.253.433-.279.433"/>
        <path fill="#8C3D37" d="M97.438 80.427a.326.326 0 0 1-.001-.149c.024-.101.142-.364.306-.706.378-.601.836-1.548 1.141-2.252l.212-.403c-.073.25-.423 1.046-.874 1.976a34.207 34.207 0 0 1-.784 1.534"/>
        <path fill="#8C3D37" d="M97.542 79.868c.14-.312.31-.676.498-1.063.485-1.004.922-1.82 1.039-1.95-.053.134-.12.292-.195.465-.305.704-.763 1.65-1.141 2.252-.07.112-.138.212-.201.296"/>
        <path fill="#B05851" d="M95.799 84.974l-.593-2.598a4.51 4.51 0 0 1 .532-3.326l.459-.763 5.674 2.865s-1.416 1.843-2.843.756l1.042 2.241-4.271.825"/>
        <path fill="#813630" d="M99.561 84.348c-.035-.005.025-.3-.054-.805a2.886 2.886 0 0 0-1.02-1.777l-.543-.436.664.215 1.472.475-.032-.006c.613.07 1.347-.112 1.702-.706l.068-.132.081.192c-1.64-.741-3.11-1.434-4.141-1.996-1.033-.558-1.638-.955-1.618-.989.021-.04.662.291 1.716.797 1.052.51 2.529 1.168 4.17 1.908l.133.06-.051.132a1.215 1.215 0 0 1-.093.187 1.741 1.741 0 0 1-.918.731c-.363.132-.738.139-1.078.106l-.017-.001-.015-.006-1.46-.508.122-.222a2.904 2.904 0 0 1 1.005 1.958c.039.538-.076.83-.093.823"/>
        <path fill="#813630" d="M101.056 81.842c.058.006-.05.316.02.736.045.198.198.435.431.452.245.023.508-.154.692-.435.377-.598.76-1.143.99-1.54.234-.401.355-.668.399-.653.036.012-.012.308-.205.752-.195.45-.538.996-.931 1.618-.205.315-.58.6-.98.54-.42-.071-.586-.451-.61-.697a1.3 1.3 0 0 1 .084-.587c.049-.127.089-.191.11-.186"/>
        <path fill="#A3A3A3" d="M76.43 119.691s-4.836-11.885-4.813-12.107l1.251-4.42.508-2.56 1.634 1.897 7.986-8.334c.147.2-3.615-5.256-7.428-10.596-2.658-3.722-5.533-4.54-7.213-4.657-1.27-.372-2.14-.438-2.14-.438l-13.743-.117s-4.268-.223-8.202 3.004c-.634.52-5.9 7.51-9.489 14.424l11.053 7.968 1.822-3.2.008.063c.153 1.085.807 4.25 1.023 5.325.67 3.335.881 7.35-.745 10.103 0 0-1.831 4.409-3.167 9.443h33.908s-1.094-2.939-2.253-5.798"/>
        <path fill="#B05851" d="M49.141 114.724l-1.164-.935-.01-.106-.047.06-7.675-6.159 3.292-5.417-7.945-5.795c.036.384-7.373 11.347-6.37 13.5 1.417 3.045 11.04 9.132 14.98 11.53-.42.06-2.294.334-3.182.626-1.003.33 2.268 1.195 3.059 1.355.311.063.944-.428 1.62-1.08.117.07.182.107.182.107l.212-.5c.92-.943 1.82-2.045 2.019-2.354.164-.256.156-1.413.096-2.632l.933-2.2"/>
        <path fill="#5C71EC" d="M91.644 229.304l-.043-1.12-11.368.327.099 3.695.703.024c3.127.076 15.909.188 17.978-.456 2.308-.718-7.37-2.47-7.37-2.47"/>
        <path fill="#8A9AF2" d="M80.339 232.057l-.089-2.933v-.004c.13-.014.26-.02.39-.02.818 0 1.611.259 2.28.713a3.644 3.644 0 0 1 1.485 2.084l-4.062.074-.004.086"/>
        <path fill="#5C71EC" d="M86.029 232.327c-2.16 0-4.182-.037-5.697-.12l.703.023c1.121.027 3.484.06 6.148.06 1.308 0 2.688-.009 4.03-.028-1.695.042-3.482.065-5.184.065m12.882-.524l.102-.029c.32-.1.41-.22.326-.352.07.081.087.16.032.232-.04.052-.2.102-.46.15m-1.75-1.282"/>
        <path fill="#8A9AF2" d="M87.183 232.29c-2.664 0-5.027-.033-6.148-.06l-.703-.024.007-.15 4.094-.042a2.822 2.822 0 0 0-.028-.117l11.012-.202s.302-1.336.96-1.38l.004.002c.268.067.53.136.78.205.78.22 1.898.58 2.178.9.084.133-.005.252-.326.352l-.102.03c-1.14.207-4.223.372-7.698.458-1.342.02-2.722.027-4.03.027"/>
        <path fill="#8A9AF2" d="M80.339 232.057l.004-.086 4.062-.074c.01.039.02.078.028.117l-4.094.043"/>
        <path fill="#000" d="M80.165 231.97c0 .004.067.009.195.014l.56.017 2.059.028c1.739.012 4.142 0 6.795-.068 2.653-.068 5.053-.178 6.789-.28l2.054-.132.558-.045c.127-.012.194-.02.194-.025 0-.004-.068-.005-.196-.001l-.56.02-2.056.094c-1.736.078-4.135.174-6.787.243-2.651.066-5.053.093-6.791.104l-2.058.012-.56.008a1.042 1.042 0 0 0-.196.01"/>
        <path fill="#000" d="M95.42 231.859c.041.003.06-.454.356-.922.288-.474.703-.718.679-.75-.009-.031-.488.18-.798.687-.316.502-.271.993-.237.985M92.033 230.373c.032.018.186-.166.344-.412.158-.246.26-.46.227-.478-.033-.018-.187.167-.345.413-.158.245-.259.46-.226.477M91.103 229.948c.026.025.201-.09.39-.258.191-.168.324-.325.298-.35-.026-.025-.202.09-.391.257-.19.168-.324.324-.297.35M90.493 228.971c0 .035.266.06.593.054.326-.005.59-.038.59-.073 0-.035-.266-.059-.592-.054-.327.004-.592.038-.591.073"/>
        <path fill="#17282F" d="M90.273 228.277c-.012.032.28.145.664.16.385.019.687-.069.678-.102-.007-.036-.306-.007-.671-.025-.366-.014-.66-.069-.67-.033"/>
        <path fill="#000" d="M92.388 229.446c0 .015.28.04.727-.023.224-.03.488-.087.77-.178.14-.051.287-.09.438-.182.07-.046.149-.111.174-.214.026-.102-.035-.215-.119-.267-.705-.317-1.39.065-1.638.405a1.164 1.164 0 0 0-.224.457c-.025.116-.02.182-.013.183.026.008.041-.267.314-.585.135-.155.34-.31.61-.39.254-.078.62-.107.868.031.118.076.077.204-.05.278-.117.075-.27.123-.403.173-.273.095-.528.16-.743.2-.434.084-.711.091-.71.112"/>
        <path fill="#000" d="M92.578 229.475c.01.007.113-.168.07-.471a1.061 1.061 0 0 0-.214-.488c-.133-.146-.305-.349-.616-.329-.168.025-.245.205-.215.319a.704.704 0 0 0 .133.298c.114.166.24.299.356.4.234.2.417.275.424.262.013-.017-.148-.118-.355-.326a2.39 2.39 0 0 1-.317-.397c-.104-.14-.18-.395.001-.43.182-.021.373.142.488.273.119.144.187.3.22.434.063.274 0 .45.025.455M80.309 229.09c.003.023.323-.039.836.004a3.83 3.83 0 0 1 1.845.65 3.43 3.43 0 0 1 1.186 1.466c.186.446.212.748.238.745.008-.002.01-.077-.007-.213a2.553 2.553 0 0 0-.14-.563 3.262 3.262 0 0 0-1.194-1.537 3.686 3.686 0 0 0-1.921-.638 3.261 3.261 0 0 0-.623.031c-.144.023-.222.046-.22.054M85.825 230.952c-.003.034.737.126 1.657.11s1.656-.134 1.652-.167c-.006-.037-.743.024-1.655.039-.91.017-1.65-.018-1.654.018"/>
        <path fill="#000" d="M83.607 231.007c-.026.027.066.144.146.3.082.155.125.294.165.29.036-.001.053-.167-.042-.346-.094-.18-.245-.27-.269-.244M82.742 230.064c-.026.025.05.133.17.24.122.107.24.173.266.148.026-.025-.05-.133-.17-.24-.12-.108-.24-.174-.266-.148M81.532 229.654c.01.035.16.03.328.08.17.047.29.13.32.105.029-.021-.071-.168-.28-.227-.208-.06-.38.01-.368.042M80.675 229.468c-.013.033.054.085.149.117s.182.03.195-.003c.012-.034-.055-.086-.15-.117-.094-.032-.181-.03-.194.003"/>
        <path fill="#8D8D8D" d="M58.344 50.472c-1.3-1.148-3.373-1.308-4.834-.374-.729.466-1.305 1.164-2.091 1.525-1.308.6-2.849.132-4.27.36-2.098.337-3.77 2.402-3.659 4.522.06 1.138.548 2.362-.008 3.357-.489.875-1.583 1.18-2.361 1.813-1.326 1.075-1.556 3.262-.469 4.579.416.502.981.877 1.334 1.425.56.868.48 1.98.62 3.002.142 1.022.736 2.176 1.767 2.244.83.054 1.577-.643 2.407-.575 1.165.096 1.64 1.489 2.314 2.442.851 1.206 2.4 1.879 3.863 1.68 1.059-.144 2.107-.703 3.142-.44 1.303.33 2.085 1.854 3.415 2.044.99.142 1.906-.515 2.64-1.192.735-.678 1.482-1.45 2.466-1.627 1.185-.213 2.325.502 3.517.666 1.54.211 3.169-.605 3.92-1.964.655-1.186.653-2.641 1.265-3.85.41-.81 1.072-1.46 1.582-2.212.508-.751.869-1.703.57-2.56-.216-.614-.738-1.08-.991-1.68-.38-.899-.101-1.92.003-2.89.103-.97-.1-2.148-.991-2.548-.366-.166-.8-.168-1.14-.38-.694-.43-.657-1.42-.72-2.23-.094-1.186-.646-2.402-1.683-2.986-1.036-.585-2.57-.3-3.096.767"/>
        <path fill="#F03D5F" d="M51.71 61.41a7.816 7.816 0 0 1-.435-6.422 7.831 7.831 0 0 1 4.594-4.515c1.477-.534 3.082-.606 4.652-.542 1.341.054 2.711.212 3.916.802 1.205.592 2.23 1.688 2.425 3.014"/>
        <path fill="#B05851" d="M59.108 85.356a5.443 5.443 0 0 0 5.86-5.215c.113-2.961.213-5.954.213-5.954s4.492-.42 4.818-4.86c.326-4.44.177-14.69.177-14.69a15.51 15.51 0 0 0-15.657 1.005l-.69.466.251 23.882a5.442 5.442 0 0 0 5.028 5.366"/>
        <path fill="#000" d="M68.06 62.45a.648.648 0 1 1 .915.01.648.648 0 0 1-.914-.01"/>
        <path fill="#000" d="M69.794 61.7c-.074.073-.49-.29-1.103-.33-.613-.049-1.077.249-1.14.167-.03-.038.047-.172.25-.308.2-.135.535-.256.917-.228.381.028.696.196.873.36.182.163.24.307.203.339M62.251 61.614a.645.645 0 1 1-.744 1.057.646.646 0 1 1 .744-1.057"/>
        <path fill="#000" d="M63.109 61.842c-.015-.001-.373-.435-1.103-.33-.612-.049-1.077.249-1.14.166-.03-.037.047-.171.25-.307.2-.135.535-.256.917-.228.381.028.696.196.873.359.182.164.24.308.203.34M65.287 66.595c0-.049.382-.102 1.003-.15.162-.008.29-.036.307-.121.035-.096-.017-.27-.087-.466l-.409-1.273c-.561-1.812-.941-3.304-.85-3.333.093-.028.623 1.417 1.184 3.23l.382 1.28c.048.19.146.413.048.672a.42.42 0 0 1-.292.238c-.108.026-.199.02-.276.02-.623-.016-1.01-.05-1.01-.097"/>
        <path fill="#813630" d="M65.192 74.124s-2.826.057-5.7-2c0 0 1.176 3.281 5.64 3.151l.06-1.151"/>
        <path fill="#848484" d="M57.888 53.097c.167 1.833 1.733 3.443 3.563 3.661 1.094.131 2.276-.172 3.26.324.708.356 1.161 1.057 1.663 1.67s1.176 1.203 1.968 1.176c.383-.012.743-.169 1.114-.262.371-.093.798-.112 1.104.118.487-1.324.86-2.74.657-4.137-.204-1.397-1.101-2.767-2.456-3.17-.883-.263-1.838-.095-2.746-.251-.75-.13-1.44-.474-2.133-.786-1.156-.52-2.413-.97-3.667-.78-1.253.189-2.461 1.22-2.429 2.486"/>
        <path fill="#848484" d="M54.14 65.252c1.611 1.293 3.554-2.059 4.416-4.161.862-2.103 1.127-4.425 1.251-6.717.04-.75.047-1.574-.39-2.163-.462-.624-.667.142-1.17-.444-.988-1.149-2.816-.528-3.716-.138-1.5.65-2.438 2.322-2.734 4.021-.296 1.7-.054 3.446.188 5.155l.332 2.341c.078.552.164 1.125.464 1.582.3.457.882.754 1.358.524"/>
        <path fill="#B05851" d="M54.08 61.599a.671.671 0 0 0-.643-.672c-.83-.023-2.187.308-2.313 2.596-.18 3.268 2.967 2.45 2.978 2.357a502.23 502.23 0 0 0-.022-4.281"/>
        <path fill="#813630" d="M53.38 64.596c-.014-.011-.06.037-.158.076a.57.57 0 0 1-.427-.015c-.338-.146-.6-.71-.583-1.3.008-.298.086-.578.204-.806.113-.234.277-.393.453-.414.176-.03.293.08.328.175.04.093.015.158.032.164.008.008.073-.05.054-.187a.366.366 0 0 0-.117-.212.434.434 0 0 0-.311-.1c-.254.003-.494.222-.624.474a1.928 1.928 0 0 0-.247.9c-.016.66.288 1.294.754 1.457a.611.611 0 0 0 .526-.058c.106-.075.127-.148.116-.154M63.721 67.38c-.222.385-.084.935.293 1.172.377.235.933.118 1.183-.25s.152-.926-.207-1.19c-.358-.262-.921-.186-1.197.164"/>
        <path fill="#000" d="M65.764 68.016c.017.079-.636.226-1.387-.046-.754-.265-1.166-.792-1.103-.842.063-.065.528.316 1.206.552.676.247 1.277.246 1.284.336"/>
        <path fill="#F03D5F" d="M57.417 50.544c-1.21-.17-2.076-1.35-2.279-2.554-.203-1.204.11-2.428.428-3.607a5.217 5.217 0 0 1 2.039 2.89 5.209 5.209 0 0 1-.298 3.523"/>
        <path fill="#F03D5F" d="M57.405 50.361c-.293-.87.23-1.86 1.013-2.342.782-.482 1.753-.548 2.668-.47a.456.456 0 0 1 .227.061c.088.062.121.176.138.282.142.892-.483 1.766-1.276 2.201-.793.436-1.722.531-2.623.616-.141.013-.291.026-.419-.036s-.218-.226-.148-.35"/>
        <path fill="#9C9C9C" d="M73.608 56.227c-.015.002-.021-.063-.08-.155a.559.559 0 0 0-.402-.224c-.196-.027-.49.045-.567.318-.086.254.06.63.368.787.305.156.758.014 1.007-.324.257-.33.271-.847.09-1.3-.34-.923-1.536-1.6-2.652-1.312l-.18.056-.823.257.675-.523c.417-.323.539-.936.389-1.418-.144-.49-.565-.85-1.012-1.024-.924-.369-1.868-.015-2.5.367-.325.195-.597.425-.874.584-.274.162-.555.244-.783.242-.473 0-.654-.249-.635-.248.013-.028.206.168.629.13.207-.017.45-.103.7-.27.253-.16.512-.4.848-.62.334-.216.73-.42 1.198-.53a2.562 2.562 0 0 1 1.52.083c.508.19 1.011.595 1.197 1.199.181.579.055 1.317-.49 1.75l-.147-.268.21-.065c1.287-.325 2.609.44 2.997 1.508.198.52.183 1.138-.155 1.56-.317.407-.888.587-1.31.36-.401-.23-.557-.693-.43-1.038a.582.582 0 0 1 .347-.351.738.738 0 0 1 .403-.029c.24.049.387.197.437.312.048.118.03.186.025.186M41.047 61.5s.112-.032.32.02c.204.052.508.207.731.557.109.172.202.392.211.648.011.254-.07.546-.275.771a1.391 1.391 0 0 1-.834.438c-.332.047-.726-.017-1.023-.281-.586-.545-.625-1.483-.355-2.282a3.211 3.211 0 0 1 1.839-1.945c.456-.175.937-.242 1.386-.384.45-.132.86-.381 1.072-.796.218-.409.237-.92.169-1.416-.065-.501-.246-.988-.417-1.503-.167-.513-.321-1.046-.316-1.602a2.266 2.266 0 0 1 .569-1.512 2.828 2.828 0 0 1 1.315-.831 3.69 3.69 0 0 1 1.476-.106c.97.099 1.767.588 2.55.708.39.065.77.018 1.09-.15.32-.168.58-.421.816-.675.463-.513.904-1.03 1.448-1.263a2.758 2.758 0 0 1 1.437-.238c.402.042.696.16.883.255.094.046.16.091.204.122l.062.054c-.013.036-.381-.255-1.159-.311a2.705 2.705 0 0 0-1.353.273c-.496.23-.896.72-1.36 1.254-.237.264-.507.542-.867.74-.361.198-.813.26-1.24.192-.863-.13-1.639-.6-2.544-.679-.885-.112-1.896.117-2.53.853a1.961 1.961 0 0 0-.49 1.317c-.005.494.138.998.303 1.503.165.502.358 1.017.427 1.557.071.531.058 1.104-.205 1.599-.256.504-.774.803-1.252.936-.483.147-.956.211-1.372.369-.831.316-1.437 1.02-1.699 1.762-.263.733-.219 1.588.26 2.038.487.432 1.247.264 1.582-.111.37-.387.28-.932.09-1.242-.19-.33-.461-.493-.647-.56-.19-.067-.303-.063-.302-.079"/>
        <path fill="#000" d="M59.908 64.64c-.08.033-.165.004-.192-.063-.027-.067.015-.148.095-.179.079-.032.165-.003.192.065.027.067-.015.146-.095.178M61.076 64.544c-.085.012-.164-.055-.177-.148-.014-.094.044-.18.128-.192.085-.012.164.054.177.148.014.094-.044.18-.128.192M62.137 64.785c-.084-.01-.142-.106-.128-.213.013-.108.093-.186.178-.175.084.01.142.106.128.214-.013.107-.093.186-.178.174M60.881 65.515a.15.15 0 0 1-.154-.145.15.15 0 0 1 .154-.146c.085 0 .155.065.155.146 0 .08-.07.145-.155.145M68.268 64.933c-.085.012-.163-.055-.176-.149-.014-.093.045-.18.129-.191.084-.011.163.056.176.15.013.093-.045.178-.13.19M69.045 64.978c-.08-.026-.113-.147-.072-.267.04-.12.138-.197.219-.17.081.028.114.147.073.268-.04.12-.139.197-.22.17M68.656 66.049c-.084-.013-.141-.1-.127-.193.014-.094.094-.16.178-.147.085.013.142.099.127.193-.014.094-.094.16-.178.147"/>
        <path fill="#595959" d="M92.434 228.516l-13.375-96.78-.376-6.247-33.465-1.586-1.396 5.262c-4.699 16.53-28.424 96.468-28.424 96.468l11.591 3.652 34.503-91.595 16.062 90.662 14.88.164"/>
        <path fill="#000" d="M76.977 124.553c-.085.01-.173-.182-.197-.426-.023-.245.026-.449.111-.457.085-.009.173.183.197.427.023.244-.026.449-.111.456M77.327 128.076c-.085.008-.193-.379-.242-.865-.049-.487-.02-.887.065-.896.085-.009.193.379.242.865.049.486.02.887-.065.896M77.693 131.596c-.085.009-.194-.378-.245-.864-.052-.486-.024-.887.06-.896.085-.009.195.378.246.864.052.486.024.887-.061.896M78.073 135.115c-.084.01-.196-.377-.249-.863-.053-.486-.027-.887.058-.896.084-.01.196.377.25.862.052.487.026.888-.059.897M78.467 138.632c-.085.01-.198-.376-.253-.862-.054-.485-.03-.887.054-.896.085-.01.198.376.253.862.055.485.03.887-.054.896M78.873 142.148c-.086.01-.2-.376-.256-.86-.057-.486-.034-.888.051-.898.084-.01.2.376.256.862.056.485.033.886-.051.896M79.29 145.663c-.085.01-.2-.375-.259-.86-.058-.485-.036-.887.049-.897.085-.01.2.375.258.86.058.485.036.887-.048.897M79.717 149.176c-.085.01-.202-.374-.26-.859-.06-.485-.04-.887.045-.898.085-.009.201.375.26.86.06.486.04.888-.045.897M80.153 152.689c-.084.01-.202-.374-.262-.859-.061-.485-.042-.887.043-.897.085-.01.202.374.263.859.06.485.041.886-.044.897M80.599 156.2c-.085.01-.204-.373-.265-.859-.062-.484-.044-.886.041-.896.084-.011.203.373.265.858.061.485.043.886-.041.897M81.051 159.71c-.085.012-.204-.373-.267-.857-.063-.485-.045-.886.04-.898.084-.01.204.373.266.858.063.485.045.887-.039.897M81.51 163.22c-.085.01-.205-.372-.269-.856-.063-.486-.047-.887.038-.899.085-.01.205.373.269.858.063.485.046.886-.039.897M81.974 166.73c-.085.01-.206-.373-.27-.858-.064-.484-.048-.886.037-.897.084-.011.205.373.27.857.063.484.047.886-.037.898M82.442 170.238c-.084.011-.205-.372-.27-.857-.065-.484-.05-.886.036-.897.084-.011.205.372.27.857.065.484.049.886-.036.897M82.914 173.746c-.084.011-.206-.372-.271-.857-.065-.484-.05-.885.035-.897.085-.011.206.372.27.857.066.484.05.886-.034.897M83.389 177.254c-.085.012-.207-.372-.272-.856-.066-.485-.05-.887.034-.898.085-.011.206.372.271.856.066.484.05.886-.033.898M83.864 180.761c-.084.011-.206-.372-.272-.856-.065-.484-.05-.886.034-.898.085-.011.207.372.273.857.065.484.05.885-.035.897M84.352 184.263c-.085.012-.209-.37-.278-.853-.069-.485-.056-.886.029-.897.084-.012.208.37.277.853.069.483.056.884-.028.897M84.87 187.76c-.084.013-.21-.368-.283-.85-.071-.483-.062-.885.023-.897.084-.013.211.368.283.85.072.484.062.885-.022.898M85.397 191.258c-.084.012-.212-.37-.285-.852-.073-.483-.063-.885.02-.898.085-.012.213.368.285.852.073.483.064.885-.02.898M85.927 194.757c-.084.012-.212-.369-.285-.852-.074-.482-.064-.884.02-.897.084-.013.212.369.285.851.073.483.064.884-.02.898M86.457 198.25c-.084.013-.211-.368-.285-.85-.073-.482-.064-.884.02-.897.085-.013.212.369.286.85.073.483.064.885-.02.898M86.99 201.745c-.085.013-.212-.368-.286-.85-.074-.483-.065-.885.02-.898.084-.012.212.369.285.851.074.482.065.885-.02.897M87.522 205.242c-.084.013-.212-.369-.286-.85-.073-.484-.064-.886.02-.899.084-.012.212.369.286.852.073.482.064.884-.02.897M88.056 208.744c-.084.012-.212-.369-.287-.852-.073-.484-.064-.887.02-.9.084-.012.212.37.286.853.074.483.065.886-.02.899M88.589 212.243c-.084.013-.213-.368-.287-.852-.073-.483-.064-.885.02-.897.085-.013.212.368.286.851.073.484.065.885-.02.898M89.12 215.743c-.084.012-.212-.369-.285-.852-.074-.483-.065-.886.02-.898.084-.013.212.369.285.852.074.483.065.885-.02.898M89.651 219.243c-.084.013-.212-.37-.285-.852-.074-.483-.064-.886.02-.898.084-.014.212.369.285.852.073.483.064.885-.02.898M90.18 222.744c-.085.013-.213-.37-.285-.852-.073-.484-.064-.886.02-.9.085-.01.212.37.285.854.073.483.064.886-.02.898M90.702 226.248c-.084.013-.211-.37-.283-.853-.072-.485-.062-.886.022-.9.085-.012.212.37.283.854.072.484.062.887-.022.9M91.084 228.898c-.085.011-.181-.175-.215-.418-.034-.242.007-.448.091-.46.084-.012.18.174.215.418.034.242-.007.449-.091.46M26.17 226.757c.08.025.087.236.013.47-.074.233-.2.402-.28.377-.082-.027-.088-.236-.015-.47.074-.233.2-.403.281-.377M27.264 223.33c.081.027.024.432-.128.904-.152.473-.34.835-.422.81-.08-.027-.024-.431.128-.904.152-.473.341-.835.422-.81M28.378 219.91c.08.026.021.43-.133.902-.154.472-.345.834-.426.808-.081-.027-.022-.431.132-.904.155-.471.346-.833.427-.806M29.509 216.494c.08.026.02.43-.137.902-.157.472-.35.832-.431.805-.08-.027-.02-.43.138-.902.156-.471.349-.832.43-.805M30.657 213.083c.08.028.017.431-.142.902-.159.47-.353.83-.434.804-.08-.028-.017-.432.142-.903.159-.47.353-.83.434-.803M31.821 209.678c.08.028.016.43-.146.9-.161.47-.357.83-.438.802-.08-.028-.015-.43.146-.901.161-.47.358-.83.438-.801M33 206.277c.081.027.014.43-.15.9-.162.47-.36.828-.441.8-.08-.028-.013-.431.15-.9.164-.47.361-.828.442-.8M34.195 202.88c.08.029.011.432-.154.9-.165.47-.364.826-.445.797-.08-.027-.012-.43.154-.9.165-.468.364-.825.445-.797M35.402 199.488c.08.03.01.432-.157.9s-.368.824-.448.796c-.08-.03-.01-.431.157-.9.167-.469.368-.824.448-.796M36.623 196.1c.08.03.008.432-.16.9-.17.467-.372.822-.452.794-.08-.029-.008-.432.16-.9.17-.467.371-.823.452-.794M37.855 192.716c.08.03.007.432-.164.899-.17.467-.373.822-.454.793-.08-.03-.006-.432.164-.899s.374-.822.454-.793M39.098 189.336c.08.03.006.431-.166.898-.172.466-.377.821-.457.792-.08-.03-.005-.432.167-.899.172-.466.377-.821.456-.791M40.352 185.958c.08.03.004.433-.169.899-.173.466-.379.82-.459.79-.08-.03-.004-.432.17-.898.173-.466.378-.82.458-.79M41.616 182.585c.08.03.002.431-.172.898-.175.465-.381.818-.461.789-.08-.03-.003-.432.172-.897.174-.466.38-.82.46-.79M42.888 179.215c.08.03.001.431-.174.897-.176.465-.384.818-.464.788-.08-.03-.001-.432.175-.897.176-.466.383-.818.463-.788M44.167 175.847c.08.03.001.432-.175.897-.178.465-.386.817-.466.787-.08-.031 0-.432.177-.897s.385-.817.464-.787M45.454 172.482c.08.03 0 .432-.178.896-.177.465-.386.816-.466.786-.08-.03 0-.431.178-.896.178-.464.387-.816.466-.786M46.748 169.12c.08.03-.001.431-.18.895-.179.465-.388.816-.468.786-.08-.031.001-.432.18-.896s.388-.816.468-.785M48.046 165.76c.08.03-.001.43-.18.895-.18.464-.39.815-.47.784-.08-.03.002-.432.181-.895.18-.464.39-.816.47-.785M49.35 162.4c.08.032-.002.432-.182.896s-.391.815-.47.784c-.08-.031.001-.432.181-.896.18-.463.39-.814.47-.783M50.657 159.044c.08.031-.003.432-.183.895-.18.464-.392.814-.471.783-.08-.03.002-.43.183-.895.18-.463.391-.814.47-.783M51.967 155.689c.08.031-.003.432-.184.895s-.392.814-.472.782c-.08-.03.003-.43.184-.894.181-.463.392-.814.472-.783M53.279 152.335c.08.031-.004.432-.185.895s-.392.813-.472.782c-.079-.031.004-.43.185-.894.181-.463.392-.814.472-.783M54.593 148.984c.08.031-.004.43-.186.893-.18.463-.392.813-.472.782-.079-.031.004-.43.185-.894.181-.463.394-.813.473-.781M55.967 145.656c.078.034-.015.432-.208.889-.194.456-.414.8-.493.768-.079-.032.014-.43.208-.888.195-.46.415-.804.493-.769M57.514 142.405c.075.04-.043.43-.264.874-.22.443-.462.773-.54.737-.076-.036.041-.427.264-.874.223-.448.464-.778.54-.737M59.43 139.358c.066.054-.107.425-.387.83-.28.402-.567.694-.64.65-.073-.044.1-.415.387-.828.287-.414.574-.706.64-.652M61.492 137.69c.023.083-.134.201-.336.31-.205.107-.399.166-.45.097-.05-.068.075-.249.305-.37.231-.124.459-.118.48-.037"/>
        <path fill="#7385EF" d="M56.074 86.966l-21.205-.571H13.243c-2.834 0-5.132 2.384-5.132 5.325v14.645c0 10.17 2.307 20.25 7.055 29.147 3.995 7.488 10.18 15.196 19.703 20.096 8.754-3.283 15.288-12.038 19.283-19.525 4.746-8.897 7.054-18.976 7.054-29.146V92.292c0-2.941-2.298-5.326-5.132-5.326"/>
        <path fill="#FFF" d="M34.135 121.24l-7.847-6.483 2.646-3.193 4.73 3.908 7.74-8.869 3.128 2.723-10.397 11.915"/>
        <path fill="#5C71EC" d="M34.869 155.608c-9.523-4.9-15.708-12.608-19.703-20.096-4.748-8.898-7.055-18.977-7.055-29.147V91.72c0-2.941 2.298-5.325 5.132-5.325H34.87l21.205.57c2.834 0 5.132 2.386 5.132 5.327v14.645c0 5.975-.796 11.918-2.416 17.61a58.536 58.536 0 0 1-4.638 11.536c-3.778 7.08-9.827 15.293-17.875 18.942-.463.21-.932.405-1.408.583M17.759 92.22c-2.242 0-4.06 1.887-4.06 4.214v11.587c0 8.046 1.825 16.02 5.581 23.06 3.161 5.924 7.635 12.023 15.168 15.9 7.534-3.877 12.184-9.976 15.344-15.9 3.756-7.04 5.581-15.014 5.581-23.06V96.433c0-2.327-1.818-4.214-4.06-4.214H17.76"/>
    </g>
</svg>
