<svg xmlns="http://www.w3.org/2000/svg" width="50" height="50" viewBox="0 0 50 50">
    <g fill="none" fill-rule="evenodd">
        <circle cx="25" cy="25" r="25" fill="#EFF4FF"/>
        <path fill="#5067EB" fill-rule="nonzero" d="M25.13 12.001l.185.001c1.254 0 2.351.627 2.79 1.88h1.85c.345 0 .72.158.72.502v1.066h2.383a2.665 2.665 0 0 1 2.633 2.54V35.95c0 1.38-1.254 2.382-2.633 2.382H17.635c-1.379 0-2.633-1.003-2.633-2.382V17.989a2.665 2.665 0 0 1 2.633-2.539h2.383v-1.066c0-.344.345-.501.69-.501h1.818a2.853 2.853 0 0 1 2.79-1.881zm-5.112 4.703h-2.383a1.41 1.41 0 0 0-1.379 1.285v17.962c0 .69.69 1.129 1.38 1.129h15.422c.69 0 1.38-.44 1.38-1.129V17.99a1.41 1.41 0 0 0-1.38-1.285h-2.382v1.599a.69.69 0 0 1-.721.595h-9.248a.658.658 0 0 1-.69-.595v-1.599zm2.037 14.294a.627.627 0 0 1 .878.032.596.596 0 0 1 0 .878l-2.445 2.319a.627.627 0 0 1-.439.188.564.564 0 0 1-.439-.188l-1.285-1.317a.658.658 0 0 1 0-.909.627.627 0 0 1 .878.032l.846.877zm9.875 1.38a.627.627 0 1 1 0 1.253h-7.21a.627.627 0 1 1 0-1.253zm-9.875-6.395a.627.627 0 0 1 .878.031.596.596 0 0 1 0 .878l-2.445 2.32a.627.627 0 0 1-.439.188.564.564 0 0 1-.439-.188l-1.285-1.317a.658.658 0 0 1 0-.91.627.627 0 0 1 .878.032l.846.878zm9.875 1.379a.627.627 0 1 1 0 1.254h-7.21a.627.627 0 1 1 0-1.254zm-9.875-6.395a.627.627 0 0 1 .878.032.596.596 0 0 1 0 .878l-2.445 2.319a.627.627 0 0 1-.439.188.564.564 0 0 1-.439-.188l-1.285-1.317a.658.658 0 0 1 0-.909.627.627 0 0 1 .878.032l.846.877zm9.875 1.38a.627.627 0 1 1 0 1.253h-7.21a.627.627 0 1 1 0-1.253zm-6.615-9.185a1.818 1.818 0 0 0-1.724 1.41.69.69 0 0 1-.595.565h-1.724v2.508h8.15v-2.508h-1.787a.69.69 0 0 1-.627-.564 1.787 1.787 0 0 0-1.693-1.411z"/>
    </g>
</svg>
