<svg xmlns="http://www.w3.org/2000/svg" width="100" height="100" viewBox="0 0 100 100">
    <g fill="none" fill-rule="evenodd">
        <circle cx="50" cy="50" r="50" fill="#F0F4FF"/>
        <path fill="#5067EB" fill-rule="nonzero" d="M55.745 31c2.372 0 4.312 1.956 4.312 4.348v1.576h9.326c.916 0 1.617.706 1.617 1.63v.109c-.054.87-.755 1.576-1.617 1.522h-2.857L64.8 66.923c-.108 2.282-1.994 4.13-4.312 4.076H41.305c-2.221-.058-3.999-1.863-4.103-4.076l-1.725-26.738h-2.965c-.862-.055-1.563-.761-1.51-1.63 0-.925.702-1.631 1.618-1.631h9.326v-1.576c0-2.392 1.94-4.348 4.312-4.348zm7.493 9.185H38.765l1.671 26.52v.055c.054.598.54 1.032 1.078.978h19.029c.592 0 1.024-.49 1.024-1.033l1.67-26.52zM46.58 44.967c.863.054 1.564.76 1.617 1.63v14.728a1.746 1.746 0 0 1-1.617 1.63c-.916 0-1.617-.706-1.617-1.63V46.597c0-.924.7-1.63 1.617-1.63zm8.84 0c.917 0 1.618.706 1.618 1.63v14.728c0 .924-.701 1.63-1.617 1.63a1.746 1.746 0 0 1-1.618-1.63V46.597a1.746 1.746 0 0 1 1.618-1.63zm.324-10.706h-9.487c-.593 0-1.078.489-1.078 1.087v1.576h11.643v-1.576c0-.598-.485-1.087-1.078-1.087z"/>
    </g>
</svg>
