<svg xmlns="http://www.w3.org/2000/svg" width="32" height="32" viewBox="0 0 32 32">
    <g fill="none" fill-rule="evenodd">
        <circle cx="16" cy="16" r="16" fill="#FFF"/>
        <path fill="#FF5C5C" fill-rule="nonzero" d="M19.53 10.4c1.236 0 2.373.5 3.2 1.41.82.897 1.27 2.124 1.27 3.454 0 1.37-.504 2.622-1.587 3.944-.968 1.182-2.36 2.382-3.972 3.771-.55.475-1.175 1.013-1.823 1.586a.933.933 0 0 1-1.237 0c-.646-.572-1.27-1.11-1.819-1.583l-.003-.003c-1.612-1.39-3.004-2.59-3.972-3.771C8.504 17.886 8 16.633 8 15.264c0-1.33.45-2.557 1.27-3.455a4.28 4.28 0 0 1 3.2-1.409c.923 0 1.77.295 2.514.878.375.294.716.654 1.016 1.073.3-.42.64-.78 1.016-1.073a3.995 3.995 0 0 1 2.514-.878z"/>
    </g>
</svg>
