<svg xmlns="http://www.w3.org/2000/svg" width="32" height="32" viewBox="0 0 32 32">
    <g fill="none" fill-rule="evenodd">
        <circle cx="16" cy="16" r="16" fill="#FFF"/>
        <path fill="#FF5C5C" fill-rule="nonzero" d="M16 24.8a.932.932 0 0 1-.619-.235c-.646-.572-1.27-1.11-1.819-1.583l-.003-.003c-1.612-1.39-3.004-2.59-3.972-3.771C8.504 17.886 8 16.633 8 15.264c0-1.33.45-2.557 1.27-3.455a4.28 4.28 0 0 1 3.2-1.409c.923 0 1.77.295 2.514.878.375.294.716.654 1.016 1.073.3-.42.64-.78 1.016-1.073a3.995 3.995 0 0 1 2.514-.878c1.236 0 2.373.5 3.2 1.41.82.897 1.27 2.124 1.27 3.454 0 1.37-.504 2.622-1.587 3.944-.968 1.182-2.36 2.382-3.972 3.771-.55.475-1.175 1.013-1.823 1.586A.933.933 0 0 1 16 24.8zm-3.53-13.452c-.971 0-1.863.392-2.512 1.104-.658.722-1.02 1.721-1.02 2.812 0 1.152.422 2.181 1.37 3.339.917 1.119 2.28 2.294 3.86 3.655l.002.002c.552.476 1.178 1.016 1.829 1.591a219.47 219.47 0 0 1 1.834-1.593c1.579-1.361 2.942-2.536 3.859-3.655.948-1.158 1.37-2.187 1.37-3.339 0-1.09-.362-2.09-1.02-2.812a3.357 3.357 0 0 0-2.512-1.104c-.71 0-1.364.229-1.94.68-.514.402-.872.91-1.082 1.266a.586.586 0 0 1-.508.292c-.21 0-.4-.11-.508-.292-.21-.356-.568-.864-1.082-1.266a3.086 3.086 0 0 0-1.94-.68z"/>
    </g>
</svg>
