<svg xmlns="http://www.w3.org/2000/svg" width="64" height="64" viewBox="0 0 64 64">
    <g fill="none" fill-rule="evenodd">
        <circle cx="32" cy="32" r="32" fill="#5067EB"/>
        <path fill="#FFF" fill-rule="nonzero" d="M38.592 29.201a3.58 3.58 0 0 0 2.063.668 3.582 3.582 0 0 0 2.067-.658 3.59 3.59 0 0 0 2.053.658v14.019h.612a1.448 1.448 0 1 1 0 2.897h-2.87V35.807c0-.811-.658-1.469-1.47-1.469h-5.149c-.81 0-1.468.658-1.468 1.469v10.978H19.45a1.449 1.449 0 0 1 0-2.897h.61V29.869l.25-.009a3.612 3.612 0 0 0 1.804-.648 3.576 3.576 0 0 0 2.067.657c.76 0 1.468-.25 2.058-.665a3.573 3.573 0 0 0 2.062.665 3.58 3.58 0 0 0 2.056-.655c.585.41 1.293.655 2.061.655.767 0 1.476-.245 2.06-.655a3.58 3.58 0 0 0 2.397.639 3.603 3.603 0 0 0 1.717-.652zm-2.285 10.97a.799.799 0 1 1 0 1.597.799.799 0 0 1 0-1.598zm-5.12-8.245h-1.255l-7.109 6.217v.797c0 .38.308.687.687.687h7.677c.379 0 .687-.307.687-.687v-6.327a.687.687 0 0 0-.687-.687zm-2.71 0h-1.692l-3.962 3.462v1.481l5.653-4.943zm-3.149 0H23.51a.687.687 0 0 0-.687.687v1.502l2.505-2.19zM42.68 18.05c1.063 0 2 .698 2.305 1.717l1.765 5.907a2.06 2.06 0 0 1-3.948 1.178l-.108-.36a2.064 2.064 0 0 1-2.04 1.832 2.06 2.06 0 0 1-2.018-1.659l-.05-.25-.02.172a2.058 2.058 0 0 1-.884 1.38l-.145.09a2.022 2.022 0 0 1-1.002.266 2.06 2.06 0 0 1-2.047-1.856l-.016-.152-.01.17a2.051 2.051 0 0 1-.905 1.483l-.138.085a2.03 2.03 0 0 1-1 .27c-.367 0-.704-.103-1.001-.27a2.053 2.053 0 0 1-1.055-1.737l-.015.151a2.06 2.06 0 0 1-2.253 1.846 2.03 2.03 0 0 1-.797-.257 2.057 2.057 0 0 1-1.048-1.644v.001l-.05.252a2.061 2.061 0 0 1-1.86 1.652l-.158.007a2.062 2.062 0 0 1-1.01-.268 2.061 2.061 0 0 1-1.03-1.564l-.108.36a2.062 2.062 0 0 1-2.563 1.385 2.06 2.06 0 0 1-1.384-2.563l1.764-5.907a2.406 2.406 0 0 1 2.305-1.717z"/>
    </g>
</svg>
