<svg xmlns="http://www.w3.org/2000/svg" width="14" height="14" viewBox="0 0 14 14">
    <g fill="none" fill-rule="evenodd">
        <path fill="#FFF" fill-opacity="0" d="M-7-7h28v28H-7z"/>
        <path fill="#B1B1B1" fill-rule="nonzero" d="M7 0c3.86 0 7 3.14 7 7s-3.14 7-7 7-7-3.14-7-7 3.14-7 7-7zm0 1.273A5.734 5.734 0 0 0 1.273 7 5.734 5.734 0 0 0 7 12.727 5.734 5.734 0 0 0 12.727 7 5.734 5.734 0 0 0 7 1.273zm0 4.666c.351 0 .636.285.636.637v3.818a.636.636 0 0 1-1.272 0V6.576c0-.352.285-.637.636-.637zm0-2.97a.85.85 0 0 1 0 1.698.85.85 0 0 1 0-1.697z"/>
    </g>
</svg>
