<svg xmlns="http://www.w3.org/2000/svg" width="18" height="18" viewBox="0 0 18 18">
    <path fill="#000" fill-rule="nonzero" stroke="#000" stroke-width=".2" d="M10.722 12.496a2.274 2.274 0 0 1 2.765 1.643h2.937a.571.571 0 1 1 0 1.143h-2.937a2.274 2.274 0 0 1-4.408 0H1.57a.571.571 0 0 1 0-1.143H9.08a2.274 2.274 0 0 1 1.643-1.643zM4.438 6.783a2.274 2.274 0 0 1 2.765 1.644h9.221a.571.571 0 1 1 0 1.142H7.203a2.274 2.274 0 0 1-4.408 0H1.57a.571.571 0 1 1 0-1.142h1.224a2.274 2.274 0 0 1 1.643-1.644zm7.426-5.712a2.274 2.274 0 0 1 2.765 1.643h1.795a.571.571 0 1 1 0 1.142H14.63a2.274 2.274 0 0 1-4.408 0h-8.65a.571.571 0 1 1 0-1.142h8.65a2.274 2.274 0 0 1 1.643-1.643z"/>
</svg>
