<svg xmlns="http://www.w3.org/2000/svg" width="50" height="50" viewBox="0 0 50 50">
    <g fill="none" fill-rule="evenodd">
        <circle cx="25" cy="25" r="25" fill="#EFF4FF"/>
        <path fill="#5067EB" fill-rule="nonzero" d="M25 12.001l.182.001c1.238 0 2.321.619 2.754 1.857h1.826c.34 0 .711.154.711.495v1.052h2.352a2.63 2.63 0 0 1 2.6 2.506v17.73c0 1.361-1.239 2.351-2.6 2.351H17.601c-1.361 0-2.599-.99-2.599-2.351v-17.73a2.63 2.63 0 0 1 2.6-2.506h2.351v-1.052c0-.34.34-.495.68-.495h1.795a2.816 2.816 0 0 1 2.754-1.857zm-5.047 4.642h-2.352a1.392 1.392 0 0 0-1.361 1.269v17.73c0 .68.68 1.114 1.361 1.114h15.224c.68 0 1.361-.433 1.361-1.114v-17.73a1.393 1.393 0 0 0-1.361-1.269h-2.352v1.578a.68.68 0 0 1-.711.588h-9.128a.65.65 0 0 1-.681-.588v-1.578zm2.011 14.11a.619.619 0 0 1 .867.031l.035.036c.22.239.204.61-.035.83l-2.414 2.29a.619.619 0 0 1-.433.186.557.557 0 0 1-.433-.186l-1.269-1.3a.65.65 0 0 1 0-.897.619.619 0 0 1 .866.031l.836.867zm9.747 1.362a.619.619 0 1 1 0 1.237h-7.117a.619.619 0 1 1 0-1.237zm-9.747-6.313a.619.619 0 0 1 .867.031.588.588 0 0 1 0 .866l-2.414 2.29a.619.619 0 0 1-.433.186.557.557 0 0 1-.433-.186l-1.269-1.3a.65.65 0 0 1 0-.897.619.619 0 0 1 .866.031l.836.867zm9.747 1.362a.619.619 0 1 1 0 1.237h-7.117a.619.619 0 1 1 0-1.237zm-9.747-6.312a.619.619 0 0 1 .867.03.588.588 0 0 1 0 .866l-2.414 2.29a.619.619 0 0 1-.433.186.557.557 0 0 1-.433-.185l-1.269-1.3a.65.65 0 0 1 0-.897.619.619 0 0 1 .866.03l.836.867zm9.747 1.361a.619.619 0 1 1 0 1.238h-7.117a.619.619 0 1 1 0-1.238zm-6.529-9.066a1.795 1.795 0 0 0-1.702 1.392.68.68 0 0 1-.587.557H21.19v2.476h8.045v-2.476h-1.764a.68.68 0 0 1-.619-.557 1.764 1.764 0 0 0-1.67-1.392z"/>
    </g>
</svg>
