<svg xmlns="http://www.w3.org/2000/svg" width="57" height="49" viewBox="0 0 57 49">
    <path fill="#5067EB" fill-rule="nonzero" d="M54.264.055c1.133 0 2.056.923 2.056 2.056v44.19a2.059 2.059 0 0 1-2.056 2.057H2.056A2.059 2.059 0 0 1 0 46.3V2.111C0 .978.923.055 2.056.055zM41.415 22.531l-14.679 14.68a1.723 1.723 0 0 1-1.227.508c-.464 0-.9-.181-1.228-.51l-9.376-9.376L3.3 39.438v5.62h49.72V34.137L41.415 22.53zM53.02 3.355H3.3v31.417l10.378-10.378a1.724 1.724 0 0 1 1.227-.509c.464 0 .9.181 1.228.51l9.376 9.375 14.679-14.678a1.738 1.738 0 0 1 2.453-.001L53.02 29.47V3.355zm-27.511 7.24a5.633 5.633 0 0 1 5.627 5.627 5.633 5.633 0 0 1-5.627 5.626 5.633 5.633 0 0 1-5.626-5.626 5.633 5.633 0 0 1 5.626-5.627zm0 3.3a2.33 2.33 0 0 0-2.326 2.327 2.33 2.33 0 0 0 2.326 2.326 2.33 2.33 0 0 0 2.327-2.326 2.33 2.33 0 0 0-2.327-2.327z"/>
</svg>
