<svg xmlns="http://www.w3.org/2000/svg" width="56" height="56" viewBox="0 0 56 56">
    <g fill="none" fill-rule="evenodd">
        <circle cx="28" cy="28" r="28" fill="#EFF4FF"/>
        <path fill="#5067EB" fill-rule="nonzero" stroke="#5067EB" stroke-width=".3" d="M27.538 13a3.463 3.463 0 0 1 3.328 2.503c.152.531.561.94 1.093 1.093.63.181 1.18.545 1.607 1.02h3.203a2.308 2.308 0 0 1 2.308 2.307v20.77A2.308 2.308 0 0 1 36.769 43H18.308A2.308 2.308 0 0 1 16 40.692V19.923a2.308 2.308 0 0 1 2.308-2.308h3.203a3.452 3.452 0 0 1 1.606-1.019 1.59 1.59 0 0 0 1.094-1.093A3.463 3.463 0 0 1 27.538 13zm-6.725 5.77h-2.505c-.637 0-1.154.517-1.154 1.153v20.77c0 .635.517 1.153 1.154 1.153h18.461c.637 0 1.154-.518 1.154-1.154V19.923c0-.636-.518-1.154-1.154-1.154h-2.507c.128.361.2.75.2 1.154v2.308H20.616v-2.336a3.45 3.45 0 0 1 .197-1.126zm10.398 7.923l.815.816-3.671 3.672 3.671 3.671-.815.816-3.672-3.672-3.671 3.672-.816-.816 3.671-3.671-3.671-3.672.816-.816 3.671 3.672 3.672-3.672zm-3.673-12.54a2.318 2.318 0 0 0-2.218 1.669 2.738 2.738 0 0 1-1.884 1.883 2.32 2.32 0 0 0-1.667 2.2v1.172h11.539v-1.154a2.318 2.318 0 0 0-1.668-2.218 2.735 2.735 0 0 1-1.883-1.883 2.317 2.317 0 0 0-2.219-1.668zm.018 1.443a.865.865 0 1 1 0 1.73.865.865 0 0 1 0-1.73z"/>
    </g>
</svg>
