<svg xmlns="http://www.w3.org/2000/svg" xmlns:xlink="http://www.w3.org/1999/xlink" width="269" height="292" viewBox="0 0 269 292">
    <defs>
        <linearGradient id="a" x1="49.975%" x2="40.176%" y1="13.208%" y2="67.741%">
            <stop offset="0%" stop-color="#CAD6F6"/>
            <stop offset="100%" stop-color="#FFF"/>
        </linearGradient>
        <path id="b" d="M8.748 0h9.878v9.848a8.748 8.748 0 0 1-8.748 8.748H0V8.748A8.748 8.748 0 0 1 8.748 0z"/>
    </defs>
    <g fill="none" fill-rule="evenodd">
        <path fill="#CAD6F6" d="M121.691 106.678l110.803 30.447V243.66l-110.803-47.735z"/>
        <path fill="#C6D1F0" d="M121.818 106.783L31.32 132.07v111.946l90.498-48.454z"/>
        <path stroke="url(#a)" stroke-dasharray="6.479999656677251,7.559999456405649" stroke-width="3.24" d="M88.304 240.029c-25.006-7.32-68.924-6.667-85.416-49.447-15.116-39.208 40.643-76.944 56.244-60.423 11.054 11.707-3.115 28.59-22.777 26.693-22.131-2.134-35.213-21.926-30.849-43.214 8.656-42.227 75.206-70.166 78.012-72.112" transform="translate(91.8 -4)"/>
        <g transform="translate(154.44 -4)">
            <path fill="#CAD6F6" d="M27.711 27.863c-.418-10.585-2.03-17.28-4.832-20.082-4.205-4.205-11.027-4.2-15.238.012-4.211 4.211-4.217 11.033-.012 15.238 2.803 2.803 9.497 4.414 20.082 4.832zM35.09 34.22c.418 10.584 2.03 17.279 4.832 20.082 4.205 4.204 11.027 4.199 15.238-.013 4.211-4.21 4.217-11.033.012-15.237-2.803-2.803-9.497-4.414-20.082-4.833z" opacity=".4"/>
            <g transform="translate(22.547 20.734)">
                <mask id="c" fill="#fff">
                    <use xlink:href="#b"/>
                </mask>
                <use fill="#BCC4F4" xlink:href="#b"/>
                <path fill="#DFE6FA" d="M3.921.979h2.941v21.532H3.921z" mask="url(#c)" transform="rotate(-45 5.392 11.745)"/>
                <path fill="#DFE6FA" d="M2.62.278l2.08-2.08 15.226 15.226-2.08 2.08z" mask="url(#c)"/>
            </g>
            <path stroke="#C6D1F0" stroke-width=".972" d="M51.174 16.075l7.154-1.703M48.233 13.138l2.753-7.081"/>
            <ellipse cx="44.114" cy="18.776" fill="#BCC4F4" rx="7.842" ry="7.83"/>
        </g>
        <path fill="#F0F4FF" d="M31.32 132.273l110.803 35.161v124.162L31.32 243.861z"/>
        <path fill="#DFE6FA" d="M233.053 136.988l-92.502 30.446v124.162l92.502-47.735z"/>
        <path fill="#F0F4FF" d="M232.79 136.914l35.76 47.856-94.898 37.398-32.775-54.97z"/>
        <path fill="#DFE6FA" d="M31.186 132.014L.214 180.331l109.162 41.837 31.893-55.035z"/>
    </g>
</svg>
