<svg xmlns="http://www.w3.org/2000/svg" width="80" height="80" viewBox="0 0 80 80">
    <g fill="none" fill-rule="evenodd">
        <circle cx="40" cy="40" r="40" fill="#F0F4FF"/>
        <path fill="#5067EB" fill-rule="nonzero" stroke="#5067EB" stroke-width=".3" d="M57.275 20a2.699 2.699 0 0 1 1.931.794c.515.515.797 1.2.794 1.931a2.73 2.73 0 0 1-.806 1.93c-.351.352-1.358 1.14-2.729 2.084.054.265.082.538.082.818v9.49a4.764 4.764 0 0 1-1.404 3.39L36.175 59.407a2.024 2.024 0 0 1-1.436.594c-.52 0-1.04-.198-1.436-.594L20.595 46.697A2.017 2.017 0 0 1 20 45.262c0-.543.211-1.053.595-1.436l18.968-18.968a4.765 4.765 0 0 1 3.39-1.405h9.49c1.51 0 2.832.82 3.545 2.04 1.204-.842 2.045-1.51 2.29-1.754.273-.273.424-.635.426-1.02a1.408 1.408 0 0 0-.414-1.009 1.408 1.408 0 0 0-1.003-.414c-.39.002-.752.154-1.026.427-.13.13-.412.454-.753.865a.648.648 0 1 1-.997-.828c.217-.263.615-.735.834-.954a2.73 2.73 0 0 1 1.93-.806zm-4.832 4.75h-9.49c-.934 0-1.813.363-2.474 1.024L21.511 44.742a.73.73 0 0 0-.215.52c0 .196.077.38.215.519L34.22 58.489a.735.735 0 0 0 1.038 0l18.968-18.968a3.477 3.477 0 0 0 1.025-2.474V27.55c-.7.455-1.46.926-2.251 1.386.237.906.002 1.91-.706 2.619-.53.53-1.228.796-1.925.796a2.713 2.713 0 0 1-1.924-.796 2.725 2.725 0 0 1 0-3.85 2.725 2.725 0 0 1 3.936.093c.91-.53 1.767-1.07 2.532-1.576a2.81 2.81 0 0 0-2.47-1.474zM39.31 33.2c.357 0 .648.29.648.648v13.686a.648.648 0 0 1-1.297 0V33.848c0-.358.29-.648.649-.648zm-6.813 5.567a2.725 2.725 0 0 1 3.85 0c.513.514.797 1.197.797 1.924 0 .727-.284 1.41-.798 1.925-.53.53-1.227.796-1.924.796a2.713 2.713 0 0 1-1.925-.796 2.725 2.725 0 0 1 0-3.85zm9.776 0a2.725 2.725 0 0 1 3.849 0 2.725 2.725 0 0 1 0 3.849c-.53.53-1.228.796-1.925.796a2.713 2.713 0 0 1-1.924-.796 2.725 2.725 0 0 1 0-3.85zm-7.851.5c-.365 0-.73.138-1.008.416a1.427 1.427 0 0 0 0 2.016 1.427 1.427 0 0 0 2.433-1.008 1.421 1.421 0 0 0-1.426-1.425zm9.775 0c-.365 0-.73.138-1.008.416a1.427 1.427 0 0 0 0 2.016c.556.556 1.46.556 2.016 0a1.427 1.427 0 0 0-1.008-2.433zm6.173-11.06c-.366 0-.73.138-1.009.416a1.427 1.427 0 0 0 0 2.016c.556.556 1.46.556 2.017 0a1.42 1.42 0 0 0 .416-1.022c-.375.203-.753.402-1.133.593a.645.645 0 0 1-.87-.288.648.648 0 0 1 .287-.87 39.78 39.78 0 0 0 1.115-.583 1.423 1.423 0 0 0-.823-.263z"/>
    </g>
</svg>
