<svg xmlns="http://www.w3.org/2000/svg" width="60" height="60" viewBox="0 0 60 60">
    <g fill="none" fill-rule="evenodd">
        <circle cx="30" cy="30" r="30" fill="#EFF4FF"/>
        <g>
            <path d="M9.17 12.934c.483 1.126 1.125 2.092 1.879 2.83.394.386.818.71 1.268.963.718.404 1.498.626 2.314.626.104 0 .207-.004.31-.01.204-.015.406-.043.606-.084 2.845-.592 5.089-3.9 5.466-8.07l.02-.207c.043-.303.068-.615.072-.93L20.07 9.24V9.24c.392-.87-.446-2.662-1.009-3.697-.256-.471-.455-.786-.455-.786-3.428 2.48-8.525 0-8.525 0-1.539.607-.81 4.933-.81 4.933-.096-.067-.19-.126-.28-.178-.276-.155-.528-.247-.743-.3.125 1.353.447 2.616.923 3.723z" transform="translate(15.6 13.2)"/>
            <path fill="#5067EB" fill-rule="nonzero" d="M7.34 8.943c.005.07.01.139.017.208.465 5.264 3.544 9.33 7.275 9.33 3.777 0 6.888-4.173 7.291-9.535.056-.385.085-.78.085-1.181s-.03-.796-.085-1.182C21.383 2.856 18.323 0 14.632 0 10.938 0 7.879 2.857 7.34 6.586c-.056.385-.085.778-.085 1.178 0 .163.007.324.016.485.013.234.035.466.068.694zm1.932.746s-.73-4.326.81-4.933c0 0 5.097 2.48 8.525 0 0 0 .199.315.454.786.563 1.035 1.401 2.827 1.01 3.697l1.034-1.187c-.004.315-.028.627-.072.93-.005.07-.013.138-.02.207-.377 4.17-2.621 7.478-5.466 8.07-.199.04-.401.07-.606.083-.103.007-.206.01-.31.01-.815 0-1.596-.22-2.314-.625-.45-.253-.874-.576-1.268-.962-.754-.74-1.395-1.705-1.878-2.83-.475-1.109-.798-2.37-.922-3.725.215.054.468.146.742.301.091.052.185.111.28.178z" transform="translate(15.6 13.2)"/>
            <path fill="#5067EB" fill-opacity="0" fill-rule="nonzero" stroke="#5067EB" stroke-width="1.241" d="M20.75 17.656c-.039 1.757-2.644 3.175-5.852 3.175s-5.812-1.418-5.851-3.175c-4.908.449-8.752 4.575-8.752 9.599 0 5.323 4.316 5.311 9.64 5.311l12.774-.033c.346-.126 5.877 0 5.848-5.278-.035-6.424-4.496-9.297-7.807-9.599z" transform="translate(15.6 13.2)"/>
        </g>
    </g>
</svg>
