<svg xmlns="http://www.w3.org/2000/svg" width="252" height="282" viewBox="0 0 252 282">
    <g fill="none" fill-rule="evenodd">
        <path fill="#EEEFEF" fill-rule="nonzero" d="M251.1 155.25c0 69.837-56.21 126.45-125.55 126.45S0 225.087 0 155.25C0 85.414 56.21 28.8 125.55 28.8S251.1 85.414 251.1 155.25"/>
        <path fill="#888" fill-rule="nonzero" d="M176.022 100.08c0-38.494-31.379-49.68-50.135-49.68-18.916 0-49.91 9.74-49.91 49.68 0 39.096-15.972 37.058-14.705 59.236C63.273 194.346 93.375 202.5 126 202.5c32.625 0 62.726-8.154 64.727-43.184 1.267-22.178-14.706-20.14-14.706-59.236"/>
        <path fill="#888" fill-rule="nonzero" d="M173.5 100.135c0-18.244-6.972-30.348-16.279-38.035 6.026 7.532 10.06 17.856 10.06 31.733 0 39.075 11.662 39.35 10.41 61.517-1.977 35.011-27.598 40.848-59.83 40.848-19.124 0-37.37-2.868-49.461-12.514 11.371 14.744 32.902 18.816 55.68 18.816 32.232 0 61.972-8.15 63.95-43.161 1.251-22.166-14.53-20.129-14.53-59.204"/>
        <path fill="#F7D599" fill-rule="nonzero" d="M166.5 108c0 24.853-18.334 45-40.95 45-22.616 0-40.95-20.147-40.95-45 0-24.852 18.334-45 40.95-45 22.616 0 40.95 20.147 40.95 45"/>
        <path fill="#EBCC93" fill-rule="nonzero" d="M135 169.015l-9.288 8.285-9.612-8.285V146.7H135v22.315"/>
        <path fill="#EBCC93" fill-rule="nonzero" d="M149.851 70.2l-33.562 18.835c5.057 23.772 39.158 31.263 39.158 31.263-7.07 15.272-22.06 25.49-36.392 25.49-9.202 0-17.697-3.328-24.555-8.948 7.547 9.359 18.544 15.26 30.796 15.26 22.757 0 41.204-20.337 41.204-45.424 0-14.942-6.547-28.198-16.649-36.476"/>
        <path fill="#888" fill-rule="nonzero" d="M220.5 262.716c0 2.521-1.957 4.584-4.347 4.584H34.947c-2.39 0-4.347-2.063-4.347-4.584v-.732c0-2.521 1.956-4.584 4.347-4.584h181.205c2.391 0 4.348 2.063 4.348 4.584v.732M155.345 74.02c-10.925-12.2-25.977-13.001-36.745-11.186-11.044 1.86-31.138 11.396-34 38.549 0 0 19.177.548 32.078-10.746 7.34 13.327 21.722 27.263 49.795 27.263 0 0 5.69-25.097-11.128-43.88"/>
        <path fill="#5067EB" fill-rule="nonzero" d="M170.756 174.781c-10.724-2.54-36.334-10.981-36.334-10.981l-8.335 15.533-7.708-15.533s-29.24 8.589-39.564 12.426c-9.348 3.475-15.072 46.483-18.464 67.596-.953 5.926 11.783 14.478 11.783 14.478h106.06s14.406-10.416 13.462-15.577c-3.879-21.198-7.016-64.653-20.9-67.942"/>
        <path fill="#FFF" fill-rule="nonzero" d="M115.52 157.5l-10.22 7.26s7.797 3.796 19.8 12.54l-9.58-19.8M135 157.5l9.9 7.26s-8.29 3.796-19.8 12.54l9.9-19.8"/>
        <path fill="#5067EB" fill-rule="nonzero" d="M78.307 104.4c-.025-.869-.473-21.442 13.16-35.414 7.955-8.153 19.057-12.286 32.997-12.286 25.422 0 37.467 12.984 43.095 23.876 6.071 11.75 6.141 23.31 6.141 23.796h-1.887c0-.114-.079-11.647-5.963-22.997-7.843-15.127-21.767-22.797-41.386-22.797-13.41 0-24.057 3.942-31.643 11.716-13.082 13.407-12.634 33.846-12.628 34.05l-1.886.056"/>
        <path fill="#B9C2F7" fill-rule="nonzero" d="M184.5 245.73c0 2.458-1.975 4.47-4.387 4.47H71.888c-2.413 0-4.388-2.012-4.388-4.47V185.37c0-2.46 1.975-4.471 4.388-4.471h108.225c2.412 0 4.387 2.012 4.387 4.471v60.359"/>
        <path fill="#D0D6FA" fill-rule="nonzero" d="M180.113 180.9h-4.18s-9.756 64.83-108.433 64.83c0 2.458 1.975 4.47 4.388 4.47h108.225c2.412 0 4.387-2.012 4.387-4.47V185.37c0-2.46-1.975-4.471-4.387-4.471"/>
        <path fill="#FFF" fill-rule="nonzero" d="M138.6 215.1c0 6.959-5.842 12.6-13.05 12.6-7.208 0-13.05-5.641-13.05-12.6s5.842-12.6 13.05-12.6c7.208 0 13.05 5.641 13.05 12.6"/>
        <path stroke="#5067EB" stroke-width="1.2" d="M133.2 215.1a7.201 7.201 0 0 1-14.4 0 7.2 7.2 0 0 1 14.4 0z"/>
        <path stroke="#5067EB" stroke-width="1.2" d="M126 220.5c-3.977 0-7.2-2.216-7.2-4.95 0-2.733 3.223-4.95 7.2-4.95 3.976 0 7.2 2.217 7.2 4.95 0 2.734-3.224 4.95-7.2 4.95z"/>
        <path stroke="#5067EB" stroke-width="1.2" d="M126 216.9c-3.977 0-7.2-.806-7.2-1.8s3.223-1.8 7.2-1.8c3.976 0 7.2.806 7.2 1.8s-3.224 1.8-7.2 1.8z"/>
        <path stroke="#5067EB" stroke-width="1.2" d="M120.6 215.1c0-3.977 2.217-7.2 4.95-7.2 2.734 0 4.95 3.223 4.95 7.2 0 3.976-2.216 7.2-4.95 7.2-2.733 0-4.95-3.224-4.95-7.2z"/>
        <path stroke="#5067EB" stroke-width="1.2" d="M123.3 215.1c0-3.977.806-7.2 1.8-7.2.995 0 1.8 3.223 1.8 7.2 0 3.976-.805 7.2-1.8 7.2-.994 0-1.8-3.224-1.8-7.2z"/>
        <path fill="#FFF" fill-rule="nonzero" d="M98.1 252.914c0 5.04-.9 1.44-2.008 1.44H79.409c-1.11 0-2.009 2.841-2.009-1.44v-2.793c0-1.448.9-2.621 2.009-2.621h16.683c1.109 0 2.008 1.173 2.008 2.621v2.793M172.8 254.41c0 1.44-.899 1.139-2.008 1.139h-16.684c-1.109 0-2.008.4-2.008-1.038v-4.406c0-1.44.9-2.605 2.008-2.605h16.684c1.11 0 2.008 1.165 2.008 2.605v4.306"/>
        <path fill="#B9C2F7" fill-rule="nonzero" d="M184.5 256.5c0 1.491-1.145 2.7-2.56 2.7H70.06c-1.414 0-2.56-1.209-2.56-2.7s1.146-2.7 2.56-2.7h111.88c1.415 0 2.56 1.209 2.56 2.7"/>
        <path fill="#5067EB" fill-rule="nonzero" d="M113.4 146.7c-14.018 0-24.172-3.52-30.179-10.464-7.322-8.462-5.69-18.8-5.616-19.236l1.875.302c-.016.098-1.552 9.956 5.206 17.748 5.632 6.494 15.293 9.786 28.714 9.786v1.864"/>
        <path fill="#7385EF" fill-rule="nonzero" d="M82.8 118.8c-6.959 0-12.6-5.34-12.6-11.929v-1.343c0-6.588 5.641-11.928 12.6-11.928"/>
        <path fill="#5067EB" fill-rule="nonzero" d="M85.5 118.809a2.696 2.696 0 0 1-2.7 2.691c-1.49 0-2.7-1.205-2.7-2.691V91.79a2.696 2.696 0 0 1 2.7-2.691c1.49 0 2.7 1.205 2.7 2.691v27.018"/>
        <path fill="#7385EF" fill-rule="nonzero" d="M167.4 93.6c6.958 0 12.6 5.34 12.6 11.928v1.343c0 6.588-5.642 11.929-12.6 11.929"/>
        <path fill="#7385EF" fill-rule="nonzero" d="M173.382 95.4c1.746 2.093 2.798 4.754 2.798 7.654v1.372c0 5.446-3.69 10.054-8.78 11.62v3.654c6.958 0 12.6-5.46 12.6-12.194v-1.373c0-4.639-2.678-8.671-6.618-10.733"/>
        <path fill="#5067EB" fill-rule="nonzero" d="M165.6 91.791a2.696 2.696 0 0 1 2.7-2.691c1.49 0 2.7 1.205 2.7 2.691v27.018a2.696 2.696 0 0 1-2.7 2.691 2.696 2.696 0 0 1-2.7-2.691V91.79M120.6 144.9a5.4 5.4 0 1 1-10.8 0 5.4 5.4 0 0 1 10.8 0"/>
        <path fill="#B9C2F7" fill-rule="nonzero" d="M206.922 32c-23.516 0-42.58 19.097-42.58 42.655 0 6.487 1.453 12.63 4.038 18.135L155 118.4l25.57-10.254c7.249 5.733 16.398 9.164 26.352 9.164 23.515 0 42.578-19.097 42.578-42.655S230.437 32 206.922 32"/>
        <path fill="#D0D6FA" fill-rule="nonzero" d="M241.934 46.8a42.676 42.676 0 0 1 1.792 12.247c0 23.55-19.064 42.642-42.578 42.642-9.954 0-19.103-3.43-26.353-9.162L153 111.6l25.57-10.251c7.249 5.731 16.398 9.162 26.352 9.162 23.515 0 42.578-19.092 42.578-42.643 0-7.666-2.03-14.852-5.566-21.068"/>
        <text fill="#5067EB" font-family="Montserrat-Black, Montserrat" font-size="83.661" font-weight="700">
            <tspan x="191.7" y="81">?</tspan>
        </text>
    </g>
</svg>
