<?xml version="1.0" encoding="UTF-8"?>
<svg width="100px" height="100px" viewBox="0 0 100 100" version="1.1" xmlns="http://www.w3.org/2000/svg" xmlns:xlink="http://www.w3.org/1999/xlink">
    <!-- Generator: Sketch 59.1 (86144) - https://sketch.com -->
    <title>unfavorite_icon</title>
    <desc>Created with Sketch.</desc>
    <g id="01.-Planner" stroke="none" stroke-width="1" fill="none" fill-rule="evenodd">
        <g id="7.6-delete-favorite" transform="translate(-208.000000, -81.000000)">
            <g id="unfavorite_icon" transform="translate(208.000000, 81.000000)">
                <circle id="Oval" fill="#F0F4FF" cx="50" cy="50" r="50"></circle>
                <g id="ic/unfavorite" transform="translate(29.000000, 31.000000)" fill="#5067EB">
                    <g id="RemoveUser">
                        <path d="M29.1160172,0.000530466787 C26.1329602,0.0114019242 23.2478918,1.06269354 20.9616119,2.97191862 C15.7011642,-1.34590475 7.96897349,-0.805323852 3.36523004,4.20213504 C-1.23851341,9.20959393 -1.10271418,16.9315538 3.67427247,21.7752343 L20.9616119,39 L38.2722496,21.7752343 C40.6600824,19.3718895 42,16.1268057 42,12.745 C42.0063432,9.34688416 40.6479676,6.08747635 38.2276662,3.69337893 C35.8073649,1.2992815 32.5263416,-0.0304802126 29.1160172,0.000530466787 Z" id="Path" fill-rule="nonzero"></path>
                        <path d="M33,19 C35.6725589,19 38.1809764,20.0395623 40.0707071,21.9292929 C41.9604377,23.8190236 43,26.3274411 43,29 C43,31.6725589 41.9604377,34.1809764 40.0707071,36.0707071 C38.1809764,37.9604377 35.6725589,39 33,39 C30.3274411,39 27.8190236,37.9604377 25.9292929,36.0707071 C24.0395623,34.1809764 23,31.6725589 23,29 C23,26.3274411 24.0395623,23.8190236 25.9292929,21.9292929 C27.8190236,20.0395623 30.3274411,19 33,19 Z M29.1463078,25.146291 C28.9512307,25.3413456 28.9512307,25.6541691 29.1463078,25.8492237 L32.2969864,28.99954 L29.1463078,32.1498562 C28.9512307,32.3449109 28.9512307,32.6577343 29.1463078,32.852789 C29.242006,32.9484761 29.3708305,33 29.4959742,33 C29.621118,33 29.7499425,32.9521564 29.8456407,32.852789 L32.9963193,29.7024727 L36.1469979,32.852789 C36.2426961,32.9484761 36.3715206,33 36.4966644,33 C36.6254888,33 36.7506326,32.9521564 36.8463308,32.852789 C37.0414079,32.6577343 37.0414079,32.3449109 36.8463308,32.1498562 L33.7030136,28.99954 L36.8536922,25.8492237 C37.0487693,25.6541691 37.0487693,25.3413456 36.8536922,25.146291 C36.6586151,24.9512363 36.3457557,24.9512363 36.1506786,25.146291 L33,28.2966072 L29.8493214,25.146291 C29.6542443,24.9512363 29.3413849,24.9512363 29.1463078,25.146291 Z" id="CombinedShape" stroke="#F0F4FF" fill-rule="nonzero"></path>
                    </g>
                </g>
            </g>
        </g>
    </g>
</svg>