<svg xmlns="http://www.w3.org/2000/svg" width="56" height="56" viewBox="0 0 56 56">
    <g fill="none" fill-rule="evenodd">
        <circle cx="28" cy="28" r="28" fill="#EFF4FF"/>
        <path fill="#5067EB" fill-rule="nonzero" stroke="#5067EB" stroke-width=".3" d="M34.25 15c.322 0 .583.26.583.583v1.75h3.5a2.336 2.336 0 0 1 2.334 2.334v11.97A6.406 6.406 0 0 1 43 36.584 6.424 6.424 0 0 1 36.583 43a6.407 6.407 0 0 1-4.945-2.333H17.333A2.336 2.336 0 0 1 15 38.333V19.667a2.336 2.336 0 0 1 2.333-2.334H22v-1.75a.583.583 0 1 1 1.167 0v1.75h10.5v-1.75c0-.322.26-.583.583-.583zm2.333 16.333a5.256 5.256 0 0 0-5.25 5.25 5.256 5.256 0 0 0 5.25 5.25 5.256 5.256 0 0 0 5.25-5.25 5.256 5.256 0 0 0-5.25-5.25zm2.917-7H16.167v14c0 .643.523 1.167 1.166 1.167h13.542a6.37 6.37 0 0 1-.708-2.917 6.424 6.424 0 0 1 6.416-6.416c1.051 0 2.04.258 2.917.708v-6.542zM36.583 32.5c.323 0 .584.26.584.583v3.259l1.579 1.579a.583.583 0 1 1-.825.825l-1.75-1.75a.583.583 0 0 1-.171-.413v-3.5c0-.322.26-.583.583-.583zM22 18.5h-4.667c-.643 0-1.166.524-1.166 1.167v3.5H39.5v-3.5c0-.643-.523-1.167-1.167-1.167h-3.5v2.333a1.168 1.168 0 0 1-2.333 0c0-.643.523-1.166 1.167-1.166V18.5h-10.5v2.333a1.168 1.168 0 0 1-2.334 0c0-.643.523-1.166 1.167-1.166V18.5z"/>
    </g>
</svg>
