<svg xmlns="http://www.w3.org/2000/svg" width="100" height="100" viewBox="0 0 100 100">
    <g fill="none" fill-rule="evenodd">
        <circle cx="50" cy="50" r="50" fill="#F0F4FF"/>
        <path fill="#5067EB" fill-rule="nonzero" d="M47.869 26c6.886 0 12.49 5.651 12.49 12.598 0 4.665-2.53 8.743-6.277 10.92a18.88 18.88 0 0 1 5.201 2.775 10.137 10.137 0 0 1 4.443-1.02C69.39 51.273 74 55.923 74 61.637S69.391 72 63.726 72C58.06 72 53.45 67.351 53.45 61.637A10.38 10.38 0 0 1 56.9 53.9a16.044 16.044 0 0 0-8.92-2.704c-8.99 0-16.304 7.409-16.304 16.516H29c0-8.383 5.331-15.524 12.74-18.143a12.622 12.622 0 0 1-6.362-10.97C35.378 31.65 40.982 26 47.868 26zm15.857 27.972c-4.19 0-7.6 3.44-7.6 7.665s3.41 7.663 7.6 7.663c4.19 0 7.598-3.438 7.598-7.663 0-4.226-3.409-7.665-7.598-7.665zm1.338 2.713v5.293l3.03 3.055-1.893 1.909-3.814-3.847v-6.41h2.677zM47.869 28.699c-5.412 0-9.814 4.44-9.814 9.898 0 5.458 4.402 9.898 9.814 9.898 5.41 0 9.813-4.44 9.813-9.898 0-5.458-4.403-9.898-9.813-9.898z"/>
    </g>
</svg>
