<svg xmlns="http://www.w3.org/2000/svg" width="100" height="100" viewBox="0 0 100 100">
    <g fill="none" fill-rule="evenodd">
        <circle cx="50" cy="50" r="50" fill="#F0F4FF"/>
        <path fill="#5067EB" fill-rule="nonzero" d="M64.886 40.857v-3.254L57.284 30h-22.17v10.818L30 44.606V70h40V44.602l-5.114-3.745zm0 2.905l1.967 1.44-1.967 1.457v-2.897zm-6.916-9.761l2.915 2.915H57.97v-2.915zm-20.513-1.657h18.17v6.916h6.916v9.135L50 57.685l-12.543-9.29V32.344zm-2.343 11.39v2.925l-1.975-1.462 1.975-1.462zm-2.77 3.79l11.069 8.2-11.07 10.396V47.524zm1.787 20.132l11.196-10.515L50 60.602l5.018-3.717 10.948 10.771H34.131zm33.525-1.625L56.925 55.473l10.731-7.949v18.507z"/>
    </g>
</svg>
