<?xml version="1.0" encoding="UTF-8"?>
<svg width="16px" height="16px" viewBox="0 0 16 16" version="1.1" xmlns="http://www.w3.org/2000/svg" xmlns:xlink="http://www.w3.org/1999/xlink">
    <!-- Generator: Sketch 59.1 (86144) - https://sketch.com -->
    <title>alert-confirm</title>
    <desc>Created with Sketch.</desc>
    <g id="Page-1" stroke="none" stroke-width="1" fill="none" fill-rule="evenodd">
        <g id="alert-confirm" fill="#FFFFFF" fill-rule="nonzero">
            <path d="M8,0 C12.418278,0 16,3.581722 16,8 C16,12.418278 12.418278,16 8,16 C3.581722,16 0,12.418278 0,8 C0,3.581722 3.581722,0 8,0 Z M12.5,4.00019865 C12.3645357,4.00019865 12.2356012,4.05840179 12.146,4.16 L6.156,10.685 L3.854,8.177 C3.7643988,8.07540179 3.63546428,8.01719865 3.5,8.01719865 C3.36453572,8.01719865 3.2356012,8.07540179 3.146,8.177 C2.95105523,8.39665031 2.95105523,8.72734969 3.146,8.947 L5.803,11.841 C5.89258912,11.9422574 6.02129911,12.0002353 6.1565,12.0002353 C6.29170089,12.0002353 6.42041088,11.9422574 6.51,11.841 L12.854,4.93 C13.0489448,4.71034969 13.0489448,4.37965031 12.854,4.16 L12.854,4.16 C12.7643988,4.05840179 12.6354643,4.00019865 12.5,4.00019865 Z" id="Combined-Shape"></path>
        </g>
    </g>
</svg>