<svg xmlns="http://www.w3.org/2000/svg" width="100" height="100" viewBox="0 0 100 100">
    <g fill="none" fill-rule="evenodd">
        <circle cx="50" cy="50" r="50" fill="#F0F4FF"/>
        <path fill="#5067EB" fill-rule="nonzero" d="M61.223 31.087c.526 0 .952.426.952.952v1.313h1.358c1.279 0 2.432.709 3.01 1.85l7.142 14.122-.015.008c.306.504.482 1.095.482 1.726v14.92a3.34 3.34 0 0 1-3.336 3.336h-42.48A3.34 3.34 0 0 1 25 65.977V51.058c0-.631.176-1.222.482-1.726l-.015-.008 7.143-14.122a3.356 3.356 0 0 1 3.01-1.85h1.357v-1.313c0-.526.426-.952.952-.952zM39.558 49.839H28.336a1.22 1.22 0 0 0-1.22 1.22v14.918c0 .673.548 1.22 1.22 1.22h42.48a1.22 1.22 0 0 0 1.22-1.22V51.058a1.22 1.22 0 0 0-1.22-1.22H59.594a.08.08 0 0 0-.074.048l-1.372 3.044a2.2 2.2 0 0 1-2.003 1.295H43.007a2.2 2.2 0 0 1-2.003-1.295l-1.372-3.044a.08.08 0 0 0-.074-.047zm15.438 7.727c.817 0 1.482.665 1.482 1.482v3.325c0 .817-.665 1.482-1.482 1.482h-10.84a1.483 1.483 0 0 1-1.482-1.482v-3.325c0-.817.665-1.482 1.482-1.482zm-.423 1.906h-9.994v2.478h9.994v-2.478zM64.62 45.116H34.532v2.606h5.026a2.2 2.2 0 0 1 2.004 1.294l1.372 3.044a.08.08 0 0 0 .073.048h13.138a.08.08 0 0 0 .073-.048l1.373-3.044a2.2 2.2 0 0 1 2.003-1.294h5.026v-2.606zm-1.087-9.647h-1.358v1.68h1.267c.526 0 .952.426.952.953v5.11h1.179c.526 0 .952.426.952.952v3.558h3.977l-5.849-11.564a1.25 1.25 0 0 0-1.12-.69zm-26.556 0h-1.358a1.25 1.25 0 0 0-1.12.689l-5.85 11.564h3.978v-3.558c0-.526.426-.953.952-.953h1.179v-5.11c0-.526.426-.952.952-.952h1.267v-1.68zm25.512 3.585H36.663v4.157h25.826v-4.157zm-2.219-6.062H38.882v4.157H60.27v-4.157z"/>
    </g>
</svg>
