<svg xmlns="http://www.w3.org/2000/svg" width="56" height="56" viewBox="0 0 56 56">
    <g fill="none" fill-rule="evenodd">
        <circle cx="28" cy="28" r="28" fill="#EFF4FF"/>
        <path fill="#5067EB" fill-rule="nonzero" stroke="#5067EB" stroke-width=".4" d="M39.348 21.058c.915 0 1.66.745 1.66 1.66h0v19.67h1.355c.341 0 .618.277.618.618 0 .341-.277.618-.618.618h0-28.708c-.341 0-.618-.277-.618-.618 0-.341.277-.618.618-.618h1.428v-5.571c0-.916.744-1.66 1.66-1.66h3.028c.915 0 1.66.744 1.66 1.66h0v5.571h3.44V31.63c0-.915.745-1.66 1.66-1.66h3.028c.916 0 1.66.745 1.66 1.66h0v10.758h3.44v-19.67c0-.915.745-1.66 1.66-1.66h0zM19.77 36.392h-3.028c-.235 0-.425.19-.425.425h0v5.571h3.878v-5.571c0-.235-.19-.425-.425-.425h0zm9.788-5.187h-3.028c-.234 0-.425.191-.425.425h0v10.758h3.878V31.63c0-.234-.19-.425-.425-.425h0zm9.789-8.912H36.32c-.235 0-.425.191-.425.425h0v19.67h3.878v-19.67c0-.234-.19-.425-.425-.425h0zm-22.48 7.823c.342 0 .619.277.619.618 0 .341-.277.617-.618.617-.341 0-.618-.276-.618-.617 0-.341.277-.618.618-.618zm23.476-18.115h.015c.168-.008.34.051.468.18.13.129.188.3.18.469h0l.001.03v3.517c0 .341-.276.618-.617.618-.342 0-.618-.277-.618-.618h0V14.11L33.23 20.65c-.241.242-.632.242-.873 0h0l-2.303-2.302-10.666 10.666c-.121.121-.28.181-.437.181-.158 0-.316-.06-.437-.18-.241-.242-.241-.633 0-.874h0L29.617 17.04c.116-.116.273-.181.437-.181.164 0 .321.065.437.18h0l2.302 2.303 6.106-6.106h-2.307c-.341 0-.618-.276-.618-.617 0-.341.277-.618.618-.618h3.752z"/>
    </g>
</svg>
