<svg xmlns="http://www.w3.org/2000/svg" width="34" height="34" viewBox="0 0 34 34">
    <path fill="#D7E0F8" fill-rule="nonzero" d="M7.903 7.741c.256 4.832 4.268 8.684 9.162 8.684 4.892 0 8.902-3.849 9.162-8.678L34 11.51v7.702h-2.39v9.174H34V34H0v-5.614h2.376v-9.174H0v-7.706zM21.9 19.212h-9.814v9.174h2.073V21.98h5.682v6.406H21.9v-9.174zm-13.547 0H6.109v9.174h2.244v-9.174zm19.523 0h-2.243v9.174h2.243v-9.174zM17.066 0c3.996 0 7.249 3.252 7.249 7.25 0 3.997-3.253 7.25-7.25 7.25s-7.25-3.253-7.25-7.25c0-3.998 3.253-7.25 7.25-7.25zm1.059 2.838h-1.992v1.078a2.195 2.195 0 0 0-1.325 2.013c0 1.21.983 2.193 2.192 2.193h.258a.2.2 0 0 1 0 .4H17a.2.2 0 0 1-.2-.2h-1.992c0 .9.546 1.676 1.325 2.012v1.078h1.992v-1.078a2.195 2.195 0 0 0 1.325-2.013 2.195 2.195 0 0 0-2.192-2.192H17a.2.2 0 0 1 0-.4h.258c.11 0 .2.09.2.2h1.992c0-.9-.547-1.676-1.325-2.013V2.838z"/>
</svg>
