<svg xmlns="http://www.w3.org/2000/svg" width="21" height="20" viewBox="0 0 21 20">
    <g fill="none" fill-rule="evenodd">
        <path fill="#FFF" d="M1.622 3.356h17.756v15.333H1.622z"/>
        <path fill="#5067EB" fill-rule="nonzero" d="M15.618.289c.461 0 .835.366.835.818v.817h.836c1.846 0 3.342 1.465 3.342 3.272v11.448c0 1.807-1.496 3.272-3.342 3.272H3.92c-1.846 0-3.342-1.465-3.342-3.272V5.196c0-1.807 1.496-3.272 3.342-3.272h.836v-.817c0-.452.374-.818.835-.818.462 0 .836.366.836.818v.817h3.342v-.817c0-.452.374-.818.835-.818.462 0 .836.366.836.818v.817h3.342v-.817c0-.452.374-.818.836-.818zm3.342 8.178H2.249v8.177c0 .904.748 1.636 1.671 1.636h13.369c.923 0 1.671-.732 1.671-1.636V8.467zM5.591 14.19c.462 0 .836.366.836.818a.827.827 0 0 1-.836.818.827.827 0 0 1-.835-.818c0-.452.374-.818.835-.818zm3.342 0c.462 0 .836.366.836.818a.827.827 0 0 1-.836.818.827.827 0 0 1-.835-.818c0-.452.374-.818.835-.818zm3.343 0c.461 0 .835.366.835.818a.827.827 0 0 1-.835.818.827.827 0 0 1-.836-.818c0-.452.374-.818.836-.818zm3.342 0c.461 0 .835.366.835.818a.827.827 0 0 1-.835.818.827.827 0 0 1-.836-.818c0-.452.374-.818.836-.818zM5.59 10.92c.462 0 .836.366.836.818a.827.827 0 0 1-.836.818.827.827 0 0 1-.835-.818c0-.452.374-.818.835-.818zm3.342 0c.462 0 .836.366.836.818a.827.827 0 0 1-.836.818.827.827 0 0 1-.835-.818c0-.452.374-.818.835-.818zm3.343 0c.461 0 .835.366.835.818a.827.827 0 0 1-.835.818.827.827 0 0 1-.836-.818c0-.452.374-.818.836-.818zm3.342 0c.461 0 .835.366.835.818a.827.827 0 0 1-.835.818.827.827 0 0 1-.836-.818c0-.452.374-.818.836-.818zM4.756 3.56H3.92c-.923 0-1.671.732-1.671 1.636V6.83H18.96V5.196c0-.904-.748-1.636-1.671-1.636h-.836v.818a.827.827 0 0 1-.835.818.827.827 0 0 1-.836-.818V3.56H11.44v.818a.827.827 0 0 1-.836.818.827.827 0 0 1-.835-.818V3.56H6.427v.818a.827.827 0 0 1-.836.818.827.827 0 0 1-.835-.818V3.56z"/>
    </g>
</svg>
