<svg xmlns="http://www.w3.org/2000/svg" width="100" height="100" viewBox="0 0 100 100">
    <g fill="none" fill-rule="evenodd">
        <circle cx="50" cy="50" r="50" fill="#F0F4FF"/>
        <path fill="#5067EB" fill-rule="nonzero" stroke="#5067EB" stroke-width=".5" d="M44.438 64.75c2.865 0 5.288 2.314 5.288 5.288 0 2.975-2.313 5.288-5.288 5.288-2.974 0-5.287-2.313-5.287-5.288 0-2.974 2.423-5.287 5.287-5.287zm17.075 0c2.864 0 5.288 2.314 5.288 5.288 0 2.975-2.313 5.288-5.288 5.288-2.974 0-5.287-2.313-5.287-5.288 0-2.974 2.423-5.287 5.287-5.287zm-17.075 2.094c-1.762 0-3.084 1.322-3.084 3.084a3.08 3.08 0 0 0 3.084 3.085 3.08 3.08 0 0 0 3.085-3.085c0-1.762-1.322-3.084-3.085-3.084zm17.075 0c-1.762 0-3.084 1.322-3.084 3.084a3.08 3.08 0 0 0 3.084 3.085 3.08 3.08 0 0 0 3.085-3.085c0-1.762-1.322-3.084-3.085-3.084zM31.11 35.779l4.076 9.914H72.86l-6.39 16.524H39.591l-9.914-24.235H18.33v-2.203H31.11zm35.692 19.278H39.04l1.982 4.957h23.905l1.873-4.957zm2.754-7.16H36.176l1.983 4.956h29.523l1.873-4.957zM53.582 23.66a9.873 9.873 0 0 1 9.914 9.914 9.873 9.873 0 0 1-9.914 9.915 9.873 9.873 0 0 1-9.915-9.915 9.873 9.873 0 0 1 9.915-9.914zm0 2.203a7.664 7.664 0 0 0-7.712 7.711 7.664 7.664 0 0 0 7.712 7.712 7.664 7.664 0 0 0 7.71-7.712 7.664 7.664 0 0 0-7.71-7.71zm3.084 3.085l1.542 1.542-3.084 3.084 3.084 3.195-1.542 1.542-3.084-3.194-3.195 3.194-1.542-1.542 3.194-3.195-3.194-3.084 1.542-1.542 3.195 3.084 3.084-3.084z"/>
    </g>
</svg>
