<svg xmlns="http://www.w3.org/2000/svg" width="50" height="50" viewBox="0 0 50 50">
    <g fill="none" fill-rule="evenodd">
        <circle cx="25" cy="25" r="25" fill="#EFF4FF"/>
        <path fill="#5067EB" fill-rule="nonzero" d="M20.35 28.788h13.213a2.726 2.726 0 0 0 2.72-2.72v-5.56-.019-.04c0-.01 0-.019-.004-.029 0-.01-.005-.024-.005-.034 0-.01-.005-.02-.005-.03-.005-.01-.005-.02-.01-.034-.005-.01-.005-.02-.01-.03-.005-.01-.005-.02-.01-.03-.005-.01-.01-.02-.015-.034a4072.97 4072.97 0 0 1-.03-.054c-.004-.01-.01-.015-.014-.025-.005-.01-.015-.02-.02-.03a.087.087 0 0 0-.02-.024c-.004-.01-.014-.015-.02-.025-.004-.01-.014-.014-.019-.024-.005-.01-.015-.015-.02-.02l-.024-.025c-.01-.005-.015-.014-.025-.02-.01-.004-.02-.014-.03-.02-.01-.004-.014-.009-.024-.014-.01-.005-.02-.01-.03-.02a4072.97 4072.97 0 0 1-.088-.044c-.01-.005-.02-.005-.03-.01a.091.091 0 0 0-.034-.01c-.01 0-.02-.005-.025-.005-.015-.005-.025-.005-.04-.005-.004 0-.01-.004-.02-.004l-16.745-2.312v-2.336c0-.024 0-.049-.005-.069 0-.005 0-.01-.005-.02 0-.014-.005-.029-.005-.044-.005-.015-.005-.024-.01-.04 0-.009-.005-.014-.005-.024l-.014-.044c0-.005-.005-.015-.005-.02a.148.148 0 0 0-.02-.04c-.005-.004-.005-.014-.01-.019-.005-.01-.01-.02-.02-.03-.004-.01-.01-.014-.014-.024l-.015-.025c-.005-.01-.015-.02-.02-.03l-.015-.014-.03-.03-.014-.015c-.01-.01-.02-.02-.034-.03-.005-.004-.015-.009-.02-.014-.01-.01-.02-.015-.03-.025a.455.455 0 0 0-.04-.024c-.004-.005-.009-.005-.014-.01l-.064-.03-3.632-1.527a.664.664 0 0 0-.872.354c-.143.34.014.73.354.873l3.223 1.36v14.578A2.723 2.723 0 0 0 20 32.912a2.688 2.688 0 0 0-.383 1.38 2.689 2.689 0 0 0 2.685 2.686 2.692 2.692 0 0 0 2.686-2.686c0-.493-.133-.961-.37-1.355h5.983c-.236.399-.37.862-.37 1.355a2.689 2.689 0 0 0 2.687 2.686 2.692 2.692 0 0 0 2.685-2.686 2.692 2.692 0 0 0-2.685-2.686H20.35c-.769 0-1.39-.626-1.39-1.39v-1.803c.404.236.882.374 1.39.374zm3.313 5.5c0 .75-.612 1.355-1.356 1.355a1.36 1.36 0 0 1-1.355-1.355 1.36 1.36 0 0 1 1.355-1.355c.744 0 1.356.606 1.356 1.355zm10.615 0c0 .75-.611 1.355-1.356 1.355a1.36 1.36 0 0 1-1.355-1.355 1.36 1.36 0 0 1 1.355-1.355c.745 0 1.356.606 1.356 1.355zm-.715-6.83H20.351c-.769 0-1.39-.626-1.39-1.39V18.878l15.992 2.203v4.982c0 .774-.626 1.395-1.39 1.395z"/>
    </g>
</svg>
