<?xml version="1.0" encoding="UTF-8"?>
<svg width="15px" height="12px" viewBox="0 0 15 12" version="1.1" xmlns="http://www.w3.org/2000/svg" xmlns:xlink="http://www.w3.org/1999/xlink">
    <!-- Generator: sketchtool 59.1 (101010) - https://sketch.com -->
    <title>F3E6FA94-00C4-457C-9B0A-D87FDDCA3568</title>
    <desc>Created with sketchtool.</desc>
    <g id="04.-Static-Pages" stroke="none" stroke-width="1" fill="none" fill-rule="evenodd">
        <g id="About" transform="translate(-340.000000, -1030.000000)" fill="#5067EB" fill-rule="nonzero">
            <g id="Group-2-Copy" transform="translate(340.000000, 975.000000)">
                <g id="right-arrow" transform="translate(0.000000, 55.000000)">
                    <path d="M14.1699512,5.44056585 L8.96956098,0.240058537 C8.8211122,0.0916097561 8.62325854,0.0101268293 8.41229268,0.0101268293 C8.20109268,0.0101268293 8.0033561,0.0917268293 7.85490732,0.240058537 L7.38275122,0.712331707 C7.23441951,0.860546341 7.15270244,1.05851707 7.15270244,1.2696 C7.15270244,1.48056585 7.23441951,1.68520976 7.38275122,1.83342439 L10.4165854,4.87393171 L0.77795122,4.87393171 C0.34337561,4.87393171 0,5.21414634 0,5.64883902 L0,6.31650732 C0,6.7512 0.34337561,7.12571707 0.77795122,7.12571707 L10.4510049,7.12571707 L7.38286829,10.1832 C7.23453659,10.3316488 7.15281951,10.5242341 7.15281951,10.7353171 C7.15281951,10.9461659 7.23453659,11.141561 7.38286829,11.2898927 L7.85502439,11.7606439 C8.00347317,11.9090927 8.20120976,11.9899902 8.41240976,11.9899902 C8.62337561,11.9899902 8.82122927,11.908039 8.96967805,11.7595902 L14.1700683,6.5592 C14.3188683,6.41028293 14.4007024,6.21149268 14.4001202,6.00017561 C14.4005854,5.7881561 14.3188683,5.58924878 14.1699512,5.44056585 Z" id="Path"></path>
                </g>
            </g>
        </g>
    </g>
</svg>