<svg xmlns="http://www.w3.org/2000/svg" width="100" height="100" viewBox="0 0 100 100">
    <g fill="none" fill-rule="evenodd">
        <circle cx="50" cy="50" r="50" fill="#F0F4FF"/>
        <path fill="#5067EB" fill-rule="nonzero" d="M50 30c5.859 0 10.625 4.766 10.625 10.625 0 3.473-1.675 6.561-4.259 8.501a20.234 20.234 0 0 1 5.483 2.796 1.563 1.563 0 1 1-1.823 2.537 17.066 17.066 0 0 0-9.609-3.217 10.725 10.725 0 0 1-.831 0c-7.934.192-14.804 5.881-16.425 13.67-.102.487.02.986.33 1.369.181.222.584.594 1.25.594H50.86a1.562 1.562 0 1 1 0 3.125H34.742a4.717 4.717 0 0 1-3.675-1.748 4.745 4.745 0 0 1-.966-3.977 20.385 20.385 0 0 1 6.995-11.542 20.305 20.305 0 0 1 6.547-3.6 10.616 10.616 0 0 1-4.268-8.508C39.375 34.766 44.141 30 50 30zm17.333 27.176a1.562 1.562 0 1 1 2.21 2.21l-3.974 3.973 3.973 3.974a1.562 1.562 0 1 1-2.21 2.21l-3.973-3.974-3.973 3.973a1.557 1.557 0 0 1-1.105.458 1.562 1.562 0 0 1-1.105-2.667l3.974-3.974-3.974-3.973a1.563 1.563 0 0 1 2.21-2.21l3.973 3.974zM50 33.125c-4.136 0-7.5 3.364-7.5 7.5 0 4.009 3.161 7.293 7.122 7.49a20.325 20.325 0 0 1 .758 0c3.96-.198 7.12-3.482 7.12-7.49 0-4.136-3.364-7.5-7.5-7.5z"/>
    </g>
</svg>
