<svg xmlns="http://www.w3.org/2000/svg" width="20" height="20" viewBox="0 0 20 20">
    <path fill="#5067EB" fill-rule="nonzero" d="M11.538 0v20L0 17.778V2.222L11.538 0zm7.817 2.308c.355 0 .645.3.645.669v14.046c0 .369-.29.67-.645.67h-7.047v-2.308h2.307v-1.539h-2.307v-1.538h2.307v-1.539h-2.307V9.231h2.307V7.692h-2.307V6.165h2.331V4.603h-2.331V2.308zm-.893 11.538h-3.077v1.539h3.077v-1.539zm-9.148-7.73H7.358L6.12 8.43c-.12.3-.2.527-.245.68h-.021a4.081 4.081 0 0 0-.234-.658L4.506 6.116H2.371l2.271 3.896-2.483 3.896h2.092l1.347-2.516a3.95 3.95 0 0 0 .18-.544h.02c.055.254.107.427.158.522l1.342 2.538 2.081-.001-2.401-3.929 2.336-3.863zm9.148 4.653h-3.077v1.539h3.077v-1.539zm0-3.077h-3.077v1.539h3.077V7.692zm0-3.077h-3.077v1.539h3.077V4.615z"/>
</svg>
