<?xml version="1.0" encoding="UTF-8"?>
<svg width="26px" height="26px" viewBox="0 0 26 26" version="1.1" xmlns="http://www.w3.org/2000/svg" xmlns:xlink="http://www.w3.org/1999/xlink">
    <!-- Generator: sketchtool 59.1 (101010) - https://sketch.com -->
    <title>A548B9CA-AD9B-4C51-8B9C-EB770ACB7160</title>
    <desc>Created with sketchtool.</desc>
    <g id="04.-Static-Pages" stroke="none" stroke-width="1" fill="none" fill-rule="evenodd">
        <g id="Event-Box---FAQs" transform="translate(-1374.000000, -602.000000)">
            <g id="Group-2" transform="translate(340.000000, 299.000000)">
                <g id="list/faq" transform="translate(0.000000, 278.000000)">
                    <g id="Group-2-Copy">
                        <g id="icons/down_arrow" transform="translate(1034.000000, 25.000000)">
                            <g id="down-arrow" transform="translate(13.000000, 13.000000) scale(1, -1) translate(-13.000000, -13.000000) ">
                                <rect id="Rectangle" fill-opacity="0" fill="#FFFFFF" x="0" y="0" width="26" height="26"></rect>
                                <path d="M22.667694,7.24327241 C22.3433307,6.9189092 21.8190064,6.9189092 21.4946432,7.24327241 L12.9554637,15.782413 L4.41632316,7.24327241 C4.09195995,6.9189092 3.56763562,6.9189092 3.24327241,7.24327241 C2.9189092,7.56763562 2.9189092,8.09195995 3.24327241,8.41632316 L12.3689578,17.5420086 C12.5307311,17.7037818 12.7430974,17.7850962 12.9555026,17.7850962 C13.1679078,17.7850962 13.3802742,17.7037818 13.5420474,17.5420086 L22.6677328,8.41632316 C22.9920572,8.09195995 22.9920572,7.56763562 22.667694,7.24327241 Z" id="Path" fill="#5067EB" fill-rule="nonzero" transform="translate(12.955486, 12.392548) scale(1, -1) translate(-12.955486, -12.392548) "></path>
                            </g>
                        </g>
                    </g>
                </g>
            </g>
        </g>
    </g>
</svg>