<svg xmlns="http://www.w3.org/2000/svg" width="26" height="26" viewBox="0 0 26 26">
    <path fill="#D7E0F8" stroke="#D7E0F8" stroke-width=".3" d="M19.75 14.5c2.85 0 5.25 2.4 5.25 5.25S22.6 25 19.75 25s-5.25-2.4-5.25-5.25 2.4-5.25 5.25-5.25zm3.3-11.55c.6.6.6 1.5 0 2.1l-14.7 14.7-2.1 2.1-1.2 1.2c-.6.6-1.5.6-2.1 0-.563-.563-.598-1.389-.105-1.984l.105-.116h0l3.3-3.3 14.7-14.7c.6-.6 1.5-.6 2.1 0zm-3.3 14.55c-1.2 0-2.25 1.05-2.25 2.25S18.55 22 19.75 22 22 20.95 22 19.75s-1.05-2.25-2.25-2.25zM6.25 1C9.1 1 11.5 3.4 11.5 6.25S9.1 11.5 6.25 11.5 1 9.1 1 6.25 3.4 1 6.25 1zm0 3C5.05 4 4 5.05 4 6.25S5.05 8.5 6.25 8.5 8.5 7.45 8.5 6.25 7.45 4 6.25 4z"/>
</svg>
