<svg xmlns="http://www.w3.org/2000/svg" width="23" height="22" viewBox="0 0 23 22">
    <path fill="#5067EB" stroke="#EFF4FF" stroke-width=".2" d="M17.84 1c.397 0 .718.321.718.717h0v4.15h2.281c.923 0 1.674.751 1.674 1.674h0v7.214c0 .923-.751 1.673-1.674 1.673h0-2.281v3.85a.717.717 0 01-.717.717h0H5.672a.717.717 0 01-.717-.718h0v-3.849H2.673c-.922 0-1.673-.75-1.673-1.673h0V7.54c0-.923.75-1.674 1.673-1.674h2.282v-4.15c0-.396.32-.717.717-.717h0zm-.717 12.694H6.39h0v5.866h10.734v-5.866zm-2.26 3.347a.717.717 0 010 1.434h0H8.65a.717.717 0 110-1.434h0zm0-2.262a.717.717 0 010 1.434h0H8.65a.717.717 0 110-1.434h0zm5.976-7.477H2.673a.24.24 0 00-.239.239h0v7.214a.24.24 0 00.24.239h2.281v-2.017c0-.396.321-.718.717-.718h12.169c.396 0 .717.322.717.718h0v2.017h2.281a.24.24 0 00.24-.239h0V7.541a.24.24 0 00-.24-.24h0zm-2.998 1.342a.717.717 0 110 1.434h0-1.826a.717.717 0 110-1.434h0zm-.717-6.21H6.389v3.433h10.735V2.434z"/>
</svg>
