<svg xmlns="http://www.w3.org/2000/svg" width="55" height="55" viewBox="0 0 55 55">
    <g fill="none" fill-rule="evenodd">
        <circle cx="27.5" cy="27.5" r="27.5" fill="#EFF4FF"/>
        <g>
            <path d="M8.838 12.589c.121.12.247.18.366.159a.301.301 0 00.158-.082c.582 1.81 1.698 3.615 3.105 4.692.81.62 1.718 1 2.676 1 .98 0 1.906-.396 2.73-1.042 1.383-1.081 2.477-2.863 3.053-4.65.047.044.1.072.157.082.103.018.21-.023.316-.112.262-.223.51-.744.623-1.377.147-.826.015-1.55-.296-1.694a.26.26 0 00-.07-.023c-.097-.016-.197.02-.295.096l-.005.007-.001-.002-.003.002-.001-.018c-.373-1.415-.842-2.281-1.327-2.797a1.496 1.496 0 00-.3-.128c-.012.209.226.526.25.835-.672-.313-1.314-.8-2.253-.835-.22-.008-.457-.006-.701 0-2.267.809-4.757-.107-4.757-.107C9.422 6.33 8.97 9.283 8.936 9.62a.595.595 0 00-.002.025c-.101-.082-.204-.12-.303-.102a.295.295 0 00-.12.052c-.09.063-.158.183-.21.335-.028.397-.046.799-.052 1.214.005.038.009.076.016.115.106.592.33 1.085.573 1.33z" transform="translate(12.42 11.532)"/>
            <path fill="#5067EB" fill-rule="nonzero" d="M9.652 19.576c.103.854 2.583 3.66 4.21 5.42l.693-2.725c-.519-.316-.633-.999-.633-1.567h2.672c0 .573-.116 1.263-.645 1.575l.704 2.717c1.627-1.76 4.108-4.566 4.21-5.42.87.272 2.5.138 3.846.453.684.16 3.861.363 5.581 6.279.233.803.15 1.676-.228 2.392-1.409 2.663-8.816 3.484-14.804 3.482C9.27 32.183 1.862 31.363.454 28.7a3.233 3.233 0 01-.228-2.393c1.72-5.915 4.896-6.119 5.58-6.278 1.346-.315 2.977-.18 3.846-.453zM8.454 3.863C9.698 1.47 12.428.03 16.051.273c4.157.279 6.793 2.893 6.805 7.388 0 .314-.01.62-.028.923.479.18.688 1.262.466 2.503-.204 1.143-.705 2.038-1.183 2.179-.62 1.675-1.598 3.305-2.808 4.513-.72.72-1.524 1.29-2.383 1.63a4.808 4.808 0 01-1.776.35 4.8 4.8 0 01-1.777-.35c-.83-.33-1.607-.872-2.308-1.558-1.24-1.212-2.243-2.867-2.877-4.571-.498-.07-1.038-.995-1.252-2.193-.232-1.302.01-2.433.54-2.525l.026-.004.001-.014h-.013c0-.612.082-1.204.221-1.774.092-1.094.33-2.102.749-2.907zm3.81 2.731C9.423 6.331 8.972 9.282 8.937 9.62l-.001.024-.077-.052a.333.333 0 00-.227-.05.289.289 0 00-.12.052c-.09.064-.158.183-.21.336a20.67 20.67 0 00-.052 1.213c.006.039.01.076.017.115.105.593.328 1.086.572 1.33.121.12.247.18.366.16a.302.302 0 00.158-.083c.582 1.811 1.698 3.615 3.105 4.693.81.62 1.718 1 2.677 1 .979 0 1.905-.397 2.73-1.042 1.382-1.081 2.477-2.863 3.052-4.65a.3.3 0 00.157.082c.103.018.21-.024.316-.113.263-.223.51-.744.623-1.377.147-.825.015-1.549-.296-1.694a.287.287 0 00-.07-.022c-.096-.017-.197.019-.295.096-.005.005-.006.005-.006.004-.003-.003-.004-.01-.004-.015-.373-1.415-.842-2.282-1.327-2.798a1.496 1.496 0 00-.3-.127c-.012.208.226.526.251.835-.673-.314-1.315-.8-2.254-.835-.22-.008-.457-.007-.701-.001-2.266.81-4.757-.107-4.757-.107z" transform="translate(12.42 11.532)"/>
        </g>
    </g>
</svg>
