<svg xmlns="http://www.w3.org/2000/svg" width="64" height="64" viewBox="0 0 64 64">
    <g fill="none" fill-rule="evenodd">
        <circle cx="32" cy="32" r="32" fill="#5067EB"/>
        <path fill="#FFF" fill-rule="nonzero" d="M31.122 17.545a2.015 2.015 0 0 1 2.757 0l.02.02c2.41 2.37 5.23 3.57 8.876 3.776 1.748.098 3.138 1.558 3.164 3.322.006.362.015.687.029.995v.024c.071 3.76.159 8.437-1.395 12.688-.851 2.33-2.14 4.357-3.83 6.023-1.924 1.896-4.443 3.403-7.488 4.477a2.303 2.303 0 0 1-.755.13 2.259 2.259 0 0 1-.753-.13c-3.048-1.072-5.57-2.578-7.496-4.474-1.69-1.665-2.98-3.691-3.83-6.022-1.548-4.238-1.46-8.907-1.39-12.659l.002-.057c.014-.31.023-.635.029-.995.026-1.764 1.416-3.224 3.164-3.322 3.645-.206 6.465-1.405 8.875-3.776zm1.378 7.48c-4.357 0-7.902 3.578-7.902 7.976 0 4.397 3.545 7.974 7.902 7.974s7.902-3.577 7.902-7.974c0-4.398-3.545-7.975-7.902-7.975zm0 1.879c3.33 0 6.04 2.735 6.04 6.097 0 3.362-2.71 6.097-6.04 6.097-3.331 0-6.041-2.735-6.041-6.097 0-3.362 2.71-6.097 6.04-6.097zm3.587 3.62a.924.924 0 0 0-1.316 0l-3.67 3.705-.996-1.006a.924.924 0 0 0-1.316 0 .945.945 0 0 0 0 1.328l1.654 1.67a.922.922 0 0 0 1.316 0l4.328-4.369a.945.945 0 0 0 0-1.327z"/>
    </g>
</svg>
