<svg xmlns="http://www.w3.org/2000/svg" width="50" height="50" viewBox="0 0 50 50">
    <g fill="none" fill-rule="evenodd">
        <circle cx="25" cy="25" r="25" fill="#EFF4FF"/>
        <path fill="#5067EB" fill-rule="nonzero" d="M36.863 18.05a3.146 3.146 0 0 1 3.144 3.15v12.184c0 1.74-1.41 3.149-3.15 3.15H13.15c-1.74-.001-3.15-1.41-3.15-3.15V21.199c0-1.739 1.41-3.149 3.15-3.15zm-.006 1.26H13.15a1.896 1.896 0 0 0-1.89 1.89v12.184a1.896 1.896 0 0 0 1.89 1.89h23.713a1.896 1.896 0 0 0 1.89-1.89h-.006V21.199a1.896 1.896 0 0 0-1.89-1.89zm-2.514 1.272a.633.633 0 0 1 .46.202l2.539 2.715c.109.116.17.27.17.428v6.729a.62.62 0 0 1-.17.434l-2.57 2.716a.64.64 0 0 1-.46.195H15.708a.628.628 0 0 1-.46-.195l-2.57-2.716a.648.648 0 0 1-.17-.434v-6.729a.62.62 0 0 1 .17-.434l2.57-2.716a.638.638 0 0 1 .46-.195zm-.27 1.26H15.978l-2.212 2.337v6.225l2.212 2.337H34.04l2.211-2.337v-6.225l-2.18-2.337zm-9.066.473a.63.63 0 0 1 .63.63v.378a2.315 2.315 0 0 1 1.682 2.223.63.63 0 1 1-1.26 0 1.052 1.052 0 1 0-1.052 1.052 2.312 2.312 0 0 1 .63 4.537v.51a.63.63 0 1 1-1.26 0v-.51a2.315 2.315 0 0 1-1.683-2.224.63.63 0 1 1 1.26 0 1.052 1.052 0 1 0 1.053-1.052 2.312 2.312 0 0 1-.63-4.536v-.378a.63.63 0 0 1 .63-.63zm11.22-6.786a.63.63 0 0 1 0 1.26H13.78a.63.63 0 1 1 0-1.26zm-2.52-2.52a.63.63 0 0 1 0 1.26H16.3a.63.63 0 1 1 0-1.26z"/>
    </g>
</svg>
