<svg xmlns="http://www.w3.org/2000/svg" width="50" height="50" viewBox="0 0 50 50">
    <g fill="none" fill-rule="evenodd">
        <circle cx="25" cy="25" r="25" fill="#EFF4FF"/>
        <path fill="#5067EB" fill-rule="nonzero" d="M20.624 12c.689 0 1.19.407 1.19 1.095v1.722h7.511v-1.722c0-.688.501-1.095 1.19-1.095h1.846c.689 0 1.346.407 1.346 1.095v1.722H35.87a2.316 2.316 0 0 1 2.22 2.41v18.09c0 1.378-1.002 2.661-2.38 2.661H15.43c-1.377 0-2.379-1.283-2.379-2.66V17.227a2.316 2.316 0 0 1 2.379-2.41h2.003v-1.722c0-.688.657-1.095 1.346-1.095zm16.213 10.016H14.302v13.302c0 .688.438 1.408 1.127 1.408H35.71c.689 0 1.127-.72 1.127-1.408V22.016zm-12.144 1.971a.626.626 0 0 1 1.127 0l1.408 2.849 3.13.47a.657.657 0 0 1 .501.406.688.688 0 0 1-.156.657l-2.285 2.191.563 3.13a.626.626 0 0 1-.25.595.595.595 0 0 1-.376.125l-.282-.063-2.816-1.47-2.817 1.47a.626.626 0 0 1-.908-.657l.563-3.13-2.284-2.19a.689.689 0 0 1-.157-.658.657.657 0 0 1 .5-.407l3.13-.47zm.564 1.69l-1.002 2.004a.563.563 0 0 1-.438.344l-2.222.313 1.596 1.534a.657.657 0 0 1 .188.563l-.376 2.222 1.972-1.064.282-.063.281.063 1.972 1.064-.376-2.222a.657.657 0 0 1 .188-.563l1.597-1.534-2.223-.313a.563.563 0 0 1-.438-.344l-1.001-2.003zm-9.91-9.61l-.081.004a1.064 1.064 0 0 0-.964 1.156v3.537h22.535v-3.537a1.065 1.065 0 0 0-1.127-1.158h-2.003v.688c0 .689-.657 1.19-1.346 1.19H30.451a1.158 1.158 0 0 1-1.126-1.19v-.688h-7.511v.752a1.158 1.158 0 0 1-1.19 1.126h-1.846c-.689 0-1.346-.501-1.346-1.19v-.688h-2.003a1.065 1.065 0 0 0-.163.002zm17.108-2.815h-1.94v3.443h1.94v-3.443zm-11.893 0h-1.784v3.443h1.784v-3.443z"/>
    </g>
</svg>
