<svg xmlns="http://www.w3.org/2000/svg" width="11" height="14" viewBox="0 0 11 14">
    <path fill="#B6B6B6" fill-rule="nonzero" d="M10.204 5.65h-.278V4.376c0-2.36-1.91-4.332-4.3-4.374a9.868 9.868 0 0 0-.26 0c-2.39.042-4.3 2.014-4.3 4.374V5.65H.788c-.43 0-.779.433-.779.969v6.4c0 .535.35.972.779.972h9.416c.43 0 .779-.437.779-.972v-6.4c0-.536-.35-.97-.779-.97zM6.378 9.814v1.934c0 .222-.189.409-.415.409h-.934a.417.417 0 0 1-.415-.409V9.813a1.14 1.14 0 0 1-.347-.828c0-.613.484-1.14 1.099-1.164.065-.003.195-.003.26 0 .616.024 1.1.551 1.1 1.164 0 .324-.128.617-.348.828zm1.715-4.162H2.9V4.375c0-1.406 1.165-2.569 2.596-2.569 1.43 0 2.597 1.163 2.597 2.569V5.65z"/>
</svg>
