<svg xmlns="http://www.w3.org/2000/svg" width="50" height="50" viewBox="0 0 50 50">
    <g fill="none" fill-rule="evenodd">
        <circle cx="25" cy="25" r="24.5" fill="#FFF" stroke="#E5E5E5"/>
        <g fill-rule="nonzero">
            <path fill="#FBBB00" d="M19.388 26.965l-.69 2.573-2.518.054A9.856 9.856 0 0 1 15 24.9c0-1.642.4-3.19 1.107-4.553l2.243.411.983 2.23a5.885 5.885 0 0 0-.318 1.912c0 .727.132 1.423.373 2.065z"/>
            <path fill="#518EF8" d="M34.627 23.05a9.919 9.919 0 0 1-.044 3.916 9.898 9.898 0 0 1-3.485 5.654l-2.825-.144-.4-2.496a5.9 5.9 0 0 0 2.538-3.013h-5.293v-3.916h9.509z"/>
            <path fill="#28B446" d="M31.097 32.62A9.858 9.858 0 0 1 24.9 34.8a9.899 9.899 0 0 1-8.72-5.208l3.208-2.627a5.886 5.886 0 0 0 8.485 3.015l3.224 2.64z"/>
            <path fill="#F14336" d="M31.22 17.28l-3.208 2.625a5.888 5.888 0 0 0-8.68 3.083l-3.225-2.64A9.898 9.898 0 0 1 24.9 15c2.402 0 4.605.856 6.32 2.28z"/>
        </g>
    </g>
</svg>
