<svg xmlns="http://www.w3.org/2000/svg" xmlns:xlink="http://www.w3.org/1999/xlink" width="233" height="234" viewBox="0 0 233 234">
    <defs>
        <path id="a" d="M0 0h235.8v235.8H0z"/>
    </defs>
    <g fill="none" fill-rule="evenodd">
        <mask id="b" fill="#fff">
            <use xlink:href="#a"/>
        </mask>
        <g fill-rule="nonzero" mask="url(#b)">
            <path fill="#EF3143" d="M123.398 233.1a12.83 12.83 0 0 1-8.533-3.236c-1.648-1.459-3.689-2.567-5.905-3.301a1.545 1.545 0 0 0-.043-.44l-.076-.316-.277-.18-.116-.09c-.112-.091-.255-.209-.434-.298l-.008-.002h-.002l-.006-.002-.005-.002h-.002l-.006-.004-.002-.004h-.006v-.003l-.007-.001-.002.001-.005-.004-.265-.084h-.012l-.028-.006-.01-.001-.01-.001v-.003h-.011l-.012-.002-.008.002-.004-.004h-.01l-.005-.002h-.03l-.065-.004h-.02l-.029 1.013a21.433 21.433 0 0 0-4.198-.6l.438-.703-.86-.095-.484-.904-.016.02-.09-.151-1.47.876-.062-.005.442.976c-2.663.153-5.245.824-7.43 2.044a12.83 12.83 0 0 1-6.275 1.64c-4.566 0-8.99-2.431-11.321-6.728-3.036-5.596-10.164-9.543-16.686-9.543-.815 0-1.621.061-2.409.19-.701.114-1.399.169-2.087.169-6.262 0-11.76-4.57-12.704-10.95-1.05-7.08-7.68-13.965-14.735-15.299-7.052-1.335-11.64-8.162-10.196-15.174 1.446-7.012-2.424-15.74-8.597-19.4-6.172-3.657-8.143-11.638-4.378-17.733 3.764-6.098 3.122-15.62-1.422-21.162-4.543-5.541-3.659-13.713 1.971-18.159 5.626-4.444 8.296-13.61 5.926-20.367-2.368-6.757 1.269-14.134 8.082-16.393 6.812-2.258 12.463-9.961 12.554-17.119.091-7.034 5.84-12.653 12.855-12.653.121 0 .243.002.366.005.132.003.263.005.396.005 3.66 0 7.491-1.403 10.682-3.668.28.219.65.342 1.07.342.028 0 .055 0 .083-.002l.15-.002.14-.054c.121-.047.23-.096.334-.15l-.595-1.038c2.428-1.993 4.375-4.502 5.415-7.24 1.95-5.135 6.841-8.284 12.028-8.284 1.575 0 3.179.29 4.734.905 1.886.744 3.98 1.097 6.122 1.097 5.438 0 11.173-2.274 14.535-6.165A12.845 12.845 0 0 1 109.402.2h.198a12.83 12.83 0 0 1 8.434 3.235c.38.334.778.65 1.195.95l-.581 1.382c2.217.822 4.136 2.32 4.48 3.505.146.455.137.855-.032 1.187l-.014.03 1.562.746.039-.072c.184-.373.283-.77.303-1.187v-.002l.003-.006a3.636 3.636 0 0 0-.168-1.2c-.235-.812-.821-1.59-1.594-2.282a21.12 21.12 0 0 0 7.336 1.307c3.08 0 6.115-.676 8.626-2.078.695-.388 1.41-.704 2.137-.953.11.024.227.05.349.08a9.797 9.797 0 0 1-.05-.178 12.812 12.812 0 0 1 3.84-.589c4.566 0 8.992 2.432 11.319 6.728 3.034 5.597 10.16 9.544 16.683 9.544.815 0 1.622-.063 2.41-.19a13.01 13.01 0 0 1 2.086-.169c6.262 0 11.759 4.57 12.706 10.95 1.048 7.08 7.678 13.965 14.732 15.3 7.055 1.334 11.644 8.16 10.201 15.172-1.443 7.01 2.424 15.74 8.595 19.399 6.17 3.659 8.141 11.64 4.379 17.737-1.664 2.693-2.468 6.057-2.454 9.45l-.174.269.111.1.069.058c.1 4.144 1.416 8.293 3.867 11.283 4.544 5.542 3.66 13.712-1.968 18.157-3.781 2.986-6.225 8.101-6.704 13.186l-.985-.814.33 1.277-.043-.01.38 1.37c.09.323.173.625.254.908.077 1.546.352 3.05.844 4.453.863 2.462.928 5.007.332 7.357a.826.826 0 0 0-.124.165c-.118.205-.18.547-.179.85-.025.073-.05.146-.077.217l-1.214.903.458.577.177-.13a12.807 12.807 0 0 1-7.458 6.451c-6.812 2.26-12.465 9.964-12.556 17.12-.088 7.036-5.839 12.654-12.853 12.654-.122 0-.245-.002-.367-.005a11.474 11.474 0 0 0-.396-.005c-7.074 0-14.783 5.24-17.278 11.81-1.948 5.135-6.837 8.285-12.024 8.285a12.87 12.87 0 0 1-4.736-.906c-1.885-.744-3.98-1.096-6.12-1.096-5.44 0-11.18 2.274-14.54 6.166a12.848 12.848 0 0 1-9.75 4.454m-4.504-8.412a2.696 2.696 0 0 0-.766.886v.003l-.003.007-.086.183 1.634.595a.862.862 0 0 1 .3-.362l-.538-.657.546.65-.535-.657-.538-.662-.014.014.541.654v.001l-.54-.655m23.683-5.026a1.5 1.5 0 0 0-.707.184c-.363.198-.66 1.166-.447 1.448.39.516 1.179.777 2.228 1.397.145-1.044.425-1.64.25-2.082-.235-.58-.747-.947-1.324-.947m-44.725 2.134l-.019.144c-.014.17-.037.361-.028.57l-.003.052v.002l1.759-.115.002-.127.025-.244.016-.16-1.75-.124-.002.004v-.002M46.286 40.716C19.174 65.652 6.335 104.263 16.17 142.369c12.023 46.58 54.086 77.521 100.206 77.521 8.54 0 17.22-1.06 25.874-3.28a104.78 104.78 0 0 0 12.223-3.945l-.252 1.006.155.07.28.123.04.014v.002l.624-1.55a102.983 102.983 0 0 0 14.166-7.002c1.07 1.431 2.914 2.421 4.418 2.421a2.68 2.68 0 0 0 1.092-.214c1.272-.571 2.358-4.003 1.697-5.358a2.847 2.847 0 0 0-.811-.973c18.845-13.165 32.644-32.21 39.425-53.805l.117.257.405.798.325-.16.1.098.615-.385.774-.68-.245-.254.854-1.732-1.712.863-.009-.007-.01.006-.393-.382-.433.8-.174.089c5.374-17.537 6.126-36.721 1.207-55.78-1.05-4.07-2.33-8.019-3.822-11.84l.57-.03c.853-1.812-1.146-2.595-1.271-3.993-.306.06-.603.116-.894.17a102.643 102.643 0 0 0-25.476-35.217l.858.099-1.667-1.462 2.345-2.614-3.557 1.766-.056-.027-.046.03-.013-.012-.234.155c-18.43-15.567-42.098-24.547-66.943-24.547-8.54 0-17.22 1.062-25.875 3.282-15.42 3.955-29.13 11.168-40.581 20.715l-1.411-.295c-.095.38-.182.626-.302.822l.661.36c-.756.648-1.502 1.307-2.238 1.975l-.564.232h-.002l.06.174.015.043m120.506 175.773l-.002-.001h.002l-.004-.003h.002l-1.316-1.096a1.662 1.662 0 0 0-.407.806l-.009.029.868.13.68.102.186.033m26.33-18.067c-.215-.94-.172-1.61-.506-2.019a1.15 1.15 0 0 0-.896-.43c-.319 0-.652.127-.95.38-.58.5-.586 1.521.11 1.857.502.242 1.205.135 2.241.212m3.77-.377l.01.041.353.167.079-.116.186-.276.002-.007-.058-.025.12-.05.824-.31-.006-.019a1.35 1.35 0 0 0-.782-.76l-.01-.004h-.003a1.624 1.624 0 0 0-.574-.1c-.155 0-.318.02-.486.06l-.381.093-.187.336-.082.113-.144.212v.001l-.004.004-.06.106h-.002l1.161.551.043-.017m-13.01-2.311c-.4.016-.663-.016-.878.058l-.128.413c.165.108.403.246.571.246.03 0 .058-.004.082-.014.16-.05.2-.37.353-.703m19.524-19.868c.07 0 .168.01.265.022l1.442.143-.217-.845.522-.838-1.363-.121-.144-.02-.199-.02a3.494 3.494 0 0 0-.288-.013c-.052 0-.106.002-.162.006l.038.514-.095-.052-.189.306.087.338.227-.057.04.639c.01-.002.023-.002.036-.002m2.433-2.593l-.384 1.288 1.56.875.518-1.726-.663-.173.074-.116-.074.116-.182-.045-.85-.22m4.449-4.637a.493.493 0 0 0-.106.012c-.351.084-.443.377-.334.685.07.21.338.372.552.372a.29.29 0 0 0 .202-.07c.19-.178.262-.459.466-.844-.343-.061-.586-.155-.78-.155m8.568-12.22l-.093.054-.145.08.906 1.433.003-.001.09-.052.152-.086-.913-1.427m-.675-2.255a.76.76 0 0 0-.263.051c-.38.15-.564.526-.407.86.128.27.332.4.582.4.071 0 .146-.01.224-.03.409-.151.578-.52.43-.877-.109-.261-.317-.404-.566-.404m-1.313-3.395c-.167 0-.337.036-.504.11-.61.273-.841.884-.545 1.449.203.39.682.628 1.158.628.185 0 .369-.036.536-.113.53-.244.692-.815.407-1.405a1.163 1.163 0 0 0-1.052-.669m2.33-.579c-.047.106-.127.187-.111.254l.2.167c.061-.088.135-.176.168-.273.006-.023-.143-.088-.256-.148m-4.345-.635a.125.125 0 0 0-.045.009l-.19.268c.13.053.258.145.394.155.05 0 .114-.17.204-.328-.156-.042-.277-.104-.363-.104m13.014-22.947l-1.054 1.374.118.116.22.214 1.189-1.268-.001-.005-.045-.04-.061-.063-.002-.002-.06-.064a2.38 2.38 0 0 0-.304-.262m-4.333-3.79c-.137 0-.272.017-.397.052-.067.018-.026.344-.046.69.365-.076.646-.085.846-.202l-.024-.498a1.804 1.804 0 0 0-.38-.042m-1.637-22.256l-1.26 1.205.09.137.005.002c.058.096.117.189.18.27l1.413-1.034v-.004l-.085-.131-.013-.02-.028-.046-.052-.077-.026-.04-.024-.03-.01-.016-.19-.216M7.33 93.83l-.868 1.24-.138.166.012.018c.019.03.046.09.068.186a.428.428 0 0 1-.047.191l-.004.007 1.433.954c.238-.332.37-.741.38-1.22l-.005-.153a2.286 2.286 0 0 0-.38-.96 1.639 1.639 0 0 0-.364-.368l-.06-.044-.51.7.483-.717m220.884-1.975l-.492.288-1.518.993 1.136.372.046.344 1.762-.122-.05-.467.624-.428-.698-.463-.004-.11-.314-.105-.492-.302m-217.963-.33c-.055.35-.142.57-.1.768l.433.2c.174-.13.283-.341.42-.519-.205-.126-.414-.248-.753-.45m3.97-11.705c-.27-.925-.309-1.46-.571-1.88-.216-.34-.543-.534-.89-.534-.224 0-.455.08-.672.253-.622.494-.603 1.177.056 1.619.417.282 1.05.293 2.076.542m191.152-27.384c.14.393.25.73.378 1.063.3.79 1.051 1.249 1.951 1.249.26 0 .53-.038.807-.118a1.697 1.697 0 0 0 1.141-2.174c-.116-.326-.318-.67-.593-.894-.404-.339-.711-.685-.913-1.153-.28-.658-.86-.948-1.597-.948-.028 0-.058 0-.087.002-.28.009-.558.036-.837.067-.882.11-1.36.586-1.394 1.406-.007.287.03.577.06.863.052.538.08.692.462.692.147 0 .347-.023.622-.055m-3.585-.732h.002a.132.132 0 0 0 .06-.011l.006-.003c.09-.051.106-.216.155-.335a13.969 13.969 0 0 1-.518-.085c-.006.121-.01.241-.017.365.045.008.094.023.144.038l.022.006.029.007.027.007a.288.288 0 0 0 .05.008.217.217 0 0 0 .036.003h.004m-4.378-7.596l-.074.142.811.311.168.06.607.323-.05.067.038-.035.073-.057.011-.012.236-.2v-.004l-1.246-1.168-.002.001-.107.09-.092.075c.088-.224.06-.689-.07-.765a1.757 1.757 0 0 0-.816-.22.616.616 0 0 0-.324.072c-.219.135-.14.674-.223 1.246.544-.075.974-.048 1.255-.17a1.62 1.62 0 0 0-.11.125l-.083.118.758.42-.76-.42M149.598 6.029c-.025.115-.043.231-.067.34.08.002.16.008.238.008a.93.93 0 0 0 .154-.01l.03-.182c-.11-.066-.235-.106-.355-.156"/>
            <path fill="#EF3143" d="M115.78 213.892c-14.704 0-28.978-3.343-41.866-9.467l.024-.09-.158-.284-.062-.144c-.07-.163-.16-.384-.331-.574h-.002l-.003-.005v-.003l-.006-.006v-.001l-.006-.002-.002-.001-.002-.004-.003-.004-.004-.005v-.002l-.005-.003-.002-.003-.004-.005-.007-.004v-.002l-.004-.002-.006-.004-.002-.004v-.005h-.005l-.004-.005-.002-.002-.005-.007v-.002l-.006-.002-.005-.002-.002-.004-.002-.003-.006-.004-.002-.003-.007-.004-.002-.003-.006-.002v-.001l-.003-.006v-.003l-.007-.004-.002-.002h-.002l-.006-.005h-.004l-.005-.005-.002-.002-.004-.005-.033-.025-.014-.01-.008-.006-.008-.003-.015-.012-.002-.002-.01-.006-.031-.02-.004-.002-.007-.005h-.002l-.006-.005v-.002l-.018-.008-.01-.004-.439.723a98.67 98.67 0 0 1-10.415-5.951l.213.074.01-.023.074-.099.014-.023.163-.253h.002l-1.54-.778-.004.001-.08.126c-.033.043-.067.09-.101.142-19.057-12.906-33.667-32.554-39.852-56.597C7.655 88.104 39.157 34.78 91.475 21.317a97.976 97.976 0 0 1 24.443-3.11 97.282 97.282 0 0 1 31.798 5.35c-.444 1.112-.145 3.418.66 4.174.05.046.102.09.157.132a93.734 93.734 0 0 0-27.19-5.718l-.012-.006v.006a93.376 93.376 0 0 0-14.51.285.633.633 0 0 1 .037-.185l-.005.005.002-.004-.06.07.021.06-.385.029.21-.267-.885-1.161a1.475 1.475 0 0 0-.369.38h-.004l-.002.005-.004.008-.002.003c-.258.391-.292.827-.307 1.027l-.001.114c.002.035.005.07.01.104a94.801 94.801 0 0 0-12.66 2.358C77.546 28.802 64.423 35.979 53.65 45.49c-.15-.16-.528-.283-1-.554-.007.6-.102.923.016 1.171.02.044.078.088.152.127A94.243 94.243 0 0 0 38.912 61.97c-.186-.739-.244-1.25-.538-1.588a1.137 1.137 0 0 0-.863-.403c-.329 0-.667.142-.95.417-.583.56-.487 1.241.189 1.622.423.238 1.006.237 1.883.353a94.437 94.437 0 0 0-14.72 33.803l-.734.305.508.765-.052.255a5.03 5.03 0 0 0-.714-.052c-.79 0-1.497.203-1.934.635-.79.777-.535 3.721.397 4.596.33.309.772.52 1.267.635-1.608 11.74-1.011 23.985 2.124 36.17 10.401 40.422 45.554 67.918 85.064 70.44.08.118.165.232.263.335.283.286.62.49.96.49.216 0 .433-.082.64-.276.154-.14.256-.286.313-.435a94.169 94.169 0 0 0 27.267-2.913c36.916-9.498 63.052-39.64 69.229-74.893 1.165.55 2.365.897 3.673.928a97.975 97.975 0 0 1-8.961 26.876c-.207.157-.315.368-.296.582-12.317 24.046-34.482 42.905-62.704 50.166a97.964 97.964 0 0 1-24.442 3.109m89.343-66.467c.216.846.19 1.383.466 1.678.269.286.616.443.955.443.302 0 .597-.124.828-.39.218-.251.136-1.077-.115-1.241-.46-.294-1.139-.288-2.134-.49M20.872 135.43c-.122 1.243-.412 1.987-.196 2.577.213.573.71.877 1.293.877.253 0 .522-.058.792-.176.927-.407 1.135-1.217.54-1.912-.426-.5-1.244-.724-2.43-1.366m2.77-47.63l-1.322 1.137.504.551.665-.569.659-.563v-.002l-.507-.553m185.381 41.186a93.24 93.24 0 0 0 .861-10.482l1.283.447c.182-.46.193-.988.035-1.57l-.041-.112c-.343-.78-.798-1.222-1.246-1.47a94.223 94.223 0 0 0-2.99-23.183c-3.018-11.732-8.12-22.372-14.808-31.63.181-.794-.033-1.753-.63-2.297-.427-.39-1.018-.62-1.614-.683a93.31 93.31 0 0 0-3.245-3.911c.276-.373.267-.861-.076-1.34-.344-.48-1.063-.742-2.117-1.427-.011.109-.025.213-.038.312a94.493 94.493 0 0 0-34.358-23.205c.183.023.37.035.56.035 1.019 0 2.096-.339 2.82-.995.51-.465.838-.902.984-1.331 22.443 9.645 41.1 27.583 51.216 51.008.002.054.006.109.014.163.058.379.21.658.42.862a98.67 98.67 0 0 1 4.531 13.496c3.207 12.464 3.863 24.983 2.292 37.009a9.077 9.077 0 0 0-1.15-.074c-.915 0-1.81.138-2.703.378m-3.12-46.687l.001.001.57 1.514.134-.056c.458-.22.769-.652.864-1.195v-.005l.02-.15-1.59-.11m-9.102-19.434c-1.194.415-1.544 1.086-1.242 2.534 1.299-.712 1.787-1.335 1.242-2.534m-33.303-32.079c-.401.018-.66-.014-.872.057l-.128.417c.164.106.399.244.567.244.03 0 .058-.004.084-.015.158-.048.198-.368.35-.703m-57.109-8.32l.004-.006.038.002c-.014 0-.029.003-.042.004"/>
            <path fill="#EF3143" d="M41.51 157.468l-2.575-10.008 4.347-1.12-6.531-25.397-4.207 1.082-2.531-9.84 13.966-3.595a4.2 4.2 0 0 0 .78.067l-.125.801.05.01c.132.055.254.249.336.404.015.13.009.207.002.239l-.004.01-.002.003.004-.004 1.608.65c.17-.372.203-.822.106-1.334l-.019-.098-.041-.089c-.232-.5-.525-.877-.878-1.126l1.313-.338v.004l.009.05.863-.193v.001-.001l.856-.196-.006-.043v-.066c.237-.06.434-.112.59-.152l.682-.175c1.211-.292 2.42-.603 3.623-.933a35.802 35.802 0 0 1 3.585-.789 87.709 87.709 0 0 1 3.479-.509c.73-.092 1.448-.138 2.156-.138a17.882 17.882 0 0 1 4.24.528c.975.244 1.91.647 2.809 1.208a11.928 11.928 0 0 1 2.46 2.057c.743.809 1.425 1.828 2.048 3.055.62 1.227 1.146 2.629 1.57 4.202.744 2.741.943 5.222.592 7.442-.352 2.222-1.206 4.13-2.566 5.73-1.363 1.6-3.074 2.95-5.137 4.056a28.382 28.382 0 0 1-3.791 1.667 1.964 1.964 0 0 0-.439-.595c-.51-.465-1.252-.702-1.96-.702-.63 0-1.234.188-1.623.573-.533.53-.667 1.3-.425 2.025-1.064.24-2.188.436-3.371.585l1.504 5.854 4.07-1.047 2.104 8.186-.058-.001c-.245 0-.499.054-.742.168l.373.76-.004.002v.001l.004-.003.302.608-.124.079.046-.031-.046.03.124-.076.45-.275.144.56-23.99 6.177m1.993-16.163c-.186-.463-.219-.743-.386-.9-.047-.046-.175-.065-.3-.065-.14 0-.28.024-.298.065-.095.203-.157.545-.034.684.124.143.488.118 1.018.216m16.407-8.926l-.84.275-.836.27c.04.121.09.233.155.34l.155.222.006.001v.002l.06.066.648-.585.002.003.002.003-.002-.003.65-.594m-7.553-2.508l-.964.507.613.885c.06.09.122.184.194.28l.002.006.008.008.007.008.004.003.01.013.14.171.61-.504.088.164.002-.002.105-.058-.099-.18.642-.531-.012-.017h-.002l-.004-.005-.002-.005-.002-.002-.009-.005-.002-.002-.004-.009a4.429 4.429 0 0 1-.198-.281l-.089-.126v-.001l-.633.415-.405-.732m5.303-3.261c-.128 1.155-.336 1.777-.229 2.356.118.613.561 1.021 1.163 1.021.157 0 .324-.027.499-.087.937-.315 1.238-1.097.69-1.859-.343-.48-1.064-.743-2.123-1.431m-13.973-.22l-.86 1.49c.007.007.084.08.189.4l.84-.27.836-.269c-.142-.432-.398-1.044-1.005-1.351m11.132.232l.197.766 1.141-.294c4.218-1.085 5.847-3.496 4.887-7.232-.432-1.673-1.239-2.773-2.424-3.3a5.415 5.415 0 0 0-2.222-.463c-.554 0-1.132.078-1.731.23l-2.34.605 2.138 8.312-.048.01-.865.167.002.018c.127.624.61 1.067 1.265 1.181m19.331-.211h.001a.138.138 0 0 0 .065-.014l.004-.001c.091-.05.104-.217.153-.335a47.705 47.705 0 0 1-.516-.085l-.018.365c.067.014.146.041.217.057a.408.408 0 0 0 .09.013h.004m-25.222-4.777l-.12.196c.093.116.223.213.337.315.078-.126.157-.243.23-.364-.148-.054-.292-.118-.447-.147m2.238-5.06l-.702 1.57.01.003c.048.028.163.142.3.621.018.266.014.441-.013.522v.008l-.006.009.795.349.803.326.084-.212.003-.01v-.003c.045-.143.074-.289.086-.432v-.007a4.183 4.183 0 0 0-.004-.789l-.004-.077-.023-.075c-.074-.272-.208-.768-.539-1.192v-.002l-.006-.003-.002-.004v-.003l-.006-.006v-.002l-.004-.006v-.002l-.004-.002-.002-.004-.182-.196-.004-.005-.002-.003-.004-.006-.004-.002-.007-.003-.004-.004-.002-.005-.004-.002-.004-.004a1.879 1.879 0 0 0-.55-.347m18.1.822a.612.612 0 0 0-.323.072c-.223.137-.14.675-.223 1.25.613-.084 1.083-.038 1.358-.23.167-.11.16-.778.002-.871a1.746 1.746 0 0 0-.815-.221m-29.268-4.107c-.597.219-.96.767-.993 1.508l1.57.037-.282-.753-.295-.792m-4.358-.64l-.609 1.6c.112.038.24.105.382.173l.142.073.411-.758.411-.757v-.001l-.134-.067c-.159-.078-.334-.167-.53-.24l-.009-.002-.064-.021M82.03 146.663l-2.565-10.066c.815-.212 1.518-.472 2.11-.787 1.35-.73 2.152-1.885 2.4-3.464.089-.5.134-1.8.134-3.891l-.061-16.304.078.03c.008-.273.09-.505.002-.592a.25.25 0 0 0-.082-.05l-.007-1.661c.077.107.155.217.235.325-.081-.485-.134-.668-.234-.668h-.002l-.005-1.358-5.883 1.53-2.518-9.897 15.446-4.016a.652.652 0 0 0 .053.557.883.883 0 0 0 .752.423.724.724 0 0 0 .321-.073c.374-.19.57-.753.376-1.103a.64.64 0 0 0-.13-.16l10.762-2.798 8.66 15.749c-.08.22-.142.387-.204.549.196.056.431.183.596.183h.01l6.658 12.106-.089.022.007.05.008-.047.102.026 1.164 2.118c.294.541.53.947.71 1.22.179.273.396.5.662.68.186.13.377.194.572.194.08 0 .158-.01.237-.031l2.387-.62 2.563 10.065-7.166 1.863a1.404 1.404 0 0 0-1.013-.319l.038.573-.008.001-.055-.57-.115.015-.1.02.136.57-.007.003-.154-.566.144.568-14.617 3.8-2.592-10.057 3.33-.867c-.707-2.773-1.601-4.16-2.683-4.16-.114 0-.23.016-.347.047l-7.63 1.983a.656.656 0 0 0-.482.438c-.078.23-.1.45-.067.66.033.213.09.516.175.912.131.525.386 1.096.76 1.716.322.533.649.8.982.8a.66.66 0 0 0 .163-.022l2.33-.606 2.565 10.066-18.813 4.89m1.943-3.436l.065.436-.065-.436.119.423-.045-.217-.021-.085.127.284-.173-.501.664-.962-.071-.046-.114-.055-.007-.006a1.174 1.174 0 0 0-.664-.083l-.075.014-.246.083.474 1.072.003.004-.274.45.2-.31.08-.118v.004l.01-.016.009.032.004.033m15.408-3.744l-1.15.06.003.004-.003.005-.002.038-.002.019-.011.091-.032.278-.026.423.33.268 1.367.793.077-1.42.02-.145.013-.117.01-.067.008-.262-.458.026-.144.006.13-.208-.13.208m7.47-3.34l-.966 1.44.271.172.35.216.485-.718v-.002l.485-.718h-.002l-.623-.39m14.105-5.446l-1.333 1.134.015.02.043.091.02.051v.002l1.682-.489a2.036 2.036 0 0 0-.427-.81M93.41 126.5a.36.36 0 0 0-.11.014l-.07.302a.678.678 0 0 0 .37.118l.048-.002c.061-.003.095-.195.173-.382-.17-.019-.302-.05-.41-.05m-.24-.256l-1.714.371.01.048.023.176 1.745-.157a2.696 2.696 0 0 0-.048-.353l-.016-.085m26.144.408v.002l1.123-1.278a1.508 1.508 0 0 0-.983-.353c-.236 0-.485.05-.74.152l.599 1.48.001-.003m-34.573-2.888a.164.164 0 0 0-.056.008c-.103.04-.146.226-.214.35.13.057.273.166.39.166.009 0 .017 0 .026-.002.104-.023.179-.197.326-.384-.206-.055-.362-.138-.472-.138m8.126-17.99l.51 14.83 6.356-1.652-6.773-13.204c.302-.087.606-.173.911-.266l-.099-.258c-.296.126-.594.25-.889.374l-.023-.045.002.055-.105.044.051.14.06-.017m-2.568 11.809l1.061 1.336c.55-.42.755-1.113.54-1.855l-.842.243-.845.25.02.124-.001-.002.002.004v-.002l.035-.067.03-.031M88.34 112.9c-.097.116-.274.242-.268.354.009.12.196.237.302.35.09-.117.27-.237.263-.346-.014-.125-.189-.24-.297-.358m1.69-2.985c-.141 0-.285.026-.418.082-.448.19-.615.632-.393 1.036.164.293.51.47.852.47a.9.9 0 0 0 .386-.083c.384-.185.587-.708.413-1.068-.137-.272-.482-.437-.84-.437m7.079-.828l.04.163.186-.069-.075-.142 1.3-.397c-.204-.673-.77-1.076-1.475-1.076-.076 0-.154.005-.233.015l-.161.02-.137.072.308.602.164.838.083-.026m-16.182-6.26l1.01 1.372.062-.046c.392-.305.832-.91.682-2.056l-.013-.08-.018-.062c-.111-.365-.259-.871-.584-1.271l-.004-.001-.002-.006-.002-.004h-.003a1.698 1.698 0 0 0-1.076-.604l-.15.846-.003-.001h.002l-.15.84c.092.067.2.419.27.657.034.282-.013.396-.025.42l-.002.003.002-.004.004-.003m11.976-6.09l-1.62.674c.189.455.516.793.947.98l.738-1.563-.004.002-.002-.002-.059-.09m10.074-3.07a.161.161 0 0 0-.056.009c-.12.045-.156.291-.226.447.167.054.34.159.506.159h.019c.094-.012.168-.22.304-.415-.23-.08-.419-.2-.547-.2M129.33 135.858l-2.61-10.037 4.15-1.057-6.617-25.472-4.038 1.029-2.565-9.87 24.397-6.215.62 2.387-.084.128c.036.052.094.109.157.154l1.869 7.2-4.15 1.057 4.292 16.52-.002.004-.06.097-.013.014.121.064 2.28 8.773 3.981-1.014 2.608 10.037-24.337 6.201m10.63-12.155l-.001.16.167.026.002-.162-.167-.024m-4.613-4.269l.002.007.046.002.323.182.112-.116.075-.073.312-.002.888-.007-.011-.23-.017-.09v-.016a1.399 1.399 0 0 0-.61-.902v-.003l-.007-.004c-.276-.184-.628-.29-1.034-.3l-.454-.015-.281.348-.118.112-.22.228-.002.002-.004.003-.13.173v.002l-.004.01-.01.015 1.146.654v.02l-.023.005.021-.005m9.792-4.536l-.078.033.175.286.122-.073-.22-.246m-5.97-4.813a.81.81 0 0 0-.468.137c-.115.091-.197.35-.144.474.073.168.316.263.59.263.178 0 .368-.039.535-.124.027-.097.148-.28.099-.423-.064-.206-.334-.327-.613-.327m-11.24-.45l-.075.133.143.125.173-.092-.24-.165m2.117-1.326c-.223 0-.467.05-.705.163-.034.136-.206.404-.136.619.091.29.467.457.846.457.18 0 .36-.037.51-.116.308-.156.476-.377.33-.705-.117-.258-.448-.418-.845-.418m10.716-3.732c-1.015 0-1.837.39-2.39 1.198-.468.68-.232 1.949.43 2.512.323.274.851.439 1.362.439.452 0 .89-.13 1.16-.427.455-.497.922-.61 1.541-.61l.097.002c.127-.6.429-1.166.06-1.717-.466-.696-1.044-1.346-2.05-1.39a3.556 3.556 0 0 0-.21-.007m.217-4.35a.594.594 0 0 0-.31.067c-.137.094-.06.462-.1.95.496-.185.799-.226.962-.384.098-.098.034-.525-.05-.552a1.789 1.789 0 0 0-.502-.082m-15.03-.035a.335.335 0 0 0-.106.015c-.07.017-.083.2-.123.312.15.045.296.122.443.122h.01c.061-.01.107-.193.214-.383-.183-.025-.324-.066-.439-.066m-5.234-7.078l-.107.13.228.094.06-.161-.18-.063m18.704-4.593l-.184.066c.008.117.044.236.07.354l.358-.143c-.08-.097-.148-.2-.244-.277M157.105 127.455l-2.584-10.095 4.56-1.18-6.561-25.647-4.727 1.223-2.53-9.898 23.205-6.006c3.146-.814 6.051-1.22 8.715-1.22 3.838 0 7.177.845 10.015 2.535 4.808 2.863 8.16 8.008 10.059 15.432.78 3.056 1.01 6.084.685 9.087a23.489 23.489 0 0 1-2.552 8.44c-1.376 2.626-3.421 4.958-6.14 7.001-2.715 2.042-5.957 3.55-9.72 4.525l-22.425 5.803m13.777-28.882l3.492 13.65.978-.254c1.36-.352 2.489-.93 3.388-1.731.897-.803 1.548-1.7 1.95-2.694.401-.992.648-2.126.739-3.4.093-1.272.064-2.489-.083-3.65a30.129 30.129 0 0 0-.704-3.625 35.302 35.302 0 0 0-1.08-3.515 19.75 19.75 0 0 0-1.551-3.212c-.646-1.09-1.365-1.97-2.15-2.636-.787-.666-1.76-1.132-2.923-1.402a6.847 6.847 0 0 0-1.558-.174c-.716 0-1.467.103-2.253.305l-1.314.34 2.526 9.877a2.835 2.835 0 0 0-1.388-.398 1.7 1.7 0 0 0-.636.114c-.806.33-1.35 1.6-.978 2.317.346.668 1.136 1.094 1.892 1.094.227 0 .45-.038.658-.12.35-.139.723-.495.995-.886m1.926 13.498c.062 0 .129.004.195.01.066.004.133.008.196.008.108 0 .202-.014.26-.064.165-.136.258-.436.224-.643-.018-.112-.38-.18-.767-.335-.06.445-.098.732-.135 1.025h.027m16.917-4.188l.228 1.405.09-.018.046-.012h.002c.682-.177 1.133-.754 1.183-1.512l.01-.131-1.4-5.472-.37 5.527-.007.064v-.002.002l.032-.047.016-.015.114-.064.01-.003.046.278-.186.05.186-.05m-29.45-.387l-.19.018-.007.168.177.057.02-.243m2.818-16.752l.193.831.035-.01-.211-.825.002-.001.229.821a1.75 1.75 0 0 0 1.117-.886l.002-.005.002-.002c.156-.297.234-.651.228-1.04l-.015-.138c-.161-.882-.69-1.51-1.478-1.771l-.017-.005-.587 1.623.067.024c.085.041.202.133.263.396-.006.102-.024.154-.017.154l.206.829h-.002l-.215-.827.198.832-.005.001h.005M48.903 93.84l-2.083-.866 1.518-3.936 2.084.866-1.519 3.936M58.044 85.437L45.648 78.58l-1.822 2.846-3.008-1.665 5.582-8.73 2.985 1.65-1.783 2.788 12.424 6.87-1.982 3.098M62.534 74.632l-3.62-3.3-.022-.053a.839.839 0 0 0-.543-.46l-6.727-6.13 2.568-2.746 4.914 4.478 2.406-2.573-4.913-4.48 2.568-2.744L72.031 68.35l-2.565 2.746-5.443-4.957-.243.26-.136-.084a6.99 6.99 0 0 1-.164.404l-1.843 1.972 4.933 4.498c-.298.329-.51.766-.649 1.32-.872-.008-1.75-.156-2.643-.563l-.744.686m-3.336-4.97l-.094.125.142.1.096-.13-.144-.095m.217-11.274c.22.848.194 1.382.474 1.68.271.286.623.442.966.442.307 0 .607-.123.84-.39.223-.252.138-1.076-.117-1.24-.463-.296-1.155-.29-2.163-.492M74.21 66.228l-1.752-5.175c.062-.088.133-.173.169-.271.006-.024-.148-.088-.26-.147a1 1 0 0 1-.031.058l-3.907-11.536 3.198-2.137 13.61 11.843-3.085 2.06-1.915-1.79c.293.012.574.029.729.029.076 0 .121-.004.124-.015.07-.42.065-.857.08-1.284h-.014c-.085 0-.186-.008-.288-.015-.103-.007-.204-.014-.289-.014-.108 0-.188.012-.209.049-.165.31-.19.679-.286 1.154l-3.814 2.548 1.025 2.583-3.085 2.06m-1.792-14.612l-.049.031 2.87 7.24 2.82-1.882-5.641-5.39m.362 4.373a1.7 1.7 0 0 0-.778.199l-.333.17-.105.342-.06.145-.1.248v.002l-.002.005-.064.225-.003.017 1.21.179.552.087.062-.148a2.31 2.31 0 0 0 .12-.307v-.001l-.425-.113.568-.89a1.315 1.315 0 0 0-.642-.16M86.8 57.825l-6.365-16.15 3.95-1.447 5.314 5.536-.16.145c.216.3.382.628.645.889.287.282.629.484.977.489l1.368 1.424.067-.023-.687-1.74c.53-.527.344-1.135-.26-1.584a1.353 1.353 0 0 0-.442-.198l-2.56-6.496 3.43-1.254 6.365 16.149-3.819 1.398-8.267-8.615-.055.02L90.31 56.54l-3.51 1.285M106.064 51.822l.72-.186.01.086-.73.1m.71-.248l-3.781-.332-2.15-15.963 3.668-.505 1.043 7.749.054-.008 2.171-8.19 3.267-.449.005.007.012-.009.435-.06-.554 1.92a2.507 2.507 0 0 0-1.66-.09c-.785.229-1.092.81-1.398 1.434-.367.736.215 1.933.894 2.293.124.068.28.142.416.142.016 0 .032 0 .048-.003.203-.026.413-.03.624-.036l-.834 2.894 5.015 8.358-3.84.527-.3-.537c.101.04.206.075.34.128.038-.138.104-.263.078-.285-.1-.07-.23-.101-.345-.146-.035.083-.068.167-.104.247l-4.185-7.507-.052.007 1.133 8.414m3.916-17.523a5.972 5.972 0 0 1-.299.138l.152.138.172-.084-.025-.192M125.6 51.822l-3.694-.304.622-7.648-3.677-10.056 4.013.331.023.075a1.678 1.678 0 0 0-.112.097c-.64.611-.572 1.812.143 2.52.248.247.58.413.937.498l.768 2.468 2.537-5.303 3.696.305-4.63 9.343-.627 7.674m-2.202-13.743l-.223.17.156.1.14-.1-.073-.17M139.076 54.223a6.07 6.07 0 0 1-1.831-.3c-1.743-.551-2.94-1.656-3.59-3.31-.65-1.655-.503-4.083.44-7.285.694-2.347 1.443-3.99 2.258-4.931.812-.941 1.714-1.586 2.705-1.935.467-.164.96-.246 1.481-.246a6.17 6.17 0 0 1 1.863.312c1.02.324 1.795.762 2.319 1.314.522.55.954 1.25 1.293 2.093.338.844.485 1.802.441 2.875-.044 1.075-.305 2.432-.79 4.073-.211.717-.434 1.38-.666 1.986l-.22-.083v.003l-.062.125a2.128 2.128 0 0 0-.187.425v.002l-.004.007-.002.007a1.442 1.442 0 0 0-.05.315h.198c-.782 1.796-1.674 3.017-2.678 3.662-.922.594-1.894.891-2.918.891m1.682-14.348c-.477 0-.899.198-1.266.595-.522.56-.995 1.562-1.422 3.007l-.316 1.07c-.518 1.757-.804 2.933-.856 3.525-.051.593.056 1.107.33 1.545.269.437.657.736 1.165.897.161.05.325.076.49.076.257 0 .516-.061.781-.185.436-.203.819-.601 1.141-1.196.327-.592.73-1.706 1.212-3.338.431-1.464.68-2.523.745-3.18.067-.656-.02-1.231-.26-1.727-.239-.496-.611-.824-1.117-.985a2.08 2.08 0 0 0-.627-.104M153.879 61.426c-1.006 0-2.065-.321-3.173-.964-1.565-.91-2.527-2.024-2.887-3.344-.362-1.32-.092-2.754.808-4.302l6.154-10.598 3.29 1.91-5.852 10.078c-.413.71-.59 1.337-.535 1.883.056.543.335.96.834 1.252.262.151.527.228.794.228.21 0 .423-.048.636-.142.485-.214.912-.636 1.277-1.265l5.941-10.234 3.305 1.917-6.302 10.852c-.824 1.42-1.896 2.287-3.22 2.604a4.57 4.57 0 0 1-1.07.125m-1.51-13.08l.087.142c.055.103.112.2.173.287l.74-.485.742-.486h-.006l-.081-.142c-.082-.146-.181-.333-.347-.494l-.002-.003-.002-.003-.005-.006-.004-.003-.007-.005-.006-.004v-.003l-.004-.006-.003-.002-.004-.001-.004-.006v-.002l-.009-.003-.003-.004-.004-.004-.009-.005v-.002l-.004-.003-.004-.003-.004-.004-.003-.004-.004-.003-.002-.005h-.004l-.004-.003-.006-.007h-.004v-.004h-.006l-.005-.005-.002-.005-.004-.003h-.004l-.007-.006-.002-.002-.002-.004-.005-.002-.005-.002-.006-.002-.004-.005v-.002l-.007-.006h-.004l-.004-.005-.004-.001-.007-.004v-.002l-.005-.004-.004-.002-.007-.002-.004-.003-.004-.003-.005-.002-.006-.003-.004-.005v-.004l-.01-.002v-.001l-.004-.006h-.006l-.009-.006-.243-.101-.277.816-.275.818c-.177-.053-.256-.153-.262-.157M166.558 65.028l-3.288-2.902 1.516-1.9 3.286 2.903-1.514 1.899M68.025 175.475l-3.197-3 1.606-1.802 3.196 3.002-1.605 1.8M75.201 186.28l-3.17-2.132 5.323-8.399.219-.169-.208.151.006-.01.198-.145-.197.144.01-.017.185-.136c-.017-.024-.036-.046-.054-.07l2.227-3.513-2.916-1.958 1.87-2.954 8.944 6.012-1.858 2.929-2.854-1.92-7.725 12.187M94.589 194.684l-3.594-1.34 2.646-6.965-3.34-1.245-2.643 6.964-3.622-1.35 6.254-16.473 3.595 1.34-2.39 6.291 3.367 1.255 2.388-6.29 3.593 1.34-.086.23a1.616 1.616 0 0 0-.236-.048l-.182 1.147-5.75 15.144M112.848 198.285l-3.355-.446-.223-2.726-4.183-.554-.883 2.581-3.36-.444 6.504-16.419 3.483.462 2.017 17.546m-4.341-13.627l-2.475 7.232 3.068.406-.542-7.628-.051-.01m.68 4.685c.089 0 .212.02.346.042l.181.032h.002l.084-.525.909.09-.002-.001.002-.034v-.005a1.484 1.484 0 0 0-.116-.704l-.175-.42-.597-.09c-.177-.028-.376-.062-.598-.062l-.047.001.002.838.002.323v.002l.122.011-.122.058v.444h.007M122.058 199.486l-2.006-17.68 3.803-.52 5.277 10.417.066-.01-1.245-10.965 3.299-.45 1.625 14.333c-.39-.195-.856-.402-1.384-.691a13.99 13.99 0 0 1-.176.926c-1.113.297-1.616 1.156-1.208 2.313.139.394.388.75.668 1.137l-1.193.163-5.362-10.578-.05.007 1.263 11.138-3.377.46m10.134-1.384c.31-.297.623-.534 1.013-.612l.052.467-1.065.145M141.835 194.684l-3.238-8.624.014-.002-.13-.788.11-.026.727.198.408-1.32-1.738.313-2.33-6.207 3.569-1.36 2.825 7.521.05-.019.308-8.715 3.616-1.38-.513 9.149 6.952 7.207-3.737 1.425-6.392-7.067-.052.02 3.12 8.315-3.57 1.36m.275-8.082c-.037.112-.135.259-.093.343.048.093.222.135.344.201.035-.122.135-.262.091-.355-.044-.09-.222-.128-.342-.189m-2.928-6.193l-.127.096c-.1.073-.218.16-.334.272l-.007.002-.074.078 1.32 1.12.127-.094.27-.206v-.002l.003-.003-1.176-1.263.002.002-.004-.002m-.641 5.496l-.224-.595.154-.037.07.632M161.315 186.28l-4.34-6.557-9.312-5.73 2.413-1.627.085-.033.176-.046 1.16.478c.103-.227.132-.476.084-.723v-.003l-.01-.031 4.515 3.095-1.32-5.9 3.16-2.131 2.193 10.498 4.352 6.579-3.156 2.13m-6.013-9.508l1.355 1.12c.203-.23.414-.618.374-1.216a2.808 2.808 0 0 0-.038-.295h-.002v-.002l-1.765.358.013.147v-.003.003l.044-.086.019-.026m-5.215-4.411l1.007-.679.237.162-.664.276-.364.152h-.003l.005.002-.164.065.008-.002-.062.024m.583-.233l.662-.283.016.011-.678.272M172.933 175.475c-.151 0-.305-.005-.46-.016-1.81-.125-3.953-1.29-6.424-3.494-1.813-1.615-2.956-2.986-3.432-4.113-.477-1.126-.642-2.205-.497-3.238.147-1.033.685-2.017 1.621-2.954.776-.775 1.533-1.278 2.281-1.511.6-.187 1.259-.28 1.973-.28.175 0 .354.005.536.016.928.057 1.868.333 2.825.83.957.496 2.07 1.309 3.336 2.438 2.597 2.316 3.98 4.323 4.154 6.02.174 1.699-.389 3.195-1.682 4.49-1.205 1.209-2.615 1.812-4.23 1.812m-5.094-12.02h-.013a1.939 1.939 0 0 0-1.418.581c-.558.56-.706 1.191-.44 1.897.267.704.96 1.554 2.074 2.55l.826.737c1.357 1.21 2.293 1.964 2.806 2.263.435.253.872.379 1.314.379a2.21 2.21 0 0 0 1.608-.672c.312-.313.477-.707.496-1.182.019-.476-.165-.985-.554-1.528-.388-.543-1.213-1.377-2.474-2.502-1.129-1.006-1.976-1.679-2.543-2.018-.562-.337-1.122-.504-1.682-.504m2.05 7.288c-.023.112-.045.225-.064.332.08.001.163.006.242.006.052 0 .104-.002.154-.009l.031-.176c-.113-.065-.241-.104-.363-.153M184.23 159.869c-.977 0-2.012-.314-3.107-.94l-10.65-6.08 1.878-3.324 10.128 5.783c.621.354 1.177.531 1.67.531.074 0 .146-.003.218-.012.54-.06.956-.343 1.244-.849.266-.472.29-.95.072-1.436-.22-.487-.644-.91-1.277-1.27l-7.373-4.213-.005-.177-.574-.188-.097-.02-2.234-1.278 1.884-3.335 10.905 6.229c1.428.814 2.304 1.885 2.633 3.208.329 1.325.065 2.75-.8 4.271a7.831 7.831 0 0 1-1.216 1.651 1.607 1.607 0 0 0-.34-.036c-.19 0-.39.032-.594.1l-.165.052-.2.161-.034.031-.18.18.432.36a4.356 4.356 0 0 1-2.219.6m3.041-8.49c-.303-1.01-.318-1.67-.673-2.082a1.154 1.154 0 0 0-.873-.409c-.333 0-.675.145-.96.423-.59.57-.491 1.262.192 1.649.49.278 1.194.234 2.314.42M188.278 144.262l-2.198-.775 1.403-4.027 2.198.775-1.403 4.027"/>
            <path fill="#FAFBF6" d="M119.998 121.492l-.007-.056.091-.024.03.058-.105-.03-.009.052M106.582 138.26l-.527-.284-.41-.225 1.458-1.893.94.512h.003l-.732.943v.003l-.732.943M46.978 41.242c-.01-.015-.021-.028-.03-.043l-.128-.174h.004l1.197-.232-1.043.45M154.024 49.421a3.384 3.384 0 0 1-.238-.361l-.12-.179c.009.006.117.132.361.2l.38-1.032.38-1.029.336.128.011.008h.01l.005.007.013.004v.005l.006.007.009.002.006.003.006.004.006.004.008.003.006.002.008.004v.003l.008.006h.006l.006.008h.006l.009.006v.003l.006.007.009.002.005.003.008.003.003.004.003.002.009.007.005.002.006.004.003.005.006.007h.009v.004l.006.001.007.008.006.004h.006l.003.007.006.004.003.004.005.005.006.004.006.004v.003l.012.005.006.006.004.005.012.004v.003l.006.007h.006l.003.004.006.008v.002l.008.006.01.006.005.004.007.007.003.004.003.004c.228.203.364.44.478.623l.111.178h.009l-1.022.613-1.02.611M97.242 222.295v-.002l.003-.08c-.012-.327.02-.625.038-.89l.025-.225v.003l.003-.006 2.332.193-.021.25-.034.381-.003.197-2.343.18M96.754 110.647l-.049-.233-.098.038-.197-1.195-.369-.857.164-.104.193-.028c.094-.014.187-.022.28-.022.843 0 1.52.575 1.764 1.534l-1.556.566.09.203-.222.098M52.632 132.257l-.145-.219-.01-.016-.005-.004-.006-.01-.009-.01-.002-.007c-.074-.123-.138-.244-.2-.358l-.633-1.13.995-.647.418.934.654-.53v.002l.091.16c.07.131.139.256.205.36l.004.01.002.003.009.007.002.003.002.006.004.006h.002l.013.021-.662.678.102.23-.109.075-.002.001-.091-.21-.629.645M221.286 102.244a4.478 4.478 0 0 1-.256-.402l-.006-.003-.13-.204 1.794-1.792.27.321.014.025.033.043.038.06.074.115.04.07.018.028.12.194v.006l-2.01 1.539M212.369 120.252l-1.078-.511c.02-1.027.028-2.059.025-3.091.377.284.76.789 1.047 1.68l.035.127c.133.666.124 1.27-.03 1.795M222.017 153.866c-.098-.287-.2-.595-.309-.921l-.464-1.393.052.01-.401-1.298 1.2.827a16.14 16.14 0 0 0-.078 2.775M120.156 132.257v-.002l-.026-.047-.058-.085-.02-.018 1.818-1.049c.267.204.459.454.583.748l-2.297.453M63.26 198.285l-.296-.075c-.583-.281-1.16-.563-1.738-.85.048-.053.096-.102.141-.146l.112-.128.006-.001 2.142.793-.003.001-.226.258-.02.024-.103.1-.014.024M207.092 175.475l-1.804-.971.444-1.43.98.244.211.05.766.192-.597 1.915m-.169-2.107l.086-.129-.086.129M39.617 115.45l-1.2-.03c.025-.574.302-1 .758-1.171l.226.615.216.586M207.353 84.236l-.861-1.2h-.003l2.4.086-.03.12v.003c-.143.43-.613.772-1.304.947l-.202.044M7.908 96.241L6.04 94.997l.006-.008a.559.559 0 0 0 .062-.25.865.865 0 0 0-.09-.243l-.015-.023.18-.217 1.13-1.616-.63.935.665-.913.078.057c.184.133.337.292.474.48.243.335.41.754.496 1.252l.008.2c-.014.624-.186 1.157-.496 1.59M145.322 110.736l-.12-.063.013-.014.06-.097.002-.003.045.177M52.603 120.252l-.927-.346-.918-.368.007-.01v-.008c.03-.085.036-.27.014-.551-.157-.506-.29-.627-.345-.657l-.012-.004.81-1.658c.248.095.46.22.634.367l.005.004.005.002.002.005.005.004.007.004.005.002.005.006.002.003.005.005.21.207.002.005.005.002v.002l.004.007v.002l.008.006v.003l.002.004.007.004v.002c.381.448.536.972.622 1.26l.026.079.005.081c.024.265.038.547.005.834v.007a1.956 1.956 0 0 1-.1.457v.002l-.003.011-.097.225M120.187 137.059l-.135-1.102.144 1.098-.009.004m.016-.008l-.129-1.106.095-.04.108-.028.051 1.105-.125.069m.133-.07l-.035-1.112a.659.659 0 0 1 .11-.01c.307 0 .6.22.841.628l-.916.493M139.903 182.678l-1.844-.857.104-.06.01-.001c.161-.086.326-.153.466-.208l.177-.074.006.002-.003-.002 1.641.967-.003.002v.002l-.377.157-.177.072M204.983 176.676l-1.441-.186a1.963 1.963 0 0 0-.266-.027.25.25 0 0 0-.036.001l-.039-.826-.227.075-.087-.437.188-.396.096.067-.039-.664c.056-.006.11-.008.162-.008.103 0 .2.008.289.017l.199.025.144.026 1.362.157-.521 1.082.216 1.094M164.063 91.44l-.221-.776-.005.001h.005l-.226-.776.245.771h.003l-.236-.773c-.008 0 .012-.05.02-.144-.07-.245-.204-.33-.301-.37l-.077-.022.672-1.513.019.005c.903.243 1.508.828 1.693 1.65l.017.13c.007.362-.083.692-.261.97l-.003.002-.002.004c-.261.404-.702.7-1.279.826l-.262-.766-.003.001.242.77-.04.01M190.283 109.447l-.308-1.416-.25.05.25-.05-.062-.28-.012.002-.155.065-.022.015-.043.047.009-.064.501-5.572 1.891 5.516-.014.132c-.067.765-.676 1.346-1.597 1.524h-.003l-.062.013-.123.018M186.422 159.869l-.342-.489.142-.244.028-.042.158-.22.13-.07a.957.957 0 0 1 .472-.136c.094 0 .184.018.27.05-.269.466-.555.85-.858 1.15M108.045 227.097a15.556 15.556 0 0 0-1.2-.36l.023-.84h.016l.051.004h.025l.003.001h.008l.004.003.006-.001.01.001h.008v.003h.008l.007.002.023.005h.01l.209.07.004.003.002-.001h.005v.003h.005l.001.004.005.002.002.001.003.001.005.002h.002l.006.002c.142.073.255.17.344.246l.091.075.22.149.06.26c.028.125.04.247.034.365M99.439 180.277l.177-1.2c.079.011.155.027.23.05l-.407 1.15M91.283 127.455l-.03-.356-.014-.097 2.316-.748.021.172c.034.244.053.482.064.711l-2.357.318M81.92 104.645l-1.192-1.197-.005.003c.014-.02.07-.12.029-.365-.082-.208-.21-.515-.317-.573l.176-.732-.002-.001h.002l.178-.737c.58.068.981.27 1.272.526l.003.001.002.003.003.006h.005c.384.35.558.79.69 1.109l.02.055.016.07c.178.999-.342 1.526-.806 1.792l-.073.04M110.09 189.881l-.003-.001-.284-.043c-.209-.03-.4-.057-.54-.057h-.01v-.61l.19-.079-.19-.015v-.003l-.003-.443-.003-1.148c.024-.002.049-.002.073-.002.346 0 .657.046.933.086l.932.122.273.576c.15.316.215.647.181.965v.007l-.003.046.003.002-1.418-.124-.131.721M136.338 119.051l-.4-.249-.058-.003-.002-.009-.027.008v-.002l.03-.006v-.027l-1.423-.894.012-.02.005-.013v-.003l.16-.236.006-.004.003-.003.272-.311.147-.154.35-.475.563.02c.504.015.94.16 1.283.41l.008.006v.004c.395.287.66.71.758 1.231v.023l.02.122.014.314-1.102.01-.387.003-.093.099-.14.16M228.107 93.84l-.047-.414-1.163-.447 1.554-1.194.504-.346.503.363.322.127.004.131.715.557-.639.515.05.561-1.803.147M225.787 108.46l-.069-.058-.111-.1.173-.269c.001.142.004.285.007.427M144.517 50.622l-.455-.002c.01-.152.056-.293.115-.426l.004-.01.01-.01v-.002c.115-.227.279-.42.427-.577l.14-.17v-.004l.504.113c-.244.378-.492.74-.745 1.088M176.476 149.254l-1.2-.38.172.02 1.02.186.008.174M124.525 11.005l-1.477-.784.013-.032c.16-.35.168-.77.03-1.249-.326-1.245-2.142-2.82-4.24-3.685l.55-1.453c1.139.903 2.42 1.642 3.784 2.21.73.728 1.285 1.545 1.509 2.4.119.425.17.85.158 1.26l-.002.007v.002a3.419 3.419 0 0 1-.287 1.248l-.038.076M221.348 168.272l-.453-.468 1.2-.732c-.165.374-.357.739-.573 1.094l-.174.106M219.438 157.468l-.944-1.098.15-.063.098-.04.952 1.094-.158.066-.094.04h-.004M156.765 176.676l-1.798-.889-.025.021-.058.068v-.002.002l-.018-.116 2.342-.285v.002h.003c.024.082.041.16.05.234.053.474-.226.783-.496.965M215.53 149.064l-.496-.922-.142-.298c.088-.265.176-.532.262-.798l.212-.102.53-.926.481.442.012-.007.01.009 2.095-1-1.046 2.005.3.294-.946.786-.753.446-.122-.115-.397.186M198.832 44.62l.063-.055-.77-.263-.212-.048-1.029-.254.094-.115.964.341-.961-.342.105-.096c.045-.037.092-.07.14-.103.047-.013.091-.029.132-.047a.202.202 0 0 0 .094-.085l.116-.06.136-.074h.002l1.58.95v.003l-.3.163-.014.01-.093.046-.047.028M155.385 213.892v-.002l-.043-.01-.306-.095-.17-.055.275-.779c.309-.085.62-.172.926-.26l-.682 1.2M55.224 127.455c-.621-.1-1.08-.487-1.199-1.031l-.002-.016.82-.146.045-.008.336 1.2M64.217 152.665l.052-.045-.052.045m-.002 0l.132-.116-.321-.904-.005.005v-.002l.005-.003-.399-1.13c.26-.17.53-.25.792-.25l.062.001.347 1.877-.48.408v.001l-.133.113M47.843 111.848l-1.793-.885-.005.005.003-.003.004-.015a1.445 1.445 0 0 0-.002-.325c-.092-.211-.228-.474-.375-.549l-.055-.013.138-1.09c.365.008.786.008 1.273.053-.052-.276-.09-.535-.122-.778l.006-.002c.394.34.72.852.979 1.532l.046.121.02.134c.109.696.072 1.307-.117 1.815M84.073 143.277l-.074-.432.074.432M166.872 216.293l-.258-.036-.942-.112-1.201-.141.011-.032c.03-.134.084-.26.154-.384.098-.178.236-.344.41-.496l1.823 1.197h-.003.003-.003l.006.003h-.003.003M23.641 97.442l-.831-.858 1.2-.343c-.126.4-.249.799-.369 1.2M92.589 99.843c-.615-.272-1.081-.763-1.35-1.424l2.308-.977.084.131.003.003.006-.003-1.051 2.27M43.463 128.655c-.136-.407-.234-.5-.244-.507l1.107-1.894c.78.39 1.11 1.167 1.294 1.716l-1.076.343-1.081.342M72.858 57.825l-.634-.13-1.394-.264.004-.027.073-.333.003-.008v-.003l.114-.368.07-.214.12-.508.384-.252a1.62 1.62 0 0 1 .895-.294c.265 0 .518.08.738.238l-.653 1.318.489.168v.001a4.07 4.07 0 0 1-.138.455l-.07.22M91.594 119.051l-1.438-1.73-.042.04-.047.089-.001-.001-.027-.16 1.146-.324 1.14-.315c.293.961.016 1.859-.73 2.401M84.673 144.262l-.12-.603-.005-.047-.009-.045-.01.022v-.006l-.082.168-.204.441.28-.64-.003-.005-.484-1.527.251-.118.076-.02a.915.915 0 0 1 .677.118l.008.008.116.079.073.065-.677 1.37.176.714-.13-.404.021.12.046.31m.027-1.117l-.147.337.147-.337M119.67 227.097l-2.02-.846.108-.26.002-.01v-.004c.217-.474.534-.897.948-1.26l.669.932.664.934a1.207 1.207 0 0 0-.37.514m.38-.523l-.674-.927-.669-.93.017-.02.665.941.662.936M103.37 51.822l-.126-1.2 3.593.405.009.075-.684.228-2.792.492M22.272 90.239l-.663-.785 1.736-1.616.665.787v.003l-.865.8-.873.81M100.676 141.86l-1.8-.87-.434-.294.035-.465.041-.304.016-.1.002-.022.003-.04.003-.006-.003-.004 1.512-.066.19-.007.602-.028-.01.287-.013.073-.017.129-.026.16-.101 1.558m-.625-2.172l.17-.23-.17.23M74.41 204.288c-.394-.182-.788-.368-1.179-.555l.404-.646.01.004.016.008v.001l.006.004h.002l.006.005.003.002.029.018.01.005.001.002.014.01.008.003.006.005v.001l.014.009.03.022.004.004.002.002.004.004h.004l.005.005h.002l.002.002.006.004v.002l.003.005v.001l.006.002.002.003.006.004.001.002.006.003.002.003.002.004.004.002.006.002v.002l.005.005.002.002.004.004h.003v.005l.002.004.006.003.004.002v.002l.006.004.004.004.002.003.005.002v.002l.003.005.002.003.002.003.002.001.006.002v.001l.006.006v.003l.002.004h.002c.157.17.24.367.304.513l.057.129.146.253-.022.08M197.76 198.285l-.468-.24-.014-.059-.057.024-1.537-.794h.003l.08-.152.005-.006v-.002l.19-.305.108-.162.248-.485.504-.133c.223-.058.438-.087.644-.087.273 0 .528.05.758.144h.006l.013.005c.464.193.837.57 1.034 1.096l.008.026-1.091.448-.158.072.077.036-.003.01-.247.397-.103.167M119.687 127.455v-.003l-.001.003-.835-2.178a2.65 2.65 0 0 1 1.031-.223c.513 0 .983.178 1.37.52l-1.565 1.88M56.67 25.41c-.567 0-1.067-.118-1.446-.33a30.05 30.05 0 0 0 1.597-.87l.804 1c-.14.053-.288.1-.452.145l-.188.052-.203.002c-.038.002-.074.002-.111.002M101.377 225.897l-.534-1.27.076.008 1.774-1.14.109.198.02-.027.584 1.176 1.039.123-.53.913a24.073 24.073 0 0 0-2.538.019M151.18 173.074l-.91-.623-.139.06-.067.044.009-.008.05-.031-.008.002.13-.085-.004-.003h.002l.286-.197.522-.36v.002l-.52.368.533-.353.175.198.008.041v.003c.038.323.015.646-.066.942M138.9 186.28l-.079-.193-.097-.782-.212.046-.453-1.084 2.401-.388-.563 1.636-1.005-.246-.153.032.18.976-.018.003M104.458 24.21c-.006-.049-.01-.1-.013-.15l.001-.169c.02-.291.067-.93.411-1.502l.003-.004.006-.011.003-.008.005-.002c.125-.2.284-.391.495-.555l1.187 1.7-.283.39.518-.043-.029-.088.081-.102-.003.006.006-.008a.998.998 0 0 0-.05.272l-.538.058-.045-.001-.005.008c-.583.064-1.167.135-1.75.21M76.833 176.676l.032-.054.624-.44-.656.494m.051-.083l.003-.004.59-.419-.593.423m.035-.051l.391-.6c.054.068.109.134.16.202l-.55.398M48.948 38.617l-.927-.366c.167-.2.29-.449.422-.835l1.979.3c-.493.297-.987.599-1.474.9M227.164 128.655l-.174-.301-.093-.164.829-1.936c.095.12.174.253.239.369l.047.09.002.003.048.09.035.056v.006l-.933 1.787M58.163 134.658l-.086-.067v-.002l-.009-.001-.221-.227a1.494 1.494 0 0 1-.222-.348l1.197-.275 1.204-.28-.931.606-.004-.003-.928.597M35.283 115.45l-.127-.095c-.127-.09-.242-.176-.341-.225l.543-2.082.057.028.008.003c.174.095.33.21.473.312l.12.087-.367.986-.366.986"/>
            <path fill="#FAFBF6" d="M46.833 108.495l-.012-.051v-.004l1.451-.268.926-.172c.005 0 .01 0 .014-.002v.066l.01.043-1.19.195-1.2.193M186.655 39.817l-.79-.088a93.037 93.037 0 0 0-2.186-1.824l.216-.137.012.01.042-.026.052.023 3.28-1.56-2.163 2.31 1.537 1.292M111.797 211.49c-.376 0-.747-.295-1.06-.713a3.619 3.619 0 0 1-.29-.487c.798.068 1.6.123 2.401.166-.062.217-.175.43-.344.634-.23.283-.469.4-.707.4M222.095 123.853c.029-.56-.03-1.088.066-1.117.177-.056.37-.083.563-.083.182 0 .365.024.537.066l.035.808c-.284.19-.683.203-1.2.326M130.556 197.085c-.312-.404-.59-.775-.744-1.188-.454-1.207.106-2.105 1.345-2.414-.146.636-.264 1.085-.159 1.489.165.657.861 1.087 1.523 1.087.244 0 .484-.059.691-.187l.045.372c-.434.081-.783.329-1.127.639l-1.574.202M193.283 198.285c-1.345-.075-2.257.03-2.909-.208-.903-.328-.895-1.33-.141-1.819.386-.249.818-.374 1.231-.374.437 0 .851.14 1.163.423.434.4.377 1.058.656 1.978M221.944 167.072c-.001-.358.06-.763.179-1.005a.982.982 0 0 1 .124-.196c-.087.405-.189.805-.303 1.2M187.28 152.665c-1.394-.178-2.27-.136-2.88-.404-.85-.372-.972-1.04-.24-1.589.356-.268.782-.408 1.195-.408.398 0 .784.13 1.087.395.442.396.46 1.033.838 2.006M206.725 150.264c-.343 0-.694-.177-.966-.5-.28-.335-.252-.942-.47-1.9 1.005.229 1.692.221 2.156.554.254.186.337 1.12.117 1.405-.234.302-.532.441-.837.441M141.786 187.48c-.12-.147-.294-.24-.342-.445-.041-.184.056-.51.093-.755.119.135.296.218.34.417.043.204-.056.513-.091.783M169.3 170.848c-.077 0-.157-.006-.236-.007l.062-.342c.12.05.244.09.356.158l-.031.181c-.049.008-.1.01-.15.01M173.569 207.89c-1.463 0-3.256-.909-4.296-2.221a100.962 100.962 0 0 0 6.22-3.782c.342.255.616.556.788.891.643 1.244-.413 4.39-1.65 4.915a2.743 2.743 0 0 1-1.062.196M213.122 132.257c-1.08-.024-2.07-.3-3.032-.735a70.56 70.56 0 0 0 .421-2.567 8.88 8.88 0 0 1 2.23-.3c.314 0 .63.02.95.059a73.009 73.009 0 0 1-.57 3.543"/>
            <path fill="#FAFBF6" d="M132.52 195.884c-.704 0-1.445-.437-1.621-1.105-.112-.41.014-.867.169-1.513.07-.287.145-.61.208-.984.627.307 1.178.527 1.641.734l.34 2.678c-.22.13-.476.19-.736.19M143.78 222.295c-.967-.737-1.694-1.048-2.053-1.66-.196-.336.077-1.487.411-1.722.218-.15.44-.22.652-.22.532 0 1.004.437 1.22 1.127.162.524-.096 1.234-.23 2.475M183.16 197.085c-.2 0-.485-.232-.682-.411l.153-.693c.256-.123.57-.07 1.048-.097-.182.558-.23 1.093-.422 1.178a.2.2 0 0 1-.097.023M173.426 111.848c-.083 0-.171-.005-.26-.01a3.717 3.717 0 0 0-.255-.01h-.037c.05-.338.098-.668.178-1.18.51.179.99.256 1.014.385.044.239-.079.584-.296.741-.077.058-.201.074-.344.074M217.397 152.665c-.482 0-.968-.26-1.174-.69-.3-.619-.066-1.29.552-1.59.17-.081.342-.12.512-.12.443 0 .855.266 1.066.733.288.649.125 1.275-.413 1.544-.17.084-.356.123-.543.123M203.94 161.07c-.019-.442.09-.877.297-1.201l-.297 1.2M217.863 155.067c-.223 0-.406-.12-.52-.367-.14-.306.025-.65.364-.788a.664.664 0 0 1 .235-.046c.222 0 .408.13.504.37.133.326-.018.664-.383.803a.779.779 0 0 1-.2.028M210.656 169.473c-.203 0-.458-.182-.525-.418-.103-.346-.016-.675.318-.77a.4.4 0 0 1 .1-.013c.185 0 .415.106.742.174-.194.432-.263.748-.443.947a.25.25 0 0 1-.192.08M214.483 150.48c-.274-.01-.53-.101-.791-.155l.381-.268a.48.48 0 0 1 .092-.008c.171 0 .413.061.727.103-.18.158-.31.328-.41.328M219.712 150.475l-.2-.167c-.017-.067.064-.148.111-.254.113.06.263.125.256.148-.033.097-.107.185-.167.273M81.41 60.226c-.172 0-.482-.015-.806-.027l-.136-.104-.033.018c.106-.43.134-.763.316-1.044.023-.033.112-.044.231-.044.094 0 .206.007.32.013.113.006.225.013.319.013h.014c-.015.386-.01.781-.088 1.161-.002.01-.053.014-.137.014M111.638 35.154l-.156-.139c.104-.044.206-.09.306-.14l.025.195-.175.084M122.46 37.55l-.156-.1.223-.168.074.17-.14.098M73.891 126.21600000000001c-.215-.048-.455-.132-.66-.173.205.041.445.125.66.173M22.874 103.444c-.572-.117-1.082-.333-1.463-.649-1.077-.895-1.372-3.908-.459-4.704.505-.441 1.321-.65 2.234-.65.268 0 .545.018.824.054a85.765 85.765 0 0 0-1.136 5.95M61.318 135.858c-.19-.67-.086-1.382.335-1.871.307-.356.784-.53 1.282-.53.558 0 1.144.22 1.547.65.143.152.259.34.346.55a28.285 28.285 0 0 1-3.51 1.201M46.82 109.447c-.545-.069-1.017-.069-1.427-.082-.372-.013-.694-.038-.974-.14l2.264-.979c.036.375.08.775.137 1.2M39.249 62.627c-1.154-.117-1.922-.115-2.48-.355-.889-.382-1.016-1.065-.25-1.628.374-.275.82-.418 1.253-.418.417 0 .82.132 1.136.404.387.34.464.853.709 1.595-.125.135-.245.266-.368.402M14.406 79.434c-.954-.247-1.54-.258-1.928-.54-.613-.439-.63-1.117-.052-1.61a.957.957 0 0 1 .623-.251c.323 0 .626.193.828.53.243.418.28.951.53 1.871M60.26 61.426c-.342 0-.692-.176-.963-.5-.278-.337-.253-.942-.472-1.9 1.005.228 1.695.221 2.157.556.253.185.339 1.118.116 1.402-.233.303-.532.442-.837.442M69.63 119.051c.067-.522 0-1.01.18-1.135a.453.453 0 0 1 .262-.065c.22 0 .492.086.66.2.129.085.134.691-.001.79-.223.175-.604.133-1.101.21M43.219 141.86c-.586-.121-.988-.09-1.125-.267-.136-.174-.068-.599.037-.851.021-.051.174-.082.33-.082.138 0 .28.024.331.082.185.194.221.543.427 1.119"/>
            <path fill="#FAFBF6" d="M73.931 126.47h-.01a2.01 2.01 0 0 1-.2-.012c-.16-.016-.338-.043-.49-.057.015-.121.027-.242.04-.363.39.03.774.056 1.16.084-.11.118-.139.283-.343.334l-.01.001a.652.652 0 0 1-.144.014h-.003M22.033 139.46c-.691 0-1.28-.318-1.532-.915-.256-.615.088-1.391.232-2.687 1.406.67 2.375.903 2.88 1.425.705.724.459 1.57-.64 1.993-.32.123-.64.184-.94.184M58.042 129.856c-.816 0-1.417-.436-1.578-1.09-.145-.616.138-1.28.311-2.512 1.437.734 2.415 1.015 2.88 1.527.745.812.336 1.646-.936 1.982a2.636 2.636 0 0 1-.677.093"/>
            <path fill="#DD0A0F" d="M63.479 67.631c.054-.126.111-.263.162-.404.045.03.09.056.135.084l-.297.32"/>
            <path fill="#FAFBF6" d="M53.066 47.02c-.086-.036-.153-.077-.176-.117-.135-.23-.026-.53-.019-1.083.544.25.98.363 1.152.512-.322.229-.638.456-.957.688M10.222 92.64l-.603-.248c-.057-.245.063-.52.14-.953.471.25.761.401 1.046.558-.19.22-.342.48-.583.643M89.48 114.249c-.226-.193-.624-.392-.642-.596-.013-.192.362-.407.568-.605.23.2.601.398.632.61.014.188-.366.393-.558.591M48.735 122.907c-.241-.101-.517-.198-.714-.314l.254-.195c.328.029.635.093.946.147-.153.12-.32.237-.486.362M109.663 39.817c-.154 0-.331-.067-.472-.129-.77-.326-1.432-1.413-1.016-2.08.348-.566.697-1.094 1.588-1.302a3.517 3.517 0 0 1 1.885.083l-1.222 3.392c-.24.006-.478.01-.709.033-.017.003-.036.003-.054.003M141.188 107.046c-.484 0-.984-.143-1.29-.381-.626-.49-.85-1.59-.406-2.18.523-.703 1.3-1.04 2.262-1.04.066 0 .132.001.2.005.952.039 1.498.603 1.94 1.207.35.479.063.97-.057 1.49h-.092c-.586 0-1.028.097-1.459.529-.255.258-.67.37-1.098.37m-.595-2.727c.118.552.37.685.73.708l.132-.165-.862-.543M170.049 99.843c-.743 0-1.52-.436-1.86-1.118-.365-.733.17-2.03.961-2.367.19-.08.403-.117.626-.117.452 0 .945.152 1.364.407l.534 2.167c-.268.4-.634.763-.98.905a1.691 1.691 0 0 1-.645.123m-.264-2.33c.001.096.008.193.01.29l.255.067c.032-.232.07-.471.104-.707-.239.022-.34.08-.354.155a1.21 1.21 0 0 0-.015.195M90.096 111.848c-.453 0-.912-.268-1.128-.712-.295-.61-.074-1.28.52-1.565.176-.085.367-.124.555-.124.473 0 .93.249 1.112.66.232.544-.037 1.334-.547 1.614-.16.087-.336.127-.512.127M58.825 71.287l-1.2-.513c.5.066.93.227 1.154.46.017.018.033.035.046.053M92.493 97.442c-.437 0-.892-.143-1.117-.38-.155-.165-.175-.34-.078-.5l2.036-.32c.076.04.142.09.194.144.287.314-.004.82-.558.99a1.68 1.68 0 0 1-.477.066M130.835 109.447c-.518 0-1.032-.161-1.157-.443-.095-.208.14-.468.186-.6.325-.108.66-.158.964-.158.543 0 .996.156 1.155.405.2.318-.03.533-.45.684a2.064 2.064 0 0 1-.698.112M138.642 110.647c-.264 0-.497-.13-.567-.36-.05-.173.028-.527.138-.652a.62.62 0 0 1 .448-.188c.267 0 .526.166.588.449.047.196-.07.447-.095.581a.876.876 0 0 1-.512.17M114.028 110.647c-.325 0-.792-.207-1.18-.3.123-.265.244-.539.405-.9l.796 1.2h-.02M103.977 95.04c-.24 0-.49-.205-.733-.309.102-.305.153-.785.328-.874a.18.18 0 0 1 .08-.017c.186 0 .46.233.793.39-.197.38-.305.788-.44.81h-.028M85.867 125.313c-.19 0-.42-.108-.63-.165.11-.122.18-.306.345-.346a.421.421 0 0 1 .092-.008c.177 0 .43.082.763.137-.238.185-.36.357-.528.38a.532.532 0 0 1-.042.002M84.055 113.048l-.079-.055-.002-1.145a.292.292 0 0 1 .083.094c.089.163.006.597-.002 1.106M142.939 85.576a.669.669 0 0 1-.155-.153l.083-.126.072.28M93.696 107.046l-.056-.297.115-.092.005.353c-.021.011-.042.025-.064.036m.163-.092l-.083-.317c.318-.263.638-.526.958-.792l.107.547c-.33.195-.657.377-.982.562M126.852 100.066c-.266 0-.528-.077-.798-.121.071-.111.096-.293.222-.31.057-.01.121-.015.189-.015.206 0 .46.04.79.065-.193.189-.276.371-.388.38h-.015M84.155 110.647c-.08-.195-.16-.391-.236-.585l-.001-.615h.002c.1 0 .153.329.235 1.2M94.393 127.67c-.254 0-.545-.046-.753-.117l.144-.3c.068-.01.14-.013.222-.013.22 0 .49.03.835.05-.159.185-.227.374-.351.378l-.097.002M110.594 52.04c-.137-.054-.244-.09-.348-.129l-.032-.057c.037-.08.071-.165.107-.25.118.046.25.078.353.148.027.022-.04.149-.08.288M72.008 60.434l-.12-.359c.01-.019.021-.038.03-.058.11.06.262.122.256.147-.035.098-.105.183-.166.27M162.147 108.367l-.176-.057.007-.166.19-.018-.021.24M145.289 114.408l-.174-.285.078-.033.216.245-.12.073M140.542 122.745l-.165-.025.002-.16.165.025-.002.16M121.336 92.75l-.226-.093.106-.128.178.062-.058.16M58.848 69.943l-.14-.1.092-.126.143.096-.095.13M128.44 109.575l-.14-.124.073-.132.238.164-.171.092"/>
            <path fill="#FAFBF6" d="M140.278 105.845c-.503-.039-.853-.263-1.018-1.2.558.428.877.671 1.2.921l-.182.28M170.555 98.642l-.258-.114c-.003-.165-.01-.33-.011-.492 0-.113.004-.222.015-.332.015-.125.117-.225.36-.262-.036.4-.074.806-.106 1.2M64.377 77.033l-1.95-1.733.742-.668c.889.396 1.765.54 2.634.548a3.608 3.608 0 0 0-.02.082c.084.016.166.033.245.047l-1.65 1.724M91.491 47.02c-.312-.006-.618-.234-.875-.554-.236-.295-.385-.665-.577-1.006l.142-.164 1.31 1.724m.67-.385l-.629-2.016c.148.054.286.12.396.224.541.509.707 1.197.233 1.792M65.08 74.632c-.082-.012-.166-.026-.252-.04a2.64 2.64 0 0 1 .02-.07c.143-.457.36-.819.664-1.09l.516.38-.949.82M140.46 101.043c.047-.576-.044-1.01.12-1.12a.708.708 0 0 1 .367-.08c.198 0 .42.042.595.096.1.032.177.536.06.651-.193.187-.553.236-1.142.453M139.118 88.046c-.026-.117-.061-.235-.07-.352l.182-.065c.095.076.163.18.241.275-.115.046-.235.096-.353.142M202.276 51.76800000000001l-.087-.023.087.023m-.154-.042M150.89 29.012a4.98 4.98 0 0 1-.585-.034c-.521-.191-1.047-.378-1.573-.56a2.166 2.166 0 0 1-.163-.13c-.843-.738-1.154-2.992-.69-4.078 2.364.764 4.694 1.607 6.987 2.53-.152.418-.494.846-1.028 1.3-.757.642-1.883.972-2.948.972M212.902 79.434a86.1 86.1 0 0 0-1.611-3.45c.294-.048.594-.098.903-.151.126 1.251 2.146 1.952 1.285 3.574-.193.008-.385.018-.577.027M206.707 78.234c-.213-.239-.364-.566-.422-1.01a1.919 1.919 0 0 1-.015-.191c.148.399.293.798.437 1.2M193.218 61.426c-.758-1.219-1.54-2.423-2.336-3.601.62.076 1.235.354 1.68.825.622.658.845 1.817.656 2.776M111.644 33.82l-.006-.009.02-.002-.014.01M122.453 37.416a1.497 1.497 0 0 1-.74-.575c-.565-.82-.62-2.207-.113-2.914.027-.039.057-.076.088-.113l.765 3.602M141.835 5.091c-.121-.03-.238-.056-.349-.08.1-.034.2-.066.299-.098.015.058.032.117.05.178M196.963 66.228c-.232-1.372.037-2.007.953-2.4.418 1.135.044 1.726-.953 2.4M196.884 43.419c.067-.522.004-1.013.181-1.136a.453.453 0 0 1 .262-.065c.22 0 .492.087.66.2.106.07.128.494.057.697a.195.195 0 0 1-.06.095.517.517 0 0 1-.084.053c-.228.111-.576.087-1.016.156M122.46 23.013h-.015l.002-.006c.004.002.008.005.013.006M150.091 6.377c-.078 0-.157-.007-.238-.008.024-.11.042-.225.067-.34.12.05.245.09.355.156l-.03.181a.93.93 0 0 1-.154.01M202.386 52.04h-.01c-.025 0-.051-.002-.08-.004a1.402 1.402 0 0 1-.111-.008l-.062-.007-.064-.007-.05-.006a7.183 7.183 0 0 0-.322-.038c.014-.124.023-.244.037-.365.39.033.77.06 1.163.085-.111.12-.145.284-.349.335l-.014.003a.628.628 0 0 1-.133.011h-.005M188.287 54.223a118.057 118.057 0 0 0-2.207-3.195c.012-.13.026-.265.037-.406 1.044.892 1.755 1.233 2.095 1.857.34.623.349 1.259.075 1.744M163.95 32.614c-.202 0-.484-.231-.68-.409l.153-.696c.254-.12.566-.066 1.048-.096-.183.56-.23 1.095-.42 1.176a.193.193 0 0 1-.1.025M208.315 54.223c-.784 0-1.438-.416-1.7-1.134-.112-.302-.207-.608-.33-.966-.239.03-.413.05-.541.05-.334 0-.358-.14-.402-.628-.027-.26-.059-.523-.053-.785.03-.744.446-1.177 1.214-1.277a9.348 9.348 0 0 1 .806-.062c.642 0 1.146.264 1.39.861.177.425.445.74.796 1.047.24.204.416.517.517.813.273.845-.195 1.738-.994 1.975-.241.072-.477.106-.703.106"/>
        </g>
    </g>
</svg>
