<svg xmlns="http://www.w3.org/2000/svg" width="24" height="24" viewBox="0 0 24 24">
    <path fill="#000" fill-opacity=".85" fill-rule="nonzero" d="M14.28.15c-.2-.2-.5-.2-.7 0-1.003 1-1.153 2.45-.602 3.65L6.766 9c-.652.55-.702 1.6-.1 2.2l1.653 1.649-5.712 5.7c-.05.05-.05.1-.1.1L.052 23.247c-.1.2-.05.45.1.6.15.15.401.2.602.1l4.559-2.35c.1 0 .15-.05.2-.1l5.711-5.7 1.604 1.6c.651.65 1.653.55 2.204-.1l5.21-6.199c.451.2.902.35 1.403.35.852 0 1.603-.35 2.205-.9.2-.2.2-.5 0-.7L14.28.15zM4.913 20.648l-3.207 1.65 1.654-3.1 5.661-5.65 1.503 1.5-5.611 5.6zm9.369-4c-.2.2-.552.25-.752.05L7.417 10.5c-.2-.2-.2-.55.05-.75l6.162-5.2 5.812 5.95-5.16 6.15zm7.414-6.249c-.55 0-1.102-.2-1.503-.65-.6-.55-5.31-5.25-5.911-5.9-.702-.7-.802-1.8-.301-2.65l8.818 8.85c-.351.25-.702.35-1.103.35z"/>
</svg>
