<svg xmlns="http://www.w3.org/2000/svg" width="56" height="56" viewBox="0 0 56 56">
    <g fill="none" fill-rule="evenodd">
        <circle cx="28" cy="28" r="28" fill="#EFF4FF"/>
        <path fill="#5067EB" fill-rule="nonzero" stroke="#5067EB" stroke-width=".4" d="M35.541 36.139a2.958 2.958 0 0 1 2.987 2.986 2.958 2.958 0 0 1-2.987 2.987 2.958 2.958 0 0 1-2.986-2.987 2.958 2.958 0 0 1 2.986-2.986zm-11.946 0a2.958 2.958 0 0 1 2.986 2.986 2.958 2.958 0 0 1-2.986 2.987 2.958 2.958 0 0 1-2.987-2.987 2.958 2.958 0 0 1 2.987-2.986zm11.946 1.194c-.955 0-1.792.837-1.792 1.792 0 .956.837 1.792 1.792 1.792.956 0 1.792-.836 1.792-1.792 0-.955-.836-1.792-1.792-1.792zm-11.946 0c-.956 0-1.792.837-1.792 1.792 0 .956.836 1.792 1.792 1.792.955 0 1.792-.836 1.792-1.792 0-.955-.837-1.792-1.792-1.792zM17.62 15.83c.24 0 .598.24.598.478l.597 3.106h8.363c.358 0 .597.24.597.598s-.239.597-.597.597h-8.124l2.15 10.752 17.443-2.27.477-2.03c.12-.36.359-.598.717-.479.359.12.597.478.478.598l-.597 2.389c0 .239-.24.478-.478.478l-17.442 2.39c.478.835 1.433 1.313 2.389 1.313h13.62c.358 0 .597.24.597.598s-.24.597-.598.597H24.073c-1.912 0-3.704-1.434-4.062-3.345l-2.867-14.575h-3.107c-.358 0-.597-.239-.597-.597 0-.359.239-.598.597-.598zm17.92-2.389c3.584 0 6.571 2.987 6.571 6.57 0 3.585-2.987 6.571-6.57 6.571-3.585 0-6.571-2.986-6.571-6.57s2.986-6.571 6.57-6.571zm0 1.195a5.354 5.354 0 0 0-5.376 5.376 5.354 5.354 0 0 0 5.376 5.376 5.354 5.354 0 0 0 5.376-5.376 5.354 5.354 0 0 0-5.376-5.376zm3.226 2.628a.577.577 0 0 1 .836 0 .578.578 0 0 1 0 .836l-4.778 4.779c-.12.12-.359.12-.478.12-.12 0-.359 0-.24-.12l-2.389-2.39a.577.577 0 0 1 0-.836.577.577 0 0 1 .837 0l1.911 1.912z"/>
    </g>
</svg>
