<svg xmlns="http://www.w3.org/2000/svg" width="60" height="60" viewBox="0 0 60 60">
    <g fill="none" fill-rule="evenodd">
        <circle cx="30" cy="30" r="30" fill="#EFF4FF"/>
        <g>
            <path d="M9.928 13.722c.985 2.17 2.546 3.736 4.364 4.235.202.057.407.1.615.128.208.028.419.043.632.043 1.083 0 2.106-.375 3.013-1.038.125-.09.247-.188.367-.29 1.8-1.53 3.07-4.248 3.308-7.417.048-.318.07-.643.076-.972L21.22 9.652c.077-.165.107-.362.106-.58-.007-1.53-1.634-4.104-1.634-4.104-3.582 2.59-8.907 0-8.907 0-.38.15-.626.518-.782.992-.293.885-.269 2.137-.195 3.037.053.655.132 1.124.131 1.124-.4-.28-.768-.425-1.068-.501.137 1.501.508 2.894 1.056 4.1z" transform="translate(14.4 13.2)"/>
            <path fill="#5067EB" fill-rule="nonzero" d="M7.922 9.342c.006.072.011.145.018.217.486 5.498 3.703 9.746 7.6 9.746 3.947 0 7.197-4.36 7.618-9.96.058-.403.088-.815.088-1.235 0-.42-.03-.831-.088-1.233C22.593 2.983 19.398 0 15.54 0c-3.859 0-7.054 2.985-7.618 6.88-.058.402-.088.813-.088 1.231 0 .17.007.339.017.506.013.244.037.486.071.725zm1.887-.344c-.074-.9-.098-2.153.195-3.037.156-.474.402-.842.782-.992 0 0 5.325 2.59 8.907 0 0 0 1.627 2.574 1.634 4.103 0 .218-.03.416-.106.58l1.082-1.242c-.005.33-.028.654-.076.972-.238 3.17-1.508 5.887-3.308 7.418-.12.102-.242.199-.367.29-.907.663-1.93 1.038-3.013 1.038-.213 0-.424-.015-.632-.044-.208-.027-.413-.07-.615-.127-1.818-.5-3.38-2.065-4.364-4.236-.548-1.206-.919-2.6-1.056-4.1.3.075.667.22 1.068.5 0 0-.078-.468-.131-1.123z" transform="translate(14.4 13.2)"/>
            <path fill="#5067EB" fill-opacity="0" fill-rule="nonzero" stroke="#5067EB" stroke-width="1.241" d="M22.6 18.156c-.311-.057-.627-.104-.948-.131 0 .012-.004.026-.005.043v.007c-.003.033-.009.067-.011.098l-.002.01c-.032.312-.141.615-.322.9-.883 1.872-3.304 5.138-4.803 7.086l-.285-4.055c.39-.2.723-.518.952-.895.186-.31.305-.655.305-1.006 0 0-1.051.466-2.125.466-1.073 0-2.125-.466-2.125-.466 0 .324.1.642.262.934.228.405.581.754.993.966l-.29 4.162c-1.41-2.004-3.804-5.534-4.543-7.395-.11-.22-.181-.448-.207-.686-.005-.042-.012-.08-.014-.124 0-.014-.005-.028-.005-.044-.142.013-.283.03-.423.047-.018.004-.035.005-.053.008-4.898.68-8.667 4.885-8.667 9.97 0 5.562 4.509 5.549 10.07 5.549h10.371c.745 0 1.47 0 2.168-.013 2.565-.205 7.347-.877 7.347-5.447 0-4.722-3.72-9.26-7.64-9.984z" transform="translate(14.4 13.2)"/>
            <path fill="#5067EB" d="M12.931 19.903L14.486 22.113 12.931 29.603 15.262 32.682 17.678 29.603 16.224 22.113 17.678 20.269z" transform="translate(14.4 13.2)"/>
        </g>
    </g>
</svg>
