<?xml version="1.0" encoding="UTF-8"?>
<svg width="16px" height="14px" viewBox="0 0 16 14" version="1.1" xmlns="http://www.w3.org/2000/svg" xmlns:xlink="http://www.w3.org/1999/xlink">
    <!-- Generator: Sketch 59.1 (86144) - https://sketch.com -->
    <title>Artboard</title>
    <desc>Created with Sketch.</desc>
    <g id="Artboard" stroke="none" stroke-width="1" fill="none" fill-rule="evenodd">
        <path d="M8.842,0.432 L10.464,3.719 C10.577,3.947 10.794,4.106 11.047,4.142 L14.674,4.669 C14.9660783,4.71081312 15.2089769,4.91504981 15.3003043,5.19561594 C15.3916316,5.47618208 15.3154992,5.78426688 15.104,5.99 L12.479,8.55 C12.296614,8.7278123 12.2132471,8.98389429 12.256,9.235 L12.876,12.848 C12.9252825,13.1384507 12.8056249,13.4317274 12.5672229,13.6048022 C12.3288209,13.7778769 12.012905,13.8008173 11.752,13.664 L8.508,11.959 C8.28229835,11.8404001 8.01270165,11.8404001 7.787,11.959 L4.543,13.664 C4.28209501,13.8008173 3.96617909,13.7778769 3.72777707,13.6048022 C3.48937505,13.4317274 3.36971749,13.1384507 3.419,12.848 L4.039,9.235 C4.08175288,8.98389429 3.99838605,8.7278123 3.816,8.55 L1.19,5.99 C0.979110653,5.78419692 0.903373833,5.47650012 0.994643562,5.19632328 C1.08591329,4.91614644 1.32835479,4.71209864 1.62,4.67 L5.247,4.142 C5.49909883,4.10552306 5.71711087,3.94734279 5.83,3.719 L7.453,0.432 C7.58321164,0.167331947 7.85253517,-0.000319227933 8.1475,-0.000319227933 C8.44246483,-0.000319227933 8.71178836,0.167331947 8.842,0.432 Z" id="Path" fill="#EDB819" fill-rule="nonzero"></path>
    </g>
</svg>