<svg xmlns="http://www.w3.org/2000/svg" width="21" height="21" viewBox="0 0 21 21">
    <g fill="none" fill-rule="evenodd" transform="translate(.578 .267)">
        <ellipse cx="9.922" cy="10.222" fill="#FFF" rx="8.878" ry="8.178"/>
        <path fill="#5067EB" fill-rule="nonzero" d="M10.148 0c5.595 0 10.148 4.455 10.148 9.932 0 5.476-4.553 9.932-10.148 9.932C4.552 19.864 0 15.408 0 9.932 0 4.455 4.552 0 10.148 0zm0 2.113c-4.405 0-7.989 3.508-7.989 7.819s3.584 7.818 7.989 7.818c4.405 0 7.989-3.507 7.989-7.818s-3.584-7.819-7.99-7.819zm-.108 1.328c.462 0 .836.366.836.818v5.366h4.56c.462 0 .836.366.836.818a.827.827 0 0 1-.836.818H10.04a.827.827 0 0 1-.835-.818V4.259c0-.452.374-.818.835-.818z"/>
    </g>
</svg>
