<svg xmlns="http://www.w3.org/2000/svg" width="28" height="36" viewBox="0 0 28 36">
    <path fill="#FFF" fill-rule="nonzero" d="M8.118 16.619c.252 0 .487.156.578.405l4.169 11.438c.24.66 1.173.66 1.414 0l4.169-11.438a.616.616 0 0 1 .759-.378s2.77.388 3.674.609l.011.003a6.111 6.111 0 0 1 4.211 5.81v9.55a2.583 2.583 0 0 1-2.582 2.582H2.62a2.583 2.583 0 0 1-2.583-2.583V23.1c0-2.655 1.634-5.202 4.225-5.846.948-.236 3.795-.635 3.855-.635zm6.37-.463c.246 0 .49.09.656.272.257.28.295.686.112 1.003l-.981 1.48.46 3.873-.905 2.406a.276.276 0 0 1-.519 0l-.904-2.406.46-3.874-.982-1.479a.851.851 0 0 1 .112-1.003.886.886 0 0 1 .656-.272zM13.572 0a6.954 6.954 0 0 1 6.946 6.946 6.954 6.954 0 0 1-6.946 6.946 6.954 6.954 0 0 1-6.947-6.946A6.954 6.954 0 0 1 13.572 0z"/>
</svg>
