<?xml version="1.0" encoding="UTF-8"?>
<svg width="100px" height="100px" viewBox="0 0 100 100" version="1.1" xmlns="http://www.w3.org/2000/svg" xmlns:xlink="http://www.w3.org/1999/xlink">
    <!-- Generator: Sketch 59.1 (86144) - https://sketch.com -->
    <title>Group 2</title>
    <desc>Created with Sketch.</desc>
    <g id="Main_Page" stroke="none" stroke-width="1" fill="none" fill-rule="evenodd">
        <g id="7.4-delete-account-copy" transform="translate(-208.000000, -81.000000)">
            <g id="Group-2" transform="translate(208.000000, 81.000000)">
                <circle id="Oval" fill="#F0F4FF" cx="50" cy="50" r="50"></circle>
                <g id="remove-user" transform="translate(30.000000, 30.000000)" fill="#5067EB" fill-rule="nonzero">
                    <path d="M20,0 C25.8586719,0 30.625,4.76640625 30.625,10.625 C30.625,14.0975781 28.9503906,17.1864062 26.3664063,19.1264063 C28.3098438,19.7665625 30.1547656,20.7038281 31.849375,21.9215625 C32.5501563,22.4251562 32.71,23.4014844 32.2064063,24.1022656 C31.7028125,24.8028906 30.7264063,24.9628125 30.0257031,24.4592188 C27.205,22.4321875 23.8911719,21.3240625 20.4172656,21.241875 C20.2788281,21.2472656 20.1396875,21.25 20,21.25 C19.86125,21.25 19.7232031,21.2473437 19.5857813,21.2420313 C11.6522656,21.4339063 4.78234375,27.1234375 3.16078125,34.9121094 C3.05945313,35.39875 3.18007813,35.8975781 3.49171875,36.2807813 C3.6721875,36.5026563 4.07460938,36.875 4.74164063,36.875 L4.74164063,36.875 L20.859375,36.875 C21.7223438,36.875 22.421875,37.5745312 22.421875,38.4375 C22.421875,39.3004688 21.7223438,40 20.859375,40 L20.859375,40 L4.74164063,40 C3.30976563,40 1.97046875,39.3630469 1.06726563,38.2524219 C0.159609375,37.1363281 -0.1925,35.6866406 0.10140625,34.2752344 C1.03914063,29.7707813 3.52328125,25.6716406 7.09609375,22.7328125 C9.04453125,21.1301562 11.2707031,19.9147656 13.6432031,19.1336719 C11.05375,17.1940625 9.375,14.101875 9.375,10.625 C9.375,4.76640625 14.1413281,0 20,0 Z M37.1537382,28.4899592 C37.8048584,27.8366803 38.8606508,27.8366803 39.5116599,28.4899592 C40.16278,29.1433496 40.16278,30.2027118 39.5116599,30.8561022 L39.5116599,30.8561022 L30.8879846,39.5098457 C30.5625356,39.8365409 30.1356408,40 29.7090793,40 C29.2825178,40 28.8557341,39.8365409 28.530174,39.5098457 L28.530174,39.5098457 L24.4883401,35.4541421 C23.83722,34.8007517 23.83722,33.741278 24.4883401,33.0879991 C25.1394603,32.4347202 26.1952527,32.4347202 26.8462618,33.0879991 L26.8462618,33.0879991 L29.7089682,35.9606869 Z M20,3.125 C15.8644531,3.125 12.5,6.48945312 12.5,10.625 C12.5,14.63375 15.6613281,17.9179688 19.621875,18.1155469 C19.7478125,18.1132031 19.8739063,18.1119531 20,18.1119531 C20.1269531,18.1119531 20.25375,18.113125 20.3803906,18.1155469 C24.3398438,17.9167188 27.5,14.6329687 27.5,10.625 C27.5,6.48945312 24.1355469,3.125 20,3.125 Z" id="Combined-Shape"></path>
                </g>
            </g>
        </g>
    </g>
</svg>