<svg xmlns="http://www.w3.org/2000/svg" width="28" height="28" viewBox="0 0 28 28">
    <path fill="#AEAEAE" fill-rule="nonzero" d="M11.478 13.97c.14 0 .27.085.32.22l2.31 6.173c.134.356.651.356.785 0l2.31-6.174a.343.343 0 0 1 .42-.204s1.536.21 2.037.329l.006.002C21.06 14.759 22 16.025 22 17.452v5.154c0 .77-.64 1.394-1.431 1.394H8.43C7.641 24 7 23.376 7 22.606v-5.137c0-1.433.906-2.808 2.341-3.156.526-.127 2.104-.343 2.137-.343zm3.53-.25c.137 0 .272.05.364.147a.45.45 0 0 1 .062.542l-.544.798.255 2.091-.501 1.3c-.05.13-.239.13-.288 0l-.5-1.3.254-2.09-.544-.8a.45.45 0 0 1 .062-.54.498.498 0 0 1 .363-.148zM14.502 5c2.122 0 3.85 1.682 3.85 3.75 0 2.067-1.728 3.749-3.85 3.749-2.123 0-3.85-1.682-3.85-3.75C10.65 6.682 12.378 5 14.5 5z"/>
</svg>
