<?xml version="1.0" encoding="UTF-8"?>
<svg width="24px" height="24px" viewBox="0 0 24 24" version="1.1" xmlns="http://www.w3.org/2000/svg" xmlns:xlink="http://www.w3.org/1999/xlink">
    <!-- Generator: Sketch 59.1 (86144) - https://sketch.com -->
    <title>ZtoA</title>
    <desc>Created with Sketch.</desc>
    <g id="ZtoA" stroke="none" stroke-width="1" fill="none" fill-rule="evenodd">
        <path d="M15.34,5.36 L10.62,5.36 L12.98,3 L15.34,5.36 Z M10.65,20.07 L15.31,20.07 L12.98,22.4 L10.65,20.07 Z M16,7 L11.5,18.46 L13.34,18.46 L14.26,16.01 L19.37,16.01 L20.29,18.46 L22.13,18.46 L17.64,7 L16,7 Z M14.87,14.34 L16.81,9.16 L18.75,14.34 L14.87,14.34 Z M4.41,16.86 L10.53,16.86 L10.53,18.45 L2,18.45 L2,17.16 L7.92,8.6 L2.04,8.6 L2.04,7 L10.34,7 L10.34,8.26 L4.41,16.86 L4.41,16.86 Z" id="Shape" fill="#000000" fill-rule="nonzero"></path>
    </g>
</svg>