<?xml version="1.0" encoding="UTF-8"?>
<svg width="16px" height="14px" viewBox="0 0 16 14" version="1.1" xmlns="http://www.w3.org/2000/svg" xmlns:xlink="http://www.w3.org/1999/xlink">
    <!-- Generator: Sketch 59.1 (86144) - https://sketch.com -->
    <title>Group</title>
    <desc>Created with Sketch.</desc>
    <g id="Sweatreview-(Gym-Trainer)-" stroke="none" stroke-width="1" fill="none" fill-rule="evenodd">
        <g id="1.2-gym-trainer_gym-activities" transform="translate(-681.000000, -2262.000000)" fill-rule="nonzero">
            <g id="Group" transform="translate(681.956557, 2261.999681)">
                <path d="M7.88544261,0.432319228 L9.50744261,3.71931923 C9.62044261,3.94731923 9.83744261,4.10631923 10.0904426,4.14231923 L13.7174426,4.66931923 C14.0095209,4.71113235 14.2524195,4.91536904 14.3437469,5.19593517 C14.4350742,5.47650131 14.3589418,5.78458611 14.1474426,5.99031923 L11.5224426,8.55031923 C11.3400566,8.72813153 11.2566897,8.98421352 11.2994426,9.23531923 L11.9194426,12.8483192 C11.9687251,13.1387699 11.8490675,13.4320466 11.6106655,13.6051214 C11.3722635,13.7781961 11.0563476,13.8011365 10.7954426,13.6643192 L7.55144261,11.9593192 C7.32574096,11.8407193 7.05614426,11.8407193 6.83044261,11.9593192 L3.58644261,13.6643192 C3.32553762,13.8011365 3.0096217,13.7781961 2.77121968,13.6051214 C2.53281766,13.4320466 2.4131601,13.1387699 2.46244261,12.8483192 L3.08244261,9.23531923 C3.12519549,8.98421352 3.04182866,8.72813153 2.85944261,8.55031923 L0.233442611,5.99031923 C0.0225532636,5.78451615 -0.0531835564,5.47681935 0.0380861726,5.19664251 C0.129355901,4.91646567 0.371797401,4.71241787 0.663442611,4.67031923 L4.29044261,4.14231923 C4.54254144,4.10584229 4.76055348,3.94766202 4.87344261,3.71931923 L6.49644261,0.432319228 C6.62665425,0.167651175 6.89597778,-6.21724894e-14 7.19094261,-6.21724894e-14 C7.48590744,-6.21724894e-14 7.75523097,0.167651175 7.88544261,0.432319228 Z" id="Path" fill="#CBC8C6"></path>
                <path d="M7.20194434,11.8704473 C7.03173862,11.8889911 6.90790471,11.9186151 6.83044261,11.9593192 L3.58644261,13.6643192 C3.32553762,13.8011365 3.0096217,13.7781961 2.77121968,13.6051214 C2.53281766,13.4320466 2.4131601,13.1387699 2.46244261,12.8483192 L3.08244261,9.23531923 C3.12519549,8.98421352 3.04182866,8.72813153 2.85944261,8.55031923 L0.233442611,5.99031923 C0.0225532636,5.78451615 -0.0531835564,5.47681935 0.0380861726,5.19664251 C0.129355901,4.91646567 0.371797401,4.71241787 0.663442611,4.67031923 L4.29044261,4.14231923 C4.54254144,4.10584229 4.76055348,3.94766202 4.87344261,3.71931923 C5.70918517,1.7993389 6.25018517,0.703672236 6.49644261,0.432319228 C6.74270005,0.16096622 6.97420005,0.0168598102 7.19094261,-6.57252031e-14 L7.20194434,11.8704473 Z" id="Path" fill="#EDB819"></path>
            </g>
        </g>
    </g>
</svg>